{"glyphs":{"0":{"ha":521,"x_min":0,"x_max":521,"o":"m 377 1116 l 377 1047 l 446 1047 l 446 1116 l 377 1116 m 377 972 l 446 972 l 446 1042 l 377 1042 l 377 972 m 303 972 l 372 972 l 372 1042 l 303 1042 l 303 972 m 228 972 l 298 972 l 298 1042 l 228 1042 l 228 972 m 154 972 l 223 972 l 223 1042 l 154 1042 l 154 972 m 79 972 l 149 972 l 149 1042 l 79 1042 l 79 972 m 5 972 l 74 972 l 74 1042 l 5 1042 l 5 972 m 377 898 l 446 898 l 446 967 l 377 967 l 377 898 m 303 898 l 372 898 l 372 967 l 303 967 l 303 898 m 228 898 l 298 898 l 298 967 l 228 967 l 228 898 m 154 898 l 223 898 l 223 967 l 154 967 l 154 898 m 79 898 l 149 898 l 149 967 l 79 967 l 79 898 m 5 898 l 74 898 l 74 967 l 5 967 l 5 898 m 377 823 l 446 823 l 446 893 l 377 893 l 377 823 m 303 823 l 372 823 l 372 893 l 303 893 l 303 823 m 228 823 l 298 823 l 298 893 l 228 893 l 228 823 m 154 823 l 223 823 l 223 893 l 154 893 l 154 823 m 79 823 l 149 823 l 149 893 l 79 893 l 79 823 m 5 823 l 74 823 l 74 893 l 5 893 l 5 823 m 228 749 l 298 749 l 298 818 l 228 818 l 228 749 m 5 749 l 74 749 l 74 818 l 5 818 l 5 749 m 154 749 l 223 749 l 223 818 l 154 818 l 154 749 m 303 749 l 372 749 l 372 818 l 303 818 l 303 749 m 377 749 l 446 749 l 446 818 l 377 818 l 377 749 m 79 749 l 149 749 l 149 818 l 79 818 l 79 749 m 5 675 l 74 675 l 74 744 l 5 744 l 5 675 m 377 675 l 446 675 l 446 744 l 377 744 l 377 675 m 228 526 l 298 526 l 298 595 l 228 595 l 228 526 m 154 526 l 223 526 l 223 595 l 154 595 l 154 526 m 154 451 l 223 451 l 223 521 l 154 521 l 154 451 m 228 451 l 298 451 l 298 521 l 228 521 l 228 451 m 228 377 l 298 377 l 298 446 l 228 446 l 228 377 m 154 377 l 223 377 l 223 446 l 154 446 l 154 377 m 228 303 l 298 303 l 298 372 l 228 372 l 228 303 m 154 303 l 223 303 l 223 372 l 154 372 l 154 303 m 228 228 l 298 228 l 298 298 l 228 298 l 228 228 m 154 228 l 223 228 l 223 298 l 154 298 l 154 228 m 228 154 l 298 154 l 298 223 l 228 223 l 228 154 m 154 154 l 223 154 l 223 223 l 154 223 l 154 154 m 377 5 l 446 5 l 446 74 l 377 74 l 377 5 m 5 5 l 74 5 l 74 74 l 5 74 l 5 5 m 154 -69 l 223 -69 l 223 0 l 154 0 l 154 -69 m 79 -69 l 149 -69 l 149 0 l 79 0 l 79 -69 m 377 -69 l 446 -69 l 446 0 l 377 0 l 377 -69 m 303 -69 l 372 -69 l 372 0 l 303 0 l 303 -69 m 5 -69 l 74 -69 l 74 0 l 5 0 l 5 -69 m 228 -69 l 298 -69 l 298 0 l 228 0 l 228 -69 m 303 -144 l 372 -144 l 372 -74 l 303 -74 l 303 -144 m 79 -144 l 149 -144 l 149 -74 l 79 -74 l 79 -144 m 5 -144 l 74 -144 l 74 -74 l 5 -74 l 5 -144 m 154 -144 l 223 -144 l 223 -74 l 154 -74 l 154 -144 m 377 -144 l 446 -144 l 446 -74 l 377 -74 l 377 -144 m 228 -144 l 298 -144 l 298 -74 l 228 -74 l 228 -144 m 303 -293 l 372 -293 l 372 -223 l 303 -223 l 303 -293 m 79 -293 l 149 -293 l 149 -223 l 79 -223 l 79 -293 m 5 -293 l 74 -293 l 74 -223 l 5 -223 l 5 -293 m 228 -293 l 298 -293 l 298 -223 l 228 -223 l 228 -293 m 154 -293 l 223 -293 l 223 -223 l 154 -223 l 154 -293 m 377 -293 l 446 -293 l 446 -223 l 377 -223 l 377 -293 m 79 -367 l 149 -367 l 149 -298 l 79 -298 l 79 -367 m 228 -367 l 298 -367 l 298 -298 l 228 -298 l 228 -367 m 5 -367 l 74 -367 l 74 -298 l 5 -298 l 5 -367 m 303 -367 l 372 -367 l 372 -298 l 303 -298 l 303 -367 m 377 -367 l 446 -367 l 446 -298 l 377 -298 l 377 -367 m 154 -367 l 223 -367 l 223 -298 l 154 -298 l 154 -367 m 303 1116 l 303 1047 l 372 1047 l 372 1116 l 303 1116 m 228 1116 l 228 1047 l 298 1047 l 298 1116 l 228 1116 m 154 1116 l 154 1047 l 223 1047 l 223 1116 l 154 1116 m 79 1116 l 79 1047 l 149 1047 l 149 1116 l 79 1116 m 5 1116 l 5 1047 l 74 1047 l 74 1116 l 5 1116 m 0 -372 l 0 1121 l 521 1121 l 521 1116 l 451 1116 l 451 1047 l 521 1047 l 521 1042 l 451 1042 l 451 972 l 521 972 l 521 967 l 451 967 l 451 898 l 521 898 l 521 893 l 451 893 l 451 823 l 521 823 l 521 818 l 451 818 l 451 749 l 521 749 l 521 744 l 451 744 l 451 675 l 521 675 l 521 670 l 451 670 l 451 600 l 521 600 l 521 595 l 451 595 l 451 526 l 521 526 l 521 521 l 451 521 l 451 451 l 521 451 l 521 446 l 451 446 l 451 377 l 521 377 l 521 372 l 451 372 l 451 303 l 521 303 l 521 298 l 451 298 l 451 228 l 521 228 l 521 223 l 451 223 l 451 154 l 521 154 l 521 149 l 451 149 l 451 79 l 521 79 l 521 74 l 451 74 l 451 5 l 521 5 l 521 0 l 451 0 l 451 -69 l 521 -69 l 521 -74 l 451 -74 l 451 -144 l 521 -144 l 521 -149 l 451 -149 l 451 -218 l 521 -218 l 521 -223 l 451 -223 l 451 -293 l 521 -293 l 521 -298 l 451 -298 l 451 -367 l 521 -367 l 521 -372 l 0 -372 m 74 -218 l 74 -149 l 5 -149 l 5 -218 l 74 -218 m 149 -218 l 149 -149 l 79 -149 l 79 -218 l 149 -218 m 223 -218 l 223 -149 l 154 -149 l 154 -218 l 223 -218 m 446 -218 l 446 -149 l 228 -149 l 228 -218 l 298 -218 l 298 -149 l 303 -149 l 303 -218 l 372 -218 l 372 -149 l 377 -149 l 377 -218 l 446 -218 z "},"1":{"ha":298,"x_min":0,"x_max":298,"o":"m 154 1116 l 154 1047 l 223 1047 l 223 1116 l 154 1116 m 154 972 l 223 972 l 223 1042 l 154 1042 l 154 972 m 79 972 l 149 972 l 149 1042 l 79 1042 l 79 972 m 5 972 l 74 972 l 74 1042 l 5 1042 l 5 972 m 154 898 l 223 898 l 223 967 l 154 967 l 154 898 m 79 898 l 149 898 l 149 967 l 79 967 l 79 898 m 5 898 l 74 898 l 74 967 l 5 967 l 5 898 m 79 823 l 149 823 l 149 893 l 79 893 l 79 823 m 154 823 l 223 823 l 223 893 l 154 893 l 154 823 m 5 823 l 74 823 l 74 893 l 5 893 l 5 823 m 154 749 l 223 749 l 223 818 l 154 818 l 154 749 m 79 749 l 149 749 l 149 818 l 79 818 l 79 749 m 5 749 l 74 749 l 74 818 l 5 818 l 5 749 m 5 526 l 74 526 l 74 595 l 5 595 l 5 526 m 5 451 l 74 451 l 74 521 l 5 521 l 5 451 m 5 377 l 74 377 l 74 446 l 5 446 l 5 377 m 5 303 l 74 303 l 74 372 l 5 372 l 5 303 m 5 228 l 74 228 l 74 298 l 5 298 l 5 228 m 5 154 l 74 154 l 74 223 l 5 223 l 5 154 m 5 79 l 74 79 l 74 149 l 5 149 l 5 79 m 5 5 l 74 5 l 74 74 l 5 74 l 5 5 m 5 -69 l 74 -69 l 74 0 l 5 0 l 5 -69 m 79 -69 l 149 -69 l 149 0 l 79 0 l 79 -69 m 154 -69 l 223 -69 l 223 0 l 154 0 l 154 -69 m 154 -144 l 223 -144 l 223 -74 l 154 -74 l 154 -144 m 5 -144 l 74 -144 l 74 -74 l 5 -74 l 5 -144 m 79 -144 l 149 -144 l 149 -74 l 79 -74 l 79 -144 m 154 -293 l 223 -293 l 223 -223 l 154 -223 l 154 -293 m 79 -293 l 149 -293 l 149 -223 l 79 -223 l 79 -293 m 5 -293 l 74 -293 l 74 -223 l 5 -223 l 5 -293 m 154 -367 l 223 -367 l 223 -298 l 154 -298 l 154 -367 m 79 -367 l 149 -367 l 149 -298 l 79 -298 l 79 -367 m 5 -367 l 74 -367 l 74 -298 l 5 -298 l 5 -367 m 79 1116 l 79 1047 l 149 1047 l 149 1116 l 79 1116 m 5 1116 l 5 1047 l 74 1047 l 74 1116 l 5 1116 m 0 -149 l 0 1121 l 298 1121 l 298 1116 l 228 1116 l 228 1047 l 298 1047 l 298 1042 l 228 1042 l 228 972 l 298 972 l 298 967 l 228 967 l 228 898 l 298 898 l 298 893 l 228 893 l 228 823 l 298 823 l 298 818 l 228 818 l 228 749 l 298 749 l 298 744 l 228 744 l 228 675 l 298 675 l 298 670 l 228 670 l 228 600 l 298 600 l 298 595 l 228 595 l 228 526 l 298 526 l 298 521 l 228 521 l 228 451 l 298 451 l 298 446 l 228 446 l 228 377 l 298 377 l 298 372 l 228 372 l 228 303 l 298 303 l 298 298 l 228 298 l 228 228 l 298 228 l 298 223 l 228 223 l 228 154 l 298 154 l 298 149 l 228 149 l 228 79 l 298 79 l 298 74 l 228 74 l 228 5 l 298 5 l 298 0 l 228 0 l 228 -69 l 298 -69 l 298 -74 l 228 -74 l 228 -144 l 298 -144 l 298 -149 l 228 -149 l 228 -218 l 298 -218 l 298 -223 l 228 -223 l 228 -293 l 298 -293 l 298 -298 l 228 -298 l 228 -367 l 298 -367 l 298 -372 l 0 -372 l 0 -149 l 5 -149 l 5 -218 l 74 -218 l 74 -149 l 0 -149 m 149 -218 l 149 -149 l 79 -149 l 79 -218 l 149 -218 m 223 -218 l 223 -149 l 154 -149 l 154 -218 l 223 -218 z "},"2":{"ha":595,"x_min":0,"x_max":595,"o":"m 451 1116 l 451 1047 l 521 1047 l 521 1116 l 451 1116 m 377 972 l 446 972 l 446 1042 l 377 1042 l 377 972 m 303 972 l 372 972 l 372 1042 l 303 1042 l 303 972 m 228 972 l 298 972 l 298 1042 l 228 1042 l 228 972 m 451 972 l 521 972 l 521 1042 l 451 1042 l 451 972 m 154 972 l 223 972 l 223 1042 l 154 1042 l 154 972 m 79 972 l 149 972 l 149 1042 l 79 1042 l 79 972 m 5 972 l 74 972 l 74 1042 l 5 1042 l 5 972 m 377 898 l 446 898 l 446 967 l 377 967 l 377 898 m 5 898 l 74 898 l 74 967 l 5 967 l 5 898 m 451 898 l 521 898 l 521 967 l 451 967 l 451 898 m 228 898 l 298 898 l 298 967 l 228 967 l 228 898 m 79 898 l 149 898 l 149 967 l 79 967 l 79 898 m 303 898 l 372 898 l 372 967 l 303 967 l 303 898 m 154 898 l 223 898 l 223 967 l 154 967 l 154 898 m 451 823 l 521 823 l 521 893 l 451 893 l 451 823 m 377 823 l 446 823 l 446 893 l 377 893 l 377 823 m 79 823 l 149 823 l 149 893 l 79 893 l 79 823 m 228 823 l 298 823 l 298 893 l 228 893 l 228 823 m 303 823 l 372 823 l 372 893 l 303 893 l 303 823 m 5 823 l 74 823 l 74 893 l 5 893 l 5 823 m 154 823 l 223 823 l 223 893 l 154 893 l 154 823 m 79 749 l 149 749 l 149 818 l 79 818 l 79 749 m 451 749 l 521 749 l 521 818 l 451 818 l 451 749 m 377 749 l 446 749 l 446 818 l 377 818 l 377 749 m 228 749 l 298 749 l 298 818 l 228 818 l 228 749 m 5 749 l 74 749 l 74 818 l 5 818 l 5 749 m 303 749 l 372 749 l 372 818 l 303 818 l 303 749 m 154 749 l 223 749 l 223 818 l 154 818 l 154 749 m 5 675 l 74 675 l 74 744 l 5 744 l 5 675 m 451 675 l 521 675 l 521 744 l 451 744 l 451 675 m 154 526 l 223 526 l 223 595 l 154 595 l 154 526 m 303 526 l 372 526 l 372 595 l 303 595 l 303 526 m 228 526 l 298 526 l 298 595 l 228 595 l 228 526 m 154 451 l 223 451 l 223 521 l 154 521 l 154 451 m 228 451 l 298 451 l 298 521 l 228 521 l 228 451 m 79 451 l 149 451 l 149 521 l 79 521 l 79 451 m 5 451 l 74 451 l 74 521 l 5 521 l 5 451 m 79 377 l 149 377 l 149 446 l 79 446 l 79 377 m 451 377 l 521 377 l 521 446 l 451 446 l 451 377 m 5 377 l 74 377 l 74 446 l 5 446 l 5 377 m 154 377 l 223 377 l 223 446 l 154 446 l 154 377 m 451 303 l 521 303 l 521 372 l 451 372 l 451 303 m 377 303 l 446 303 l 446 372 l 377 372 l 377 303 m 79 303 l 149 303 l 149 372 l 79 372 l 79 303 m 5 303 l 74 303 l 74 372 l 5 372 l 5 303 m 303 228 l 372 228 l 372 298 l 303 298 l 303 228 m 451 228 l 521 228 l 521 298 l 451 298 l 451 228 m 377 228 l 446 228 l 446 298 l 377 298 l 377 228 m 5 228 l 74 228 l 74 298 l 5 298 l 5 228 m 303 154 l 372 154 l 372 223 l 303 223 l 303 154 m 228 154 l 298 154 l 298 223 l 228 223 l 228 154 m 451 154 l 521 154 l 521 223 l 451 223 l 451 154 m 377 154 l 446 154 l 446 223 l 377 223 l 377 154 m 79 -69 l 149 -69 l 149 0 l 79 0 l 79 -69 m 154 -69 l 223 -69 l 223 0 l 154 0 l 154 -69 m 5 -69 l 74 -69 l 74 0 l 5 0 l 5 -69 m 451 -69 l 521 -69 l 521 0 l 451 0 l 451 -69 m 377 -69 l 446 -69 l 446 0 l 377 0 l 377 -69 m 228 -69 l 298 -69 l 298 0 l 228 0 l 228 -69 m 303 -69 l 372 -69 l 372 0 l 303 0 l 303 -69 m 154 -144 l 223 -144 l 223 -74 l 154 -74 l 154 -144 m 79 -144 l 149 -144 l 149 -74 l 79 -74 l 79 -144 m 451 -144 l 521 -144 l 521 -74 l 451 -74 l 451 -144 m 5 -144 l 74 -144 l 74 -74 l 5 -74 l 5 -144 m 228 -144 l 298 -144 l 298 -74 l 228 -74 l 228 -144 m 377 -144 l 446 -144 l 446 -74 l 377 -74 l 377 -144 m 303 -144 l 372 -144 l 372 -74 l 303 -74 l 303 -144 m 154 -293 l 223 -293 l 223 -223 l 154 -223 l 154 -293 m 79 -293 l 149 -293 l 149 -223 l 79 -223 l 79 -293 m 451 -293 l 521 -293 l 521 -223 l 451 -223 l 451 -293 m 228 -293 l 298 -293 l 298 -223 l 228 -223 l 228 -293 m 5 -293 l 74 -293 l 74 -223 l 5 -223 l 5 -293 m 303 -293 l 372 -293 l 372 -223 l 303 -223 l 303 -293 m 377 -293 l 446 -293 l 446 -223 l 377 -223 l 377 -293 m 377 -367 l 446 -367 l 446 -298 l 377 -298 l 377 -367 m 303 -367 l 372 -367 l 372 -298 l 303 -298 l 303 -367 m 154 -367 l 223 -367 l 223 -298 l 154 -298 l 154 -367 m 5 -367 l 74 -367 l 74 -298 l 5 -298 l 5 -367 m 228 -367 l 298 -367 l 298 -298 l 228 -298 l 228 -367 m 79 -367 l 149 -367 l 149 -298 l 79 -298 l 79 -367 m 451 -367 l 521 -367 l 521 -298 l 451 -298 l 451 -367 m 377 1116 l 377 1047 l 446 1047 l 446 1116 l 377 1116 m 303 1116 l 303 1047 l 372 1047 l 372 1116 l 303 1116 m 228 1116 l 228 1047 l 298 1047 l 298 1116 l 228 1116 m 154 1116 l 154 1047 l 223 1047 l 223 1116 l 154 1116 m 79 1116 l 79 1047 l 149 1047 l 149 1116 l 79 1116 m 5 1116 l 5 1047 l 74 1047 l 74 1116 l 5 1116 m 0 -149 l 0 1121 l 595 1121 l 595 1116 l 526 1116 l 526 1047 l 595 1047 l 595 1042 l 526 1042 l 526 972 l 595 972 l 595 967 l 526 967 l 526 898 l 595 898 l 595 893 l 526 893 l 526 823 l 595 823 l 595 818 l 526 818 l 526 749 l 595 749 l 595 744 l 526 744 l 526 675 l 595 675 l 595 670 l 526 670 l 526 600 l 595 600 l 595 595 l 526 595 l 526 526 l 595 526 l 595 521 l 526 521 l 526 451 l 595 451 l 595 446 l 526 446 l 526 377 l 595 377 l 595 372 l 526 372 l 526 303 l 595 303 l 595 298 l 526 298 l 526 228 l 595 228 l 595 223 l 526 223 l 526 154 l 595 154 l 595 149 l 526 149 l 526 79 l 595 79 l 595 74 l 526 74 l 526 5 l 595 5 l 595 0 l 526 0 l 526 -69 l 595 -69 l 595 -74 l 526 -74 l 526 -144 l 595 -144 l 595 -149 l 526 -149 l 526 -218 l 595 -218 l 595 -223 l 526 -223 l 526 -293 l 595 -293 l 595 -298 l 526 -298 l 526 -367 l 595 -367 l 595 -372 l 0 -372 l 0 -149 l 5 -149 l 5 -218 l 74 -218 l 74 -149 l 79 -149 l 79 -218 l 149 -218 l 149 -149 l 154 -149 l 154 -218 l 223 -218 l 223 -149 l 0 -149 m 521 -218 l 521 -149 l 228 -149 l 228 -218 l 298 -218 l 298 -149 l 303 -149 l 303 -218 l 372 -218 l 372 -149 l 377 -149 l 377 -218 l 446 -218 l 446 -149 l 451 -149 l 451 -218 l 521 -218 z "},"3":{"ha":595,"x_min":0,"x_max":595,"o":"m 451 1116 l 451 1047 l 521 1047 l 521 1116 l 451 1116 m 377 972 l 446 972 l 446 1042 l 377 1042 l 377 972 m 154 972 l 223 972 l 223 1042 l 154 1042 l 154 972 m 451 972 l 521 972 l 521 1042 l 451 1042 l 451 972 m 79 972 l 149 972 l 149 1042 l 79 1042 l 79 972 m 228 972 l 298 972 l 298 1042 l 228 1042 l 228 972 m 5 972 l 74 972 l 74 1042 l 5 1042 l 5 972 m 303 972 l 372 972 l 372 1042 l 303 1042 l 303 972 m 79 898 l 149 898 l 149 967 l 79 967 l 79 898 m 377 898 l 446 898 l 446 967 l 377 967 l 377 898 m 303 898 l 372 898 l 372 967 l 303 967 l 303 898 m 228 898 l 298 898 l 298 967 l 228 967 l 228 898 m 451 898 l 521 898 l 521 967 l 451 967 l 451 898 m 154 898 l 223 898 l 223 967 l 154 967 l 154 898 m 5 898 l 74 898 l 74 967 l 5 967 l 5 898 m 5 823 l 74 823 l 74 893 l 5 893 l 5 823 m 79 823 l 149 823 l 149 893 l 79 893 l 79 823 m 228 823 l 298 823 l 298 893 l 228 893 l 228 823 m 303 823 l 372 823 l 372 893 l 303 893 l 303 823 m 377 823 l 446 823 l 446 893 l 377 893 l 377 823 m 451 823 l 521 823 l 521 893 l 451 893 l 451 823 m 154 823 l 223 823 l 223 893 l 154 893 l 154 823 m 154 749 l 223 749 l 223 818 l 154 818 l 154 749 m 5 749 l 74 749 l 74 818 l 5 818 l 5 749 m 377 749 l 446 749 l 446 818 l 377 818 l 377 749 m 303 749 l 372 749 l 372 818 l 303 818 l 303 749 m 228 749 l 298 749 l 298 818 l 228 818 l 228 749 m 451 749 l 521 749 l 521 818 l 451 818 l 451 749 m 79 749 l 149 749 l 149 818 l 79 818 l 79 749 m 5 675 l 74 675 l 74 744 l 5 744 l 5 675 m 451 675 l 521 675 l 521 744 l 451 744 l 451 675 m 154 526 l 223 526 l 223 595 l 154 595 l 154 526 m 303 526 l 372 526 l 372 595 l 303 595 l 303 526 m 228 526 l 298 526 l 298 595 l 228 595 l 228 526 m 154 451 l 223 451 l 223 521 l 154 521 l 154 451 m 79 451 l 149 451 l 149 521 l 79 521 l 79 451 m 303 451 l 372 451 l 372 521 l 303 521 l 303 451 m 5 451 l 74 451 l 74 521 l 5 521 l 5 451 m 228 451 l 298 451 l 298 521 l 228 521 l 228 451 m 451 377 l 521 377 l 521 446 l 451 446 l 451 377 m 5 377 l 74 377 l 74 446 l 5 446 l 5 377 m 79 377 l 149 377 l 149 446 l 79 446 l 79 377 m 79 303 l 149 303 l 149 372 l 79 372 l 79 303 m 5 303 l 74 303 l 74 372 l 5 372 l 5 303 m 451 303 l 521 303 l 521 372 l 451 372 l 451 303 m 303 228 l 372 228 l 372 298 l 303 298 l 303 228 m 5 228 l 74 228 l 74 298 l 5 298 l 5 228 m 79 228 l 149 228 l 149 298 l 79 298 l 79 228 m 154 228 l 223 228 l 223 298 l 154 298 l 154 228 m 228 228 l 298 228 l 298 298 l 228 298 l 228 228 m 303 154 l 372 154 l 372 223 l 303 223 l 303 154 m 154 154 l 223 154 l 223 223 l 154 223 l 154 154 m 228 154 l 298 154 l 298 223 l 228 223 l 228 154 m 451 5 l 521 5 l 521 74 l 451 74 l 451 5 m 5 5 l 74 5 l 74 74 l 5 74 l 5 5 m 5 -69 l 74 -69 l 74 0 l 5 0 l 5 -69 m 228 -69 l 298 -69 l 298 0 l 228 0 l 228 -69 m 451 -69 l 521 -69 l 521 0 l 451 0 l 451 -69 m 154 -69 l 223 -69 l 223 0 l 154 0 l 154 -69 m 377 -69 l 446 -69 l 446 0 l 377 0 l 377 -69 m 303 -69 l 372 -69 l 372 0 l 303 0 l 303 -69 m 79 -69 l 149 -69 l 149 0 l 79 0 l 79 -69 m 79 -144 l 149 -144 l 149 -74 l 79 -74 l 79 -144 m 377 -144 l 446 -144 l 446 -74 l 377 -74 l 377 -144 m 303 -144 l 372 -144 l 372 -74 l 303 -74 l 303 -144 m 5 -144 l 74 -144 l 74 -74 l 5 -74 l 5 -144 m 154 -144 l 223 -144 l 223 -74 l 154 -74 l 154 -144 m 228 -144 l 298 -144 l 298 -74 l 228 -74 l 228 -144 m 451 -144 l 521 -144 l 521 -74 l 451 -74 l 451 -144 m 79 -293 l 149 -293 l 149 -223 l 79 -223 l 79 -293 m 377 -293 l 446 -293 l 446 -223 l 377 -223 l 377 -293 m 5 -293 l 74 -293 l 74 -223 l 5 -223 l 5 -293 m 154 -293 l 223 -293 l 223 -223 l 154 -223 l 154 -293 m 228 -293 l 298 -293 l 298 -223 l 228 -223 l 228 -293 m 303 -293 l 372 -293 l 372 -223 l 303 -223 l 303 -293 m 451 -293 l 521 -293 l 521 -223 l 451 -223 l 451 -293 m 79 -367 l 149 -367 l 149 -298 l 79 -298 l 79 -367 m 5 -367 l 74 -367 l 74 -298 l 5 -298 l 5 -367 m 154 -367 l 223 -367 l 223 -298 l 154 -298 l 154 -367 m 377 -367 l 446 -367 l 446 -298 l 377 -298 l 377 -367 m 228 -367 l 298 -367 l 298 -298 l 228 -298 l 228 -367 m 451 -367 l 521 -367 l 521 -298 l 451 -298 l 451 -367 m 303 -367 l 372 -367 l 372 -298 l 303 -298 l 303 -367 m 377 1116 l 377 1047 l 446 1047 l 446 1116 l 377 1116 m 303 1116 l 303 1047 l 372 1047 l 372 1116 l 303 1116 m 228 1116 l 228 1047 l 298 1047 l 298 1116 l 228 1116 m 154 1116 l 154 1047 l 223 1047 l 223 1116 l 154 1116 m 79 1116 l 79 1047 l 149 1047 l 149 1116 l 79 1116 m 5 1116 l 5 1047 l 74 1047 l 74 1116 l 5 1116 m 0 -149 l 5 -149 l 5 -218 l 74 -218 l 74 -149 l 79 -149 l 79 -218 l 149 -218 l 149 -149 l 154 -149 l 154 -218 l 223 -218 l 223 -149 l 228 -149 l 228 -218 l 298 -218 l 298 -149 l 303 -149 l 303 -218 l 372 -218 l 372 -149 l 377 -149 l 377 -218 l 446 -218 l 446 -149 l 451 -149 l 451 -218 l 521 -218 l 521 -149 l 0 -149 l 0 1121 l 595 1121 l 595 1116 l 526 1116 l 526 1047 l 595 1047 l 595 1042 l 526 1042 l 526 972 l 595 972 l 595 967 l 526 967 l 526 898 l 595 898 l 595 893 l 526 893 l 526 823 l 595 823 l 595 818 l 526 818 l 526 749 l 595 749 l 595 744 l 526 744 l 526 675 l 595 675 l 595 670 l 526 670 l 526 600 l 595 600 l 595 595 l 526 595 l 526 526 l 595 526 l 595 521 l 526 521 l 526 451 l 595 451 l 595 446 l 526 446 l 526 377 l 595 377 l 595 372 l 526 372 l 526 303 l 595 303 l 595 298 l 526 298 l 526 228 l 595 228 l 595 223 l 526 223 l 526 154 l 595 154 l 595 149 l 526 149 l 526 79 l 595 79 l 595 74 l 526 74 l 526 5 l 595 5 l 595 0 l 526 0 l 526 -69 l 595 -69 l 595 -74 l 526 -74 l 526 -144 l 595 -144 l 595 -149 l 526 -149 l 526 -218 l 595 -218 l 595 -223 l 526 -223 l 526 -293 l 595 -293 l 595 -298 l 526 -298 l 526 -367 l 595 -367 l 595 -372 l 0 -372 l 0 -149 z "},"4":{"ha":521,"x_min":0,"x_max":521,"o":"m 377 1116 l 377 1047 l 446 1047 l 446 1116 l 377 1116 m 79 972 l 149 972 l 149 1042 l 79 1042 l 79 972 m 154 972 l 223 972 l 223 1042 l 154 1042 l 154 972 m 5 972 l 74 972 l 74 1042 l 5 1042 l 5 972 m 377 972 l 446 972 l 446 1042 l 377 1042 l 377 972 m 228 972 l 298 972 l 298 1042 l 228 1042 l 228 972 m 303 972 l 372 972 l 372 1042 l 303 1042 l 303 972 m 79 898 l 149 898 l 149 967 l 79 967 l 79 898 m 154 898 l 223 898 l 223 967 l 154 967 l 154 898 m 377 898 l 446 898 l 446 967 l 377 967 l 377 898 m 5 898 l 74 898 l 74 967 l 5 967 l 5 898 m 228 898 l 298 898 l 298 967 l 228 967 l 228 898 m 303 898 l 372 898 l 372 967 l 303 967 l 303 898 m 79 823 l 149 823 l 149 893 l 79 893 l 79 823 m 303 823 l 372 823 l 372 893 l 303 893 l 303 823 m 5 823 l 74 823 l 74 893 l 5 893 l 5 823 m 377 823 l 446 823 l 446 893 l 377 893 l 377 823 m 228 823 l 298 823 l 298 893 l 228 893 l 228 823 m 154 823 l 223 823 l 223 893 l 154 893 l 154 823 m 303 749 l 372 749 l 372 818 l 303 818 l 303 749 m 377 749 l 446 749 l 446 818 l 377 818 l 377 749 m 5 749 l 74 749 l 74 818 l 5 818 l 5 749 m 228 749 l 298 749 l 298 818 l 228 818 l 228 749 m 154 749 l 223 749 l 223 818 l 154 818 l 154 749 m 79 749 l 149 749 l 149 818 l 79 818 l 79 749 m 5 675 l 74 675 l 74 744 l 5 744 l 5 675 m 228 675 l 298 675 l 298 744 l 228 744 l 228 675 m 154 675 l 223 675 l 223 744 l 154 744 l 154 675 m 79 675 l 149 675 l 149 744 l 79 744 l 79 675 m 5 600 l 74 600 l 74 670 l 5 670 l 5 600 m 154 600 l 223 600 l 223 670 l 154 670 l 154 600 m 79 600 l 149 600 l 149 670 l 79 670 l 79 600 m 79 526 l 149 526 l 149 595 l 79 595 l 79 526 m 5 526 l 74 526 l 74 595 l 5 595 l 5 526 m 5 451 l 74 451 l 74 521 l 5 521 l 5 451 m 228 451 l 298 451 l 298 521 l 228 521 l 228 451 m 154 377 l 223 377 l 223 446 l 154 446 l 154 377 m 228 377 l 298 377 l 298 446 l 228 446 l 228 377 m 228 303 l 298 303 l 298 372 l 228 372 l 228 303 m 154 303 l 223 303 l 223 372 l 154 372 l 154 303 m 5 79 l 74 79 l 74 149 l 5 149 l 5 79 m 228 79 l 298 79 l 298 149 l 228 149 l 228 79 m 79 79 l 149 79 l 149 149 l 79 149 l 79 79 m 154 79 l 223 79 l 223 149 l 154 149 l 154 79 m 154 5 l 223 5 l 223 74 l 154 74 l 154 5 m 79 5 l 149 5 l 149 74 l 79 74 l 79 5 m 5 5 l 74 5 l 74 74 l 5 74 l 5 5 m 228 5 l 298 5 l 298 74 l 228 74 l 228 5 m 5 -69 l 74 -69 l 74 0 l 5 0 l 5 -69 m 303 -69 l 372 -69 l 372 0 l 303 0 l 303 -69 m 377 -69 l 446 -69 l 446 0 l 377 0 l 377 -69 m 79 -69 l 149 -69 l 149 0 l 79 0 l 79 -69 m 154 -69 l 223 -69 l 223 0 l 154 0 l 154 -69 m 228 -69 l 298 -69 l 298 0 l 228 0 l 228 -69 m 5 -144 l 74 -144 l 74 -74 l 5 -74 l 5 -144 m 303 -144 l 372 -144 l 372 -74 l 303 -74 l 303 -144 m 154 -144 l 223 -144 l 223 -74 l 154 -74 l 154 -144 m 377 -144 l 446 -144 l 446 -74 l 377 -74 l 377 -144 m 79 -144 l 149 -144 l 149 -74 l 79 -74 l 79 -144 m 228 -144 l 298 -144 l 298 -74 l 228 -74 l 228 -144 m 228 -293 l 298 -293 l 298 -223 l 228 -223 l 228 -293 m 5 -293 l 74 -293 l 74 -223 l 5 -223 l 5 -293 m 377 -293 l 446 -293 l 446 -223 l 377 -223 l 377 -293 m 303 -293 l 372 -293 l 372 -223 l 303 -223 l 303 -293 m 154 -293 l 223 -293 l 223 -223 l 154 -223 l 154 -293 m 79 -293 l 149 -293 l 149 -223 l 79 -223 l 79 -293 m 5 -367 l 74 -367 l 74 -298 l 5 -298 l 5 -367 m 228 -367 l 298 -367 l 298 -298 l 228 -298 l 228 -367 m 303 -367 l 372 -367 l 372 -298 l 303 -298 l 303 -367 m 154 -367 l 223 -367 l 223 -298 l 154 -298 l 154 -367 m 79 -367 l 149 -367 l 149 -298 l 79 -298 l 79 -367 m 377 -367 l 446 -367 l 446 -298 l 377 -298 l 377 -367 m 303 1116 l 303 1047 l 372 1047 l 372 1116 l 303 1116 m 228 1116 l 228 1047 l 298 1047 l 298 1116 l 228 1116 m 154 1116 l 154 1047 l 223 1047 l 223 1116 l 154 1116 m 79 1116 l 79 1047 l 149 1047 l 149 1116 l 79 1116 m 5 1116 l 5 1047 l 74 1047 l 74 1116 l 5 1116 m 0 -149 l 0 1121 l 521 1121 l 521 1116 l 451 1116 l 451 1047 l 521 1047 l 521 1042 l 451 1042 l 451 972 l 521 972 l 521 967 l 451 967 l 451 898 l 521 898 l 521 893 l 451 893 l 451 823 l 521 823 l 521 818 l 451 818 l 451 749 l 521 749 l 521 744 l 451 744 l 451 675 l 521 675 l 521 670 l 451 670 l 451 600 l 521 600 l 521 595 l 451 595 l 451 526 l 521 526 l 521 521 l 451 521 l 451 451 l 521 451 l 521 446 l 451 446 l 451 377 l 521 377 l 521 372 l 451 372 l 451 303 l 521 303 l 521 298 l 451 298 l 451 228 l 521 228 l 521 223 l 451 223 l 451 154 l 521 154 l 521 149 l 451 149 l 451 79 l 521 79 l 521 74 l 451 74 l 451 5 l 521 5 l 521 0 l 451 0 l 451 -69 l 521 -69 l 521 -74 l 451 -74 l 451 -144 l 521 -144 l 521 -149 l 451 -149 l 451 -218 l 521 -218 l 521 -223 l 451 -223 l 451 -293 l 521 -293 l 521 -298 l 451 -298 l 451 -367 l 521 -367 l 521 -372 l 0 -372 l 0 -149 l 5 -149 l 5 -218 l 74 -218 l 74 -149 l 79 -149 l 79 -218 l 149 -218 l 149 -149 l 154 -149 l 154 -218 l 223 -218 l 223 -149 l 228 -149 l 228 -218 l 298 -218 l 298 -149 l 303 -149 l 303 -218 l 372 -218 l 372 -149 l 0 -149 m 446 -218 l 446 -149 l 377 -149 l 377 -218 l 446 -218 z "},"5":{"ha":521,"x_min":0,"x_max":521,"o":"m 377 1116 l 377 1047 l 446 1047 l 446 1116 l 377 1116 m 228 972 l 298 972 l 298 1042 l 228 1042 l 228 972 m 303 972 l 372 972 l 372 1042 l 303 1042 l 303 972 m 377 972 l 446 972 l 446 1042 l 377 1042 l 377 972 m 154 972 l 223 972 l 223 1042 l 154 1042 l 154 972 m 79 972 l 149 972 l 149 1042 l 79 1042 l 79 972 m 5 972 l 74 972 l 74 1042 l 5 1042 l 5 972 m 303 898 l 372 898 l 372 967 l 303 967 l 303 898 m 377 898 l 446 898 l 446 967 l 377 967 l 377 898 m 228 898 l 298 898 l 298 967 l 228 967 l 228 898 m 154 898 l 223 898 l 223 967 l 154 967 l 154 898 m 79 898 l 149 898 l 149 967 l 79 967 l 79 898 m 5 898 l 74 898 l 74 967 l 5 967 l 5 898 m 377 823 l 446 823 l 446 893 l 377 893 l 377 823 m 303 823 l 372 823 l 372 893 l 303 893 l 303 823 m 228 823 l 298 823 l 298 893 l 228 893 l 228 823 m 154 823 l 223 823 l 223 893 l 154 893 l 154 823 m 79 823 l 149 823 l 149 893 l 79 893 l 79 823 m 5 823 l 74 823 l 74 893 l 5 893 l 5 823 m 377 749 l 446 749 l 446 818 l 377 818 l 377 749 m 303 749 l 372 749 l 372 818 l 303 818 l 303 749 m 228 749 l 298 749 l 298 818 l 228 818 l 228 749 m 154 749 l 223 749 l 223 818 l 154 818 l 154 749 m 79 749 l 149 749 l 149 818 l 79 818 l 79 749 m 5 749 l 74 749 l 74 818 l 5 818 l 5 749 m 228 526 l 298 526 l 298 595 l 228 595 l 228 526 m 377 526 l 446 526 l 446 595 l 377 595 l 377 526 m 303 526 l 372 526 l 372 595 l 303 595 l 303 526 m 154 526 l 223 526 l 223 595 l 154 595 l 154 526 m 154 451 l 223 451 l 223 521 l 154 521 l 154 451 m 303 451 l 372 451 l 372 521 l 303 521 l 303 451 m 377 451 l 446 451 l 446 521 l 377 521 l 377 451 m 228 451 l 298 451 l 298 521 l 228 521 l 228 451 m 377 377 l 446 377 l 446 446 l 377 446 l 377 377 m 5 303 l 74 303 l 74 372 l 5 372 l 5 303 m 79 228 l 149 228 l 149 298 l 79 298 l 79 228 m 228 228 l 298 228 l 298 298 l 228 298 l 228 228 m 154 228 l 223 228 l 223 298 l 154 298 l 154 228 m 5 228 l 74 228 l 74 298 l 5 298 l 5 228 m 154 154 l 223 154 l 223 223 l 154 223 l 154 154 m 228 154 l 298 154 l 298 223 l 228 223 l 228 154 m 5 5 l 74 5 l 74 74 l 5 74 l 5 5 m 377 5 l 446 5 l 446 74 l 377 74 l 377 5 m 5 -69 l 74 -69 l 74 0 l 5 0 l 5 -69 m 228 -69 l 298 -69 l 298 0 l 228 0 l 228 -69 m 303 -69 l 372 -69 l 372 0 l 303 0 l 303 -69 m 154 -69 l 223 -69 l 223 0 l 154 0 l 154 -69 m 377 -69 l 446 -69 l 446 0 l 377 0 l 377 -69 m 79 -69 l 149 -69 l 149 0 l 79 0 l 79 -69 m 5 -144 l 74 -144 l 74 -74 l 5 -74 l 5 -144 m 228 -144 l 298 -144 l 298 -74 l 228 -74 l 228 -144 m 303 -144 l 372 -144 l 372 -74 l 303 -74 l 303 -144 m 154 -144 l 223 -144 l 223 -74 l 154 -74 l 154 -144 m 79 -144 l 149 -144 l 149 -74 l 79 -74 l 79 -144 m 377 -144 l 446 -144 l 446 -74 l 377 -74 l 377 -144 m 79 -293 l 149 -293 l 149 -223 l 79 -223 l 79 -293 m 154 -293 l 223 -293 l 223 -223 l 154 -223 l 154 -293 m 228 -293 l 298 -293 l 298 -223 l 228 -223 l 228 -293 m 5 -293 l 74 -293 l 74 -223 l 5 -223 l 5 -293 m 303 -293 l 372 -293 l 372 -223 l 303 -223 l 303 -293 m 377 -293 l 446 -293 l 446 -223 l 377 -223 l 377 -293 m 154 -367 l 223 -367 l 223 -298 l 154 -298 l 154 -367 m 228 -367 l 298 -367 l 298 -298 l 228 -298 l 228 -367 m 303 -367 l 372 -367 l 372 -298 l 303 -298 l 303 -367 m 5 -367 l 74 -367 l 74 -298 l 5 -298 l 5 -367 m 377 -367 l 446 -367 l 446 -298 l 377 -298 l 377 -367 m 79 -367 l 149 -367 l 149 -298 l 79 -298 l 79 -367 m 303 1116 l 303 1047 l 372 1047 l 372 1116 l 303 1116 m 228 1116 l 228 1047 l 298 1047 l 298 1116 l 228 1116 m 154 1116 l 154 1047 l 223 1047 l 223 1116 l 154 1116 m 79 1116 l 79 1047 l 149 1047 l 149 1116 l 79 1116 m 5 1116 l 5 1047 l 74 1047 l 74 1116 l 5 1116 m 0 -372 l 0 1121 l 521 1121 l 521 1116 l 451 1116 l 451 1047 l 521 1047 l 521 1042 l 451 1042 l 451 972 l 521 972 l 521 967 l 451 967 l 451 898 l 521 898 l 521 893 l 451 893 l 451 823 l 521 823 l 521 818 l 451 818 l 451 749 l 521 749 l 521 744 l 451 744 l 451 675 l 521 675 l 521 670 l 451 670 l 451 600 l 521 600 l 521 595 l 451 595 l 451 526 l 521 526 l 521 521 l 451 521 l 451 451 l 521 451 l 521 446 l 451 446 l 451 377 l 521 377 l 521 372 l 451 372 l 451 303 l 521 303 l 521 298 l 451 298 l 451 228 l 521 228 l 521 223 l 451 223 l 451 154 l 521 154 l 521 149 l 451 149 l 451 79 l 521 79 l 521 74 l 451 74 l 451 5 l 521 5 l 521 0 l 451 0 l 451 -69 l 521 -69 l 521 -74 l 451 -74 l 451 -144 l 521 -144 l 521 -149 l 451 -149 l 451 -218 l 521 -218 l 521 -223 l 451 -223 l 451 -293 l 521 -293 l 521 -298 l 451 -298 l 451 -367 l 521 -367 l 521 -372 l 0 -372 m 74 -218 l 74 -149 l 5 -149 l 5 -218 l 74 -218 m 149 -218 l 149 -149 l 79 -149 l 79 -218 l 149 -218 m 223 -218 l 223 -149 l 154 -149 l 154 -218 l 223 -218 m 446 -218 l 446 -149 l 228 -149 l 228 -218 l 298 -218 l 298 -149 l 303 -149 l 303 -218 l 372 -218 l 372 -149 l 377 -149 l 377 -218 l 446 -218 z "},"6":{"ha":595,"x_min":0,"x_max":595,"o":"m 451 1116 l 451 1047 l 521 1047 l 521 1116 l 451 1116 m 451 972 l 521 972 l 521 1042 l 451 1042 l 451 972 m 228 972 l 298 972 l 298 1042 l 228 1042 l 228 972 m 303 972 l 372 972 l 372 1042 l 303 1042 l 303 972 m 154 972 l 223 972 l 223 1042 l 154 1042 l 154 972 m 377 972 l 446 972 l 446 1042 l 377 1042 l 377 972 m 79 972 l 149 972 l 149 1042 l 79 1042 l 79 972 m 5 972 l 74 972 l 74 1042 l 5 1042 l 5 972 m 228 898 l 298 898 l 298 967 l 228 967 l 228 898 m 303 898 l 372 898 l 372 967 l 303 967 l 303 898 m 154 898 l 223 898 l 223 967 l 154 967 l 154 898 m 377 898 l 446 898 l 446 967 l 377 967 l 377 898 m 79 898 l 149 898 l 149 967 l 79 967 l 79 898 m 5 898 l 74 898 l 74 967 l 5 967 l 5 898 m 451 898 l 521 898 l 521 967 l 451 967 l 451 898 m 228 823 l 298 823 l 298 893 l 228 893 l 228 823 m 303 823 l 372 823 l 372 893 l 303 893 l 303 823 m 154 823 l 223 823 l 223 893 l 154 893 l 154 823 m 451 823 l 521 823 l 521 893 l 451 893 l 451 823 m 79 823 l 149 823 l 149 893 l 79 893 l 79 823 m 5 823 l 74 823 l 74 893 l 5 893 l 5 823 m 377 823 l 446 823 l 446 893 l 377 893 l 377 823 m 228 749 l 298 749 l 298 818 l 228 818 l 228 749 m 303 749 l 372 749 l 372 818 l 303 818 l 303 749 m 377 749 l 446 749 l 446 818 l 377 818 l 377 749 m 154 749 l 223 749 l 223 818 l 154 818 l 154 749 m 451 749 l 521 749 l 521 818 l 451 818 l 451 749 m 79 749 l 149 749 l 149 818 l 79 818 l 79 749 m 5 749 l 74 749 l 74 818 l 5 818 l 5 749 m 451 675 l 521 675 l 521 744 l 451 744 l 451 675 m 5 675 l 74 675 l 74 744 l 5 744 l 5 675 m 303 526 l 372 526 l 372 595 l 303 595 l 303 526 m 154 526 l 223 526 l 223 595 l 154 595 l 154 526 m 228 526 l 298 526 l 298 595 l 228 595 l 228 526 m 377 451 l 446 451 l 446 521 l 377 521 l 377 451 m 228 451 l 298 451 l 298 521 l 228 521 l 228 451 m 154 451 l 223 451 l 223 521 l 154 521 l 154 451 m 451 451 l 521 451 l 521 521 l 451 521 l 451 451 m 303 451 l 372 451 l 372 521 l 303 521 l 303 451 m 451 377 l 521 377 l 521 446 l 451 446 l 451 377 m 303 228 l 372 228 l 372 298 l 303 298 l 303 228 m 228 228 l 298 228 l 298 298 l 228 298 l 228 228 m 154 228 l 223 228 l 223 298 l 154 298 l 154 228 m 228 154 l 298 154 l 298 223 l 228 223 l 228 154 m 154 154 l 223 154 l 223 223 l 154 223 l 154 154 m 303 154 l 372 154 l 372 223 l 303 223 l 303 154 m 5 5 l 74 5 l 74 74 l 5 74 l 5 5 m 451 5 l 521 5 l 521 74 l 451 74 l 451 5 m 303 -69 l 372 -69 l 372 0 l 303 0 l 303 -69 m 79 -69 l 149 -69 l 149 0 l 79 0 l 79 -69 m 377 -69 l 446 -69 l 446 0 l 377 0 l 377 -69 m 5 -69 l 74 -69 l 74 0 l 5 0 l 5 -69 m 154 -69 l 223 -69 l 223 0 l 154 0 l 154 -69 m 228 -69 l 298 -69 l 298 0 l 228 0 l 228 -69 m 451 -69 l 521 -69 l 521 0 l 451 0 l 451 -69 m 79 -144 l 149 -144 l 149 -74 l 79 -74 l 79 -144 m 451 -144 l 521 -144 l 521 -74 l 451 -74 l 451 -144 m 228 -144 l 298 -144 l 298 -74 l 228 -74 l 228 -144 m 5 -144 l 74 -144 l 74 -74 l 5 -74 l 5 -144 m 154 -144 l 223 -144 l 223 -74 l 154 -74 l 154 -144 m 377 -144 l 446 -144 l 446 -74 l 377 -74 l 377 -144 m 303 -144 l 372 -144 l 372 -74 l 303 -74 l 303 -144 m 451 -293 l 521 -293 l 521 -223 l 451 -223 l 451 -293 m 228 -293 l 298 -293 l 298 -223 l 228 -223 l 228 -293 m 5 -293 l 74 -293 l 74 -223 l 5 -223 l 5 -293 m 154 -293 l 223 -293 l 223 -223 l 154 -223 l 154 -293 m 377 -293 l 446 -293 l 446 -223 l 377 -223 l 377 -293 m 303 -293 l 372 -293 l 372 -223 l 303 -223 l 303 -293 m 79 -293 l 149 -293 l 149 -223 l 79 -223 l 79 -293 m 228 -367 l 298 -367 l 298 -298 l 228 -298 l 228 -367 m 5 -367 l 74 -367 l 74 -298 l 5 -298 l 5 -367 m 154 -367 l 223 -367 l 223 -298 l 154 -298 l 154 -367 m 377 -367 l 446 -367 l 446 -298 l 377 -298 l 377 -367 m 303 -367 l 372 -367 l 372 -298 l 303 -298 l 303 -367 m 79 -367 l 149 -367 l 149 -298 l 79 -298 l 79 -367 m 451 -367 l 521 -367 l 521 -298 l 451 -298 l 451 -367 m 377 1116 l 377 1047 l 446 1047 l 446 1116 l 377 1116 m 303 1116 l 303 1047 l 372 1047 l 372 1116 l 303 1116 m 228 1116 l 228 1047 l 298 1047 l 298 1116 l 228 1116 m 154 1116 l 154 1047 l 223 1047 l 223 1116 l 154 1116 m 79 1116 l 79 1047 l 149 1047 l 149 1116 l 79 1116 m 5 1116 l 5 1047 l 74 1047 l 74 1116 l 5 1116 m 0 -149 l 0 1121 l 595 1121 l 595 1116 l 526 1116 l 526 1047 l 595 1047 l 595 1042 l 526 1042 l 526 972 l 595 972 l 595 967 l 526 967 l 526 898 l 595 898 l 595 893 l 526 893 l 526 823 l 595 823 l 595 818 l 526 818 l 526 749 l 595 749 l 595 744 l 526 744 l 526 675 l 595 675 l 595 670 l 526 670 l 526 600 l 595 600 l 595 595 l 526 595 l 526 526 l 595 526 l 595 521 l 526 521 l 526 451 l 595 451 l 595 446 l 526 446 l 526 377 l 595 377 l 595 372 l 526 372 l 526 303 l 595 303 l 595 298 l 526 298 l 526 228 l 595 228 l 595 223 l 526 223 l 526 154 l 595 154 l 595 149 l 526 149 l 526 79 l 595 79 l 595 74 l 526 74 l 526 5 l 595 5 l 595 0 l 526 0 l 526 -69 l 595 -69 l 595 -74 l 526 -74 l 526 -144 l 595 -144 l 595 -149 l 526 -149 l 526 -218 l 595 -218 l 595 -223 l 526 -223 l 526 -293 l 595 -293 l 595 -298 l 526 -298 l 526 -367 l 595 -367 l 595 -372 l 0 -372 l 0 -149 l 5 -149 l 5 -218 l 74 -218 l 74 -149 l 79 -149 l 79 -218 l 149 -218 l 149 -149 l 154 -149 l 154 -218 l 223 -218 l 223 -149 l 228 -149 l 228 -218 l 298 -218 l 298 -149 l 0 -149 m 372 -218 l 372 -149 l 303 -149 l 303 -218 l 372 -218 m 446 -218 l 446 -149 l 377 -149 l 377 -218 l 446 -218 m 521 -218 l 521 -149 l 451 -149 l 451 -218 l 521 -218 z "},"7":{"ha":521,"x_min":0,"x_max":521,"o":"m 377 1116 l 377 1047 l 446 1047 l 446 1116 l 377 1116 m 5 972 l 74 972 l 74 1042 l 5 1042 l 5 972 m 377 972 l 446 972 l 446 1042 l 377 1042 l 377 972 m 79 972 l 149 972 l 149 1042 l 79 1042 l 79 972 m 228 972 l 298 972 l 298 1042 l 228 1042 l 228 972 m 154 972 l 223 972 l 223 1042 l 154 1042 l 154 972 m 303 972 l 372 972 l 372 1042 l 303 1042 l 303 972 m 5 898 l 74 898 l 74 967 l 5 967 l 5 898 m 303 898 l 372 898 l 372 967 l 303 967 l 303 898 m 154 898 l 223 898 l 223 967 l 154 967 l 154 898 m 228 898 l 298 898 l 298 967 l 228 967 l 228 898 m 79 898 l 149 898 l 149 967 l 79 967 l 79 898 m 377 898 l 446 898 l 446 967 l 377 967 l 377 898 m 154 823 l 223 823 l 223 893 l 154 893 l 154 823 m 303 823 l 372 823 l 372 893 l 303 893 l 303 823 m 79 823 l 149 823 l 149 893 l 79 893 l 79 823 m 377 823 l 446 823 l 446 893 l 377 893 l 377 823 m 228 823 l 298 823 l 298 893 l 228 893 l 228 823 m 5 823 l 74 823 l 74 893 l 5 893 l 5 823 m 154 749 l 223 749 l 223 818 l 154 818 l 154 749 m 79 749 l 149 749 l 149 818 l 79 818 l 79 749 m 377 749 l 446 749 l 446 818 l 377 818 l 377 749 m 228 749 l 298 749 l 298 818 l 228 818 l 228 749 m 5 749 l 74 749 l 74 818 l 5 818 l 5 749 m 303 749 l 372 749 l 372 818 l 303 818 l 303 749 m 79 526 l 149 526 l 149 595 l 79 595 l 79 526 m 154 526 l 223 526 l 223 595 l 154 595 l 154 526 m 5 526 l 74 526 l 74 595 l 5 595 l 5 526 m 228 526 l 298 526 l 298 595 l 228 595 l 228 526 m 5 451 l 74 451 l 74 521 l 5 521 l 5 451 m 154 451 l 223 451 l 223 521 l 154 521 l 154 451 m 79 451 l 149 451 l 149 521 l 79 521 l 79 451 m 228 451 l 298 451 l 298 521 l 228 521 l 228 451 m 154 377 l 223 377 l 223 446 l 154 446 l 154 377 m 5 377 l 74 377 l 74 446 l 5 446 l 5 377 m 79 377 l 149 377 l 149 446 l 79 446 l 79 377 m 5 303 l 74 303 l 74 372 l 5 372 l 5 303 m 79 303 l 149 303 l 149 372 l 79 372 l 79 303 m 377 303 l 446 303 l 446 372 l 377 372 l 377 303 m 79 228 l 149 228 l 149 298 l 79 298 l 79 228 m 5 228 l 74 228 l 74 298 l 5 298 l 5 228 m 377 228 l 446 228 l 446 298 l 377 298 l 377 228 m 303 154 l 372 154 l 372 223 l 303 223 l 303 154 m 5 154 l 74 154 l 74 223 l 5 223 l 5 154 m 377 154 l 446 154 l 446 223 l 377 223 l 377 154 m 79 154 l 149 154 l 149 223 l 79 223 l 79 154 m 303 79 l 372 79 l 372 149 l 303 149 l 303 79 m 5 79 l 74 79 l 74 149 l 5 149 l 5 79 m 377 79 l 446 79 l 446 149 l 377 149 l 377 79 m 79 79 l 149 79 l 149 149 l 79 149 l 79 79 m 303 5 l 372 5 l 372 74 l 303 74 l 303 5 m 79 5 l 149 5 l 149 74 l 79 74 l 79 5 m 377 5 l 446 5 l 446 74 l 377 74 l 377 5 m 5 5 l 74 5 l 74 74 l 5 74 l 5 5 m 79 -69 l 149 -69 l 149 0 l 79 0 l 79 -69 m 228 -69 l 298 -69 l 298 0 l 228 0 l 228 -69 m 303 -69 l 372 -69 l 372 0 l 303 0 l 303 -69 m 377 -69 l 446 -69 l 446 0 l 377 0 l 377 -69 m 5 -69 l 74 -69 l 74 0 l 5 0 l 5 -69 m 154 -69 l 223 -69 l 223 0 l 154 0 l 154 -69 m 154 -144 l 223 -144 l 223 -74 l 154 -74 l 154 -144 m 303 -144 l 372 -144 l 372 -74 l 303 -74 l 303 -144 m 79 -144 l 149 -144 l 149 -74 l 79 -74 l 79 -144 m 228 -144 l 298 -144 l 298 -74 l 228 -74 l 228 -144 m 377 -144 l 446 -144 l 446 -74 l 377 -74 l 377 -144 m 5 -144 l 74 -144 l 74 -74 l 5 -74 l 5 -144 m 377 -293 l 446 -293 l 446 -223 l 377 -223 l 377 -293 m 5 -293 l 74 -293 l 74 -223 l 5 -223 l 5 -293 m 303 -293 l 372 -293 l 372 -223 l 303 -223 l 303 -293 m 228 -293 l 298 -293 l 298 -223 l 228 -223 l 228 -293 m 79 -293 l 149 -293 l 149 -223 l 79 -223 l 79 -293 m 154 -293 l 223 -293 l 223 -223 l 154 -223 l 154 -293 m 377 -367 l 446 -367 l 446 -298 l 377 -298 l 377 -367 m 5 -367 l 74 -367 l 74 -298 l 5 -298 l 5 -367 m 228 -367 l 298 -367 l 298 -298 l 228 -298 l 228 -367 m 79 -367 l 149 -367 l 149 -298 l 79 -298 l 79 -367 m 303 -367 l 372 -367 l 372 -298 l 303 -298 l 303 -367 m 154 -367 l 223 -367 l 223 -298 l 154 -298 l 154 -367 m 303 1116 l 303 1047 l 372 1047 l 372 1116 l 303 1116 m 228 1116 l 228 1047 l 298 1047 l 298 1116 l 228 1116 m 154 1116 l 154 1047 l 223 1047 l 223 1116 l 154 1116 m 79 1116 l 79 1047 l 149 1047 l 149 1116 l 79 1116 m 5 1116 l 5 1047 l 74 1047 l 74 1116 l 5 1116 m 0 -149 l 5 -149 l 5 -218 l 74 -218 l 74 -149 l 79 -149 l 79 -218 l 149 -218 l 149 -149 l 154 -149 l 154 -218 l 223 -218 l 223 -149 l 228 -149 l 228 -218 l 298 -218 l 298 -149 l 303 -149 l 303 -218 l 372 -218 l 372 -149 l 377 -149 l 377 -218 l 446 -218 l 446 -149 l 0 -149 l 0 1121 l 521 1121 l 521 1116 l 451 1116 l 451 1047 l 521 1047 l 521 1042 l 451 1042 l 451 972 l 521 972 l 521 967 l 451 967 l 451 898 l 521 898 l 521 893 l 451 893 l 451 823 l 521 823 l 521 818 l 451 818 l 451 749 l 521 749 l 521 744 l 451 744 l 451 675 l 521 675 l 521 670 l 451 670 l 451 600 l 521 600 l 521 595 l 451 595 l 451 526 l 521 526 l 521 521 l 451 521 l 451 451 l 521 451 l 521 446 l 451 446 l 451 377 l 521 377 l 521 372 l 451 372 l 451 303 l 521 303 l 521 298 l 451 298 l 451 228 l 521 228 l 521 223 l 451 223 l 451 154 l 521 154 l 521 149 l 451 149 l 451 79 l 521 79 l 521 74 l 451 74 l 451 5 l 521 5 l 521 0 l 451 0 l 451 -69 l 521 -69 l 521 -74 l 451 -74 l 451 -144 l 521 -144 l 521 -149 l 451 -149 l 451 -218 l 521 -218 l 521 -223 l 451 -223 l 451 -293 l 521 -293 l 521 -298 l 451 -298 l 451 -367 l 521 -367 l 521 -372 l 0 -372 l 0 -149 z "},"8":{"ha":595,"x_min":0,"x_max":595,"o":"m 451 1116 l 451 1047 l 521 1047 l 521 1116 l 451 1116 m 451 972 l 521 972 l 521 1042 l 451 1042 l 451 972 m 228 972 l 298 972 l 298 1042 l 228 1042 l 228 972 m 303 972 l 372 972 l 372 1042 l 303 1042 l 303 972 m 154 972 l 223 972 l 223 1042 l 154 1042 l 154 972 m 377 972 l 446 972 l 446 1042 l 377 1042 l 377 972 m 79 972 l 149 972 l 149 1042 l 79 1042 l 79 972 m 5 972 l 74 972 l 74 1042 l 5 1042 l 5 972 m 303 898 l 372 898 l 372 967 l 303 967 l 303 898 m 228 898 l 298 898 l 298 967 l 228 967 l 228 898 m 377 898 l 446 898 l 446 967 l 377 967 l 377 898 m 154 898 l 223 898 l 223 967 l 154 967 l 154 898 m 451 898 l 521 898 l 521 967 l 451 967 l 451 898 m 79 898 l 149 898 l 149 967 l 79 967 l 79 898 m 5 898 l 74 898 l 74 967 l 5 967 l 5 898 m 228 823 l 298 823 l 298 893 l 228 893 l 228 823 m 303 823 l 372 823 l 372 893 l 303 893 l 303 823 m 154 823 l 223 823 l 223 893 l 154 893 l 154 823 m 451 823 l 521 823 l 521 893 l 451 893 l 451 823 m 79 823 l 149 823 l 149 893 l 79 893 l 79 823 m 5 823 l 74 823 l 74 893 l 5 893 l 5 823 m 377 823 l 446 823 l 446 893 l 377 893 l 377 823 m 228 749 l 298 749 l 298 818 l 228 818 l 228 749 m 303 749 l 372 749 l 372 818 l 303 818 l 303 749 m 377 749 l 446 749 l 446 818 l 377 818 l 377 749 m 154 749 l 223 749 l 223 818 l 154 818 l 154 749 m 451 749 l 521 749 l 521 818 l 451 818 l 451 749 m 5 749 l 74 749 l 74 818 l 5 818 l 5 749 m 79 749 l 149 749 l 149 818 l 79 818 l 79 749 m 451 675 l 521 675 l 521 744 l 451 744 l 451 675 m 5 675 l 74 675 l 74 744 l 5 744 l 5 675 m 154 526 l 223 526 l 223 595 l 154 595 l 154 526 m 303 526 l 372 526 l 372 595 l 303 595 l 303 526 m 228 526 l 298 526 l 298 595 l 228 595 l 228 526 m 154 451 l 223 451 l 223 521 l 154 521 l 154 451 m 303 451 l 372 451 l 372 521 l 303 521 l 303 451 m 228 451 l 298 451 l 298 521 l 228 521 l 228 451 m 451 377 l 521 377 l 521 446 l 451 446 l 451 377 m 5 377 l 74 377 l 74 446 l 5 446 l 5 377 m 303 228 l 372 228 l 372 298 l 303 298 l 303 228 m 228 228 l 298 228 l 298 298 l 228 298 l 228 228 m 154 228 l 223 228 l 223 298 l 154 298 l 154 228 m 228 154 l 298 154 l 298 223 l 228 223 l 228 154 m 154 154 l 223 154 l 223 223 l 154 223 l 154 154 m 303 154 l 372 154 l 372 223 l 303 223 l 303 154 m 5 5 l 74 5 l 74 74 l 5 74 l 5 5 m 451 5 l 521 5 l 521 74 l 451 74 l 451 5 m 303 -69 l 372 -69 l 372 0 l 303 0 l 303 -69 m 79 -69 l 149 -69 l 149 0 l 79 0 l 79 -69 m 377 -69 l 446 -69 l 446 0 l 377 0 l 377 -69 m 5 -69 l 74 -69 l 74 0 l 5 0 l 5 -69 m 154 -69 l 223 -69 l 223 0 l 154 0 l 154 -69 m 451 -69 l 521 -69 l 521 0 l 451 0 l 451 -69 m 228 -69 l 298 -69 l 298 0 l 228 0 l 228 -69 m 79 -144 l 149 -144 l 149 -74 l 79 -74 l 79 -144 m 451 -144 l 521 -144 l 521 -74 l 451 -74 l 451 -144 m 228 -144 l 298 -144 l 298 -74 l 228 -74 l 228 -144 m 5 -144 l 74 -144 l 74 -74 l 5 -74 l 5 -144 m 154 -144 l 223 -144 l 223 -74 l 154 -74 l 154 -144 m 377 -144 l 446 -144 l 446 -74 l 377 -74 l 377 -144 m 303 -144 l 372 -144 l 372 -74 l 303 -74 l 303 -144 m 451 -293 l 521 -293 l 521 -223 l 451 -223 l 451 -293 m 5 -293 l 74 -293 l 74 -223 l 5 -223 l 5 -293 m 154 -293 l 223 -293 l 223 -223 l 154 -223 l 154 -293 m 377 -293 l 446 -293 l 446 -223 l 377 -223 l 377 -293 m 303 -293 l 372 -293 l 372 -223 l 303 -223 l 303 -293 m 79 -293 l 149 -293 l 149 -223 l 79 -223 l 79 -293 m 228 -293 l 298 -293 l 298 -223 l 228 -223 l 228 -293 m 451 -367 l 521 -367 l 521 -298 l 451 -298 l 451 -367 m 228 -367 l 298 -367 l 298 -298 l 228 -298 l 228 -367 m 5 -367 l 74 -367 l 74 -298 l 5 -298 l 5 -367 m 154 -367 l 223 -367 l 223 -298 l 154 -298 l 154 -367 m 377 -367 l 446 -367 l 446 -298 l 377 -298 l 377 -367 m 303 -367 l 372 -367 l 372 -298 l 303 -298 l 303 -367 m 79 -367 l 149 -367 l 149 -298 l 79 -298 l 79 -367 m 377 1116 l 377 1047 l 446 1047 l 446 1116 l 377 1116 m 303 1116 l 303 1047 l 372 1047 l 372 1116 l 303 1116 m 228 1116 l 228 1047 l 298 1047 l 298 1116 l 228 1116 m 154 1116 l 154 1047 l 223 1047 l 223 1116 l 154 1116 m 79 1116 l 79 1047 l 149 1047 l 149 1116 l 79 1116 m 5 1116 l 5 1047 l 74 1047 l 74 1116 l 5 1116 m 0 -149 l 0 1121 l 595 1121 l 595 1116 l 526 1116 l 526 1047 l 595 1047 l 595 1042 l 526 1042 l 526 972 l 595 972 l 595 967 l 526 967 l 526 898 l 595 898 l 595 893 l 526 893 l 526 823 l 595 823 l 595 818 l 526 818 l 526 749 l 595 749 l 595 744 l 526 744 l 526 675 l 595 675 l 595 670 l 526 670 l 526 600 l 595 600 l 595 595 l 526 595 l 526 526 l 595 526 l 595 521 l 526 521 l 526 451 l 595 451 l 595 446 l 526 446 l 526 377 l 595 377 l 595 372 l 526 372 l 526 303 l 595 303 l 595 298 l 526 298 l 526 228 l 595 228 l 595 223 l 526 223 l 526 154 l 595 154 l 595 149 l 526 149 l 526 79 l 595 79 l 595 74 l 526 74 l 526 5 l 595 5 l 595 0 l 526 0 l 526 -69 l 595 -69 l 595 -74 l 526 -74 l 526 -144 l 595 -144 l 595 -149 l 526 -149 l 526 -218 l 595 -218 l 595 -223 l 526 -223 l 526 -293 l 595 -293 l 595 -298 l 526 -298 l 526 -367 l 595 -367 l 595 -372 l 0 -372 l 0 -149 l 5 -149 l 5 -218 l 74 -218 l 74 -149 l 79 -149 l 79 -218 l 149 -218 l 149 -149 l 154 -149 l 154 -218 l 223 -218 l 223 -149 l 228 -149 l 228 -218 l 298 -218 l 298 -149 l 303 -149 l 303 -218 l 372 -218 l 372 -149 l 0 -149 m 446 -218 l 446 -149 l 377 -149 l 377 -218 l 446 -218 m 521 -218 l 521 -149 l 451 -149 l 451 -218 l 521 -218 z "},"9":{"ha":595,"x_min":0,"x_max":595,"o":"m 451 1116 l 451 1047 l 521 1047 l 521 1116 l 451 1116 m 303 972 l 372 972 l 372 1042 l 303 1042 l 303 972 m 228 972 l 298 972 l 298 1042 l 228 1042 l 228 972 m 377 972 l 446 972 l 446 1042 l 377 1042 l 377 972 m 154 972 l 223 972 l 223 1042 l 154 1042 l 154 972 m 451 972 l 521 972 l 521 1042 l 451 1042 l 451 972 m 79 972 l 149 972 l 149 1042 l 79 1042 l 79 972 m 5 972 l 74 972 l 74 1042 l 5 1042 l 5 972 m 303 898 l 372 898 l 372 967 l 303 967 l 303 898 m 228 898 l 298 898 l 298 967 l 228 967 l 228 898 m 377 898 l 446 898 l 446 967 l 377 967 l 377 898 m 154 898 l 223 898 l 223 967 l 154 967 l 154 898 m 451 898 l 521 898 l 521 967 l 451 967 l 451 898 m 79 898 l 149 898 l 149 967 l 79 967 l 79 898 m 5 898 l 74 898 l 74 967 l 5 967 l 5 898 m 303 823 l 372 823 l 372 893 l 303 893 l 303 823 m 228 823 l 298 823 l 298 893 l 228 893 l 228 823 m 377 823 l 446 823 l 446 893 l 377 893 l 377 823 m 154 823 l 223 823 l 223 893 l 154 893 l 154 823 m 451 823 l 521 823 l 521 893 l 451 893 l 451 823 m 79 823 l 149 823 l 149 893 l 79 893 l 79 823 m 5 823 l 74 823 l 74 893 l 5 893 l 5 823 m 79 749 l 149 749 l 149 818 l 79 818 l 79 749 m 5 749 l 74 749 l 74 818 l 5 818 l 5 749 m 303 749 l 372 749 l 372 818 l 303 818 l 303 749 m 228 749 l 298 749 l 298 818 l 228 818 l 228 749 m 377 749 l 446 749 l 446 818 l 377 818 l 377 749 m 154 749 l 223 749 l 223 818 l 154 818 l 154 749 m 451 749 l 521 749 l 521 818 l 451 818 l 451 749 m 451 675 l 521 675 l 521 744 l 451 744 l 451 675 m 5 675 l 74 675 l 74 744 l 5 744 l 5 675 m 154 526 l 223 526 l 223 595 l 154 595 l 154 526 m 303 526 l 372 526 l 372 595 l 303 595 l 303 526 m 228 526 l 298 526 l 298 595 l 228 595 l 228 526 m 154 451 l 223 451 l 223 521 l 154 521 l 154 451 m 228 451 l 298 451 l 298 521 l 228 521 l 228 451 m 303 451 l 372 451 l 372 521 l 303 521 l 303 451 m 5 303 l 74 303 l 74 372 l 5 372 l 5 303 m 79 228 l 149 228 l 149 298 l 79 298 l 79 228 m 303 228 l 372 228 l 372 298 l 303 298 l 303 228 m 5 228 l 74 228 l 74 298 l 5 298 l 5 228 m 228 228 l 298 228 l 298 298 l 228 298 l 228 228 m 154 228 l 223 228 l 223 298 l 154 298 l 154 228 m 228 154 l 298 154 l 298 223 l 228 223 l 228 154 m 154 154 l 223 154 l 223 223 l 154 223 l 154 154 m 303 154 l 372 154 l 372 223 l 303 223 l 303 154 m 451 5 l 521 5 l 521 74 l 451 74 l 451 5 m 5 5 l 74 5 l 74 74 l 5 74 l 5 5 m 228 -69 l 298 -69 l 298 0 l 228 0 l 228 -69 m 377 -69 l 446 -69 l 446 0 l 377 0 l 377 -69 m 154 -69 l 223 -69 l 223 0 l 154 0 l 154 -69 m 79 -69 l 149 -69 l 149 0 l 79 0 l 79 -69 m 303 -69 l 372 -69 l 372 0 l 303 0 l 303 -69 m 451 -69 l 521 -69 l 521 0 l 451 0 l 451 -69 m 5 -69 l 74 -69 l 74 0 l 5 0 l 5 -69 m 228 -144 l 298 -144 l 298 -74 l 228 -74 l 228 -144 m 377 -144 l 446 -144 l 446 -74 l 377 -74 l 377 -144 m 451 -144 l 521 -144 l 521 -74 l 451 -74 l 451 -144 m 154 -144 l 223 -144 l 223 -74 l 154 -74 l 154 -144 m 79 -144 l 149 -144 l 149 -74 l 79 -74 l 79 -144 m 303 -144 l 372 -144 l 372 -74 l 303 -74 l 303 -144 m 5 -144 l 74 -144 l 74 -74 l 5 -74 l 5 -144 m 228 -293 l 298 -293 l 298 -223 l 228 -223 l 228 -293 m 5 -293 l 74 -293 l 74 -223 l 5 -223 l 5 -293 m 154 -293 l 223 -293 l 223 -223 l 154 -223 l 154 -293 m 79 -293 l 149 -293 l 149 -223 l 79 -223 l 79 -293 m 303 -293 l 372 -293 l 372 -223 l 303 -223 l 303 -293 m 377 -293 l 446 -293 l 446 -223 l 377 -223 l 377 -293 m 451 -293 l 521 -293 l 521 -223 l 451 -223 l 451 -293 m 5 -367 l 74 -367 l 74 -298 l 5 -298 l 5 -367 m 79 -367 l 149 -367 l 149 -298 l 79 -298 l 79 -367 m 377 -367 l 446 -367 l 446 -298 l 377 -298 l 377 -367 m 154 -367 l 223 -367 l 223 -298 l 154 -298 l 154 -367 m 228 -367 l 298 -367 l 298 -298 l 228 -298 l 228 -367 m 451 -367 l 521 -367 l 521 -298 l 451 -298 l 451 -367 m 303 -367 l 372 -367 l 372 -298 l 303 -298 l 303 -367 m 377 1116 l 377 1047 l 446 1047 l 446 1116 l 377 1116 m 303 1116 l 303 1047 l 372 1047 l 372 1116 l 303 1116 m 228 1116 l 228 1047 l 298 1047 l 298 1116 l 228 1116 m 154 1116 l 154 1047 l 223 1047 l 223 1116 l 154 1116 m 79 1116 l 79 1047 l 149 1047 l 149 1116 l 79 1116 m 5 1116 l 5 1047 l 74 1047 l 74 1116 l 5 1116 m 0 -372 l 0 1121 l 595 1121 l 595 1116 l 526 1116 l 526 1047 l 595 1047 l 595 1042 l 526 1042 l 526 972 l 595 972 l 595 967 l 526 967 l 526 898 l 595 898 l 595 893 l 526 893 l 526 823 l 595 823 l 595 818 l 526 818 l 526 749 l 595 749 l 595 744 l 526 744 l 526 675 l 595 675 l 595 670 l 526 670 l 526 600 l 595 600 l 595 595 l 526 595 l 526 526 l 595 526 l 595 521 l 526 521 l 526 451 l 595 451 l 595 446 l 526 446 l 526 377 l 595 377 l 595 372 l 526 372 l 526 303 l 595 303 l 595 298 l 526 298 l 526 228 l 595 228 l 595 223 l 526 223 l 526 154 l 595 154 l 595 149 l 526 149 l 526 79 l 595 79 l 595 74 l 526 74 l 526 5 l 595 5 l 595 0 l 526 0 l 526 -69 l 595 -69 l 595 -74 l 526 -74 l 526 -144 l 595 -144 l 595 -149 l 526 -149 l 526 -218 l 595 -218 l 595 -223 l 526 -223 l 526 -293 l 595 -293 l 595 -298 l 526 -298 l 526 -367 l 595 -367 l 595 -372 l 0 -372 m 74 -218 l 74 -149 l 5 -149 l 5 -218 l 74 -218 m 149 -218 l 149 -149 l 79 -149 l 79 -218 l 149 -218 m 223 -218 l 223 -149 l 154 -149 l 154 -218 l 223 -218 m 298 -218 l 298 -149 l 228 -149 l 228 -218 l 298 -218 m 372 -218 l 372 -149 l 303 -149 l 303 -218 l 372 -218 m 446 -218 l 446 -149 l 377 -149 l 377 -218 l 446 -218 m 521 -218 l 521 -149 l 451 -149 l 451 -218 l 521 -218 z "},"A":{"ha":595,"x_min":0,"x_max":595,"o":"m 451 1116 l 451 1047 l 521 1047 l 521 1116 l 451 1116 m 451 972 l 521 972 l 521 1042 l 451 1042 l 451 972 m 377 972 l 446 972 l 446 1042 l 377 1042 l 377 972 m 303 972 l 372 972 l 372 1042 l 303 1042 l 303 972 m 228 972 l 298 972 l 298 1042 l 228 1042 l 228 972 m 154 972 l 223 972 l 223 1042 l 154 1042 l 154 972 m 79 972 l 149 972 l 149 1042 l 79 1042 l 79 972 m 5 972 l 74 972 l 74 1042 l 5 1042 l 5 972 m 451 898 l 521 898 l 521 967 l 451 967 l 451 898 m 377 898 l 446 898 l 446 967 l 377 967 l 377 898 m 303 898 l 372 898 l 372 967 l 303 967 l 303 898 m 228 898 l 298 898 l 298 967 l 228 967 l 228 898 m 154 898 l 223 898 l 223 967 l 154 967 l 154 898 m 79 898 l 149 898 l 149 967 l 79 967 l 79 898 m 5 898 l 74 898 l 74 967 l 5 967 l 5 898 m 451 823 l 521 823 l 521 893 l 451 893 l 451 823 m 377 823 l 446 823 l 446 893 l 377 893 l 377 823 m 303 823 l 372 823 l 372 893 l 303 893 l 303 823 m 228 823 l 298 823 l 298 893 l 228 893 l 228 823 m 154 823 l 223 823 l 223 893 l 154 893 l 154 823 m 79 823 l 149 823 l 149 893 l 79 893 l 79 823 m 5 823 l 74 823 l 74 893 l 5 893 l 5 823 m 79 749 l 149 749 l 149 818 l 79 818 l 79 749 m 228 749 l 298 749 l 298 818 l 228 818 l 228 749 m 5 749 l 74 749 l 74 818 l 5 818 l 5 749 m 154 749 l 223 749 l 223 818 l 154 818 l 154 749 m 303 749 l 372 749 l 372 818 l 303 818 l 303 749 m 377 749 l 446 749 l 446 818 l 377 818 l 377 749 m 451 749 l 521 749 l 521 818 l 451 818 l 451 749 m 303 675 l 372 675 l 372 744 l 303 744 l 303 675 m 451 675 l 521 675 l 521 744 l 451 744 l 451 675 m 377 675 l 446 675 l 446 744 l 377 744 l 377 675 m 154 675 l 223 675 l 223 744 l 154 744 l 154 675 m 79 675 l 149 675 l 149 744 l 79 744 l 79 675 m 5 675 l 74 675 l 74 744 l 5 744 l 5 675 m 451 600 l 521 600 l 521 670 l 451 670 l 451 600 m 377 600 l 446 600 l 446 670 l 377 670 l 377 600 m 79 600 l 149 600 l 149 670 l 79 670 l 79 600 m 5 600 l 74 600 l 74 670 l 5 670 l 5 600 m 451 526 l 521 526 l 521 595 l 451 595 l 451 526 m 5 526 l 74 526 l 74 595 l 5 595 l 5 526 m 228 451 l 298 451 l 298 521 l 228 521 l 228 451 m 154 377 l 223 377 l 223 446 l 154 446 l 154 377 m 228 377 l 298 377 l 298 446 l 228 446 l 228 377 m 303 377 l 372 377 l 372 446 l 303 446 l 303 377 m 303 303 l 372 303 l 372 372 l 303 372 l 303 303 m 154 303 l 223 303 l 223 372 l 154 372 l 154 303 m 228 303 l 298 303 l 298 372 l 228 372 l 228 303 m 303 79 l 372 79 l 372 149 l 303 149 l 303 79 m 154 79 l 223 79 l 223 149 l 154 149 l 154 79 m 228 79 l 298 79 l 298 149 l 228 149 l 228 79 m 154 5 l 223 5 l 223 74 l 154 74 l 154 5 m 228 5 l 298 5 l 298 74 l 228 74 l 228 5 m 303 5 l 372 5 l 372 74 l 303 74 l 303 5 m 451 -69 l 521 -69 l 521 0 l 451 0 l 451 -69 m 5 -69 l 74 -69 l 74 0 l 5 0 l 5 -69 m 303 -69 l 372 -69 l 372 0 l 303 0 l 303 -69 m 79 -69 l 149 -69 l 149 0 l 79 0 l 79 -69 m 377 -69 l 446 -69 l 446 0 l 377 0 l 377 -69 m 154 -69 l 223 -69 l 223 0 l 154 0 l 154 -69 m 228 -69 l 298 -69 l 298 0 l 228 0 l 228 -69 m 5 -144 l 74 -144 l 74 -74 l 5 -74 l 5 -144 m 377 -144 l 446 -144 l 446 -74 l 377 -74 l 377 -144 m 79 -144 l 149 -144 l 149 -74 l 79 -74 l 79 -144 m 303 -144 l 372 -144 l 372 -74 l 303 -74 l 303 -144 m 154 -144 l 223 -144 l 223 -74 l 154 -74 l 154 -144 m 451 -144 l 521 -144 l 521 -74 l 451 -74 l 451 -144 m 228 -144 l 298 -144 l 298 -74 l 228 -74 l 228 -144 m 377 -218 l 446 -218 l 446 -149 l 377 -149 l 377 -218 m 5 -218 l 74 -218 l 74 -149 l 5 -149 l 5 -218 m 79 -218 l 149 -218 l 149 -149 l 79 -149 l 79 -218 m 303 -218 l 372 -218 l 372 -149 l 303 -149 l 303 -218 m 154 -218 l 223 -218 l 223 -149 l 154 -149 l 154 -218 m 451 -218 l 521 -218 l 521 -149 l 451 -149 l 451 -218 m 228 -218 l 298 -218 l 298 -149 l 228 -149 l 228 -218 m 228 -293 l 298 -293 l 298 -223 l 228 -223 l 228 -293 m 451 -293 l 521 -293 l 521 -223 l 451 -223 l 451 -293 m 303 -293 l 372 -293 l 372 -223 l 303 -223 l 303 -293 m 154 -293 l 223 -293 l 223 -223 l 154 -223 l 154 -293 m 79 -293 l 149 -293 l 149 -223 l 79 -223 l 79 -293 m 5 -293 l 74 -293 l 74 -223 l 5 -223 l 5 -293 m 377 -293 l 446 -293 l 446 -223 l 377 -223 l 377 -293 m 451 -367 l 521 -367 l 521 -298 l 451 -298 l 451 -367 m 228 -367 l 298 -367 l 298 -298 l 228 -298 l 228 -367 m 303 -367 l 372 -367 l 372 -298 l 303 -298 l 303 -367 m 5 -367 l 74 -367 l 74 -298 l 5 -298 l 5 -367 m 154 -367 l 223 -367 l 223 -298 l 154 -298 l 154 -367 m 79 -367 l 149 -367 l 149 -298 l 79 -298 l 79 -367 m 377 -367 l 446 -367 l 446 -298 l 377 -298 l 377 -367 m 377 1116 l 377 1047 l 446 1047 l 446 1116 l 377 1116 m 303 1116 l 303 1047 l 372 1047 l 372 1116 l 303 1116 m 228 1116 l 228 1047 l 298 1047 l 298 1116 l 228 1116 m 154 1116 l 154 1047 l 223 1047 l 223 1116 l 154 1116 m 79 1116 l 79 1047 l 149 1047 l 149 1116 l 79 1116 m 5 1116 l 5 1047 l 74 1047 l 74 1116 l 5 1116 m 595 1116 l 526 1116 l 526 1047 l 595 1047 l 595 1042 l 526 1042 l 526 972 l 595 972 l 595 967 l 526 967 l 526 898 l 595 898 l 595 893 l 526 893 l 526 823 l 595 823 l 595 818 l 526 818 l 526 749 l 595 749 l 595 744 l 526 744 l 526 675 l 595 675 l 595 670 l 526 670 l 526 600 l 595 600 l 595 595 l 526 595 l 526 526 l 595 526 l 595 521 l 526 521 l 526 451 l 595 451 l 595 446 l 526 446 l 526 377 l 595 377 l 595 372 l 526 372 l 526 303 l 595 303 l 595 298 l 526 298 l 526 228 l 595 228 l 595 223 l 526 223 l 526 154 l 595 154 l 595 149 l 526 149 l 526 79 l 595 79 l 595 74 l 526 74 l 526 5 l 595 5 l 595 0 l 526 0 l 526 -69 l 595 -69 l 595 -74 l 526 -74 l 526 -144 l 595 -144 l 595 -149 l 526 -149 l 526 -218 l 595 -218 l 595 -223 l 526 -223 l 526 -293 l 595 -293 l 595 -298 l 526 -298 l 526 -367 l 595 -367 l 595 -372 l 0 -372 l 0 1121 l 595 1121 l 595 1116 z "},"":{"ha":595,"x_min":0,"x_max":595,"o":"m 451 1116 l 451 1047 l 521 1047 l 521 1116 l 451 1116 m 451 972 l 521 972 l 521 1042 l 451 1042 l 451 972 m 377 972 l 446 972 l 446 1042 l 377 1042 l 377 972 m 303 972 l 372 972 l 372 1042 l 303 1042 l 303 972 m 228 972 l 298 972 l 298 1042 l 228 1042 l 228 972 m 154 972 l 223 972 l 223 1042 l 154 1042 l 154 972 m 79 972 l 149 972 l 149 1042 l 79 1042 l 79 972 m 5 972 l 74 972 l 74 1042 l 5 1042 l 5 972 m 451 898 l 521 898 l 521 967 l 451 967 l 451 898 m 377 898 l 446 898 l 446 967 l 377 967 l 377 898 m 303 898 l 372 898 l 372 967 l 303 967 l 303 898 m 228 898 l 298 898 l 298 967 l 228 967 l 228 898 m 154 898 l 223 898 l 223 967 l 154 967 l 154 898 m 79 898 l 149 898 l 149 967 l 79 967 l 79 898 m 5 898 l 74 898 l 74 967 l 5 967 l 5 898 m 451 823 l 521 823 l 521 893 l 451 893 l 451 823 m 377 823 l 446 823 l 446 893 l 377 893 l 377 823 m 303 823 l 372 823 l 372 893 l 303 893 l 303 823 m 228 823 l 298 823 l 298 893 l 228 893 l 228 823 m 154 823 l 223 823 l 223 893 l 154 893 l 154 823 m 79 823 l 149 823 l 149 893 l 79 893 l 79 823 m 5 823 l 74 823 l 74 893 l 5 893 l 5 823 m 79 749 l 149 749 l 149 818 l 79 818 l 79 749 m 228 749 l 298 749 l 298 818 l 228 818 l 228 749 m 5 749 l 74 749 l 74 818 l 5 818 l 5 749 m 154 749 l 223 749 l 223 818 l 154 818 l 154 749 m 303 749 l 372 749 l 372 818 l 303 818 l 303 749 m 377 749 l 446 749 l 446 818 l 377 818 l 377 749 m 451 749 l 521 749 l 521 818 l 451 818 l 451 749 m 303 675 l 372 675 l 372 744 l 303 744 l 303 675 m 451 675 l 521 675 l 521 744 l 451 744 l 451 675 m 377 675 l 446 675 l 446 744 l 377 744 l 377 675 m 154 675 l 223 675 l 223 744 l 154 744 l 154 675 m 79 675 l 149 675 l 149 744 l 79 744 l 79 675 m 5 675 l 74 675 l 74 744 l 5 744 l 5 675 m 451 600 l 521 600 l 521 670 l 451 670 l 451 600 m 377 600 l 446 600 l 446 670 l 377 670 l 377 600 m 79 600 l 149 600 l 149 670 l 79 670 l 79 600 m 5 600 l 74 600 l 74 670 l 5 670 l 5 600 m 451 526 l 521 526 l 521 595 l 451 595 l 451 526 m 5 526 l 74 526 l 74 595 l 5 595 l 5 526 m 228 451 l 298 451 l 298 521 l 228 521 l 228 451 m 154 377 l 223 377 l 223 446 l 154 446 l 154 377 m 228 377 l 298 377 l 298 446 l 228 446 l 228 377 m 303 377 l 372 377 l 372 446 l 303 446 l 303 377 m 303 303 l 372 303 l 372 372 l 303 372 l 303 303 m 154 303 l 223 303 l 223 372 l 154 372 l 154 303 m 228 303 l 298 303 l 298 372 l 228 372 l 228 303 m 303 79 l 372 79 l 372 149 l 303 149 l 303 79 m 154 79 l 223 79 l 223 149 l 154 149 l 154 79 m 228 79 l 298 79 l 298 149 l 228 149 l 228 79 m 154 5 l 223 5 l 223 74 l 154 74 l 154 5 m 228 5 l 298 5 l 298 74 l 228 74 l 228 5 m 303 5 l 372 5 l 372 74 l 303 74 l 303 5 m 451 -69 l 521 -69 l 521 0 l 451 0 l 451 -69 m 5 -69 l 74 -69 l 74 0 l 5 0 l 5 -69 m 303 -69 l 372 -69 l 372 0 l 303 0 l 303 -69 m 79 -69 l 149 -69 l 149 0 l 79 0 l 79 -69 m 377 -69 l 446 -69 l 446 0 l 377 0 l 377 -69 m 154 -69 l 223 -69 l 223 0 l 154 0 l 154 -69 m 228 -69 l 298 -69 l 298 0 l 228 0 l 228 -69 m 5 -144 l 74 -144 l 74 -74 l 5 -74 l 5 -144 m 377 -144 l 446 -144 l 446 -74 l 377 -74 l 377 -144 m 79 -144 l 149 -144 l 149 -74 l 79 -74 l 79 -144 m 303 -144 l 372 -144 l 372 -74 l 303 -74 l 303 -144 m 154 -144 l 223 -144 l 223 -74 l 154 -74 l 154 -144 m 451 -144 l 521 -144 l 521 -74 l 451 -74 l 451 -144 m 228 -144 l 298 -144 l 298 -74 l 228 -74 l 228 -144 m 377 -218 l 446 -218 l 446 -149 l 377 -149 l 377 -218 m 5 -218 l 74 -218 l 74 -149 l 5 -149 l 5 -218 m 79 -218 l 149 -218 l 149 -149 l 79 -149 l 79 -218 m 303 -218 l 372 -218 l 372 -149 l 303 -149 l 303 -218 m 154 -218 l 223 -218 l 223 -149 l 154 -149 l 154 -218 m 451 -218 l 521 -218 l 521 -149 l 451 -149 l 451 -218 m 228 -218 l 298 -218 l 298 -149 l 228 -149 l 228 -218 m 228 -293 l 298 -293 l 298 -223 l 228 -223 l 228 -293 m 451 -293 l 521 -293 l 521 -223 l 451 -223 l 451 -293 m 303 -293 l 372 -293 l 372 -223 l 303 -223 l 303 -293 m 154 -293 l 223 -293 l 223 -223 l 154 -223 l 154 -293 m 79 -293 l 149 -293 l 149 -223 l 79 -223 l 79 -293 m 5 -293 l 74 -293 l 74 -223 l 5 -223 l 5 -293 m 377 -293 l 446 -293 l 446 -223 l 377 -223 l 377 -293 m 451 -367 l 521 -367 l 521 -298 l 451 -298 l 451 -367 m 228 -367 l 298 -367 l 298 -298 l 228 -298 l 228 -367 m 303 -367 l 372 -367 l 372 -298 l 303 -298 l 303 -367 m 5 -367 l 74 -367 l 74 -298 l 5 -298 l 5 -367 m 154 -367 l 223 -367 l 223 -298 l 154 -298 l 154 -367 m 79 -367 l 149 -367 l 149 -298 l 79 -298 l 79 -367 m 377 -367 l 446 -367 l 446 -298 l 377 -298 l 377 -367 m 377 1116 l 377 1047 l 446 1047 l 446 1116 l 377 1116 m 303 1116 l 303 1047 l 372 1047 l 372 1116 l 303 1116 m 228 1116 l 228 1047 l 298 1047 l 298 1116 l 228 1116 m 154 1116 l 154 1047 l 223 1047 l 223 1116 l 154 1116 m 79 1116 l 79 1047 l 149 1047 l 149 1116 l 79 1116 m 5 1116 l 5 1047 l 74 1047 l 74 1116 l 5 1116 m 595 1116 l 526 1116 l 526 1047 l 595 1047 l 595 1042 l 526 1042 l 526 972 l 595 972 l 595 967 l 526 967 l 526 898 l 595 898 l 595 893 l 526 893 l 526 823 l 595 823 l 595 818 l 526 818 l 526 749 l 595 749 l 595 744 l 526 744 l 526 675 l 595 675 l 595 670 l 526 670 l 526 600 l 595 600 l 595 595 l 526 595 l 526 526 l 595 526 l 595 521 l 526 521 l 526 451 l 595 451 l 595 446 l 526 446 l 526 377 l 595 377 l 595 372 l 526 372 l 526 303 l 595 303 l 595 298 l 526 298 l 526 228 l 595 228 l 595 223 l 526 223 l 526 154 l 595 154 l 595 149 l 526 149 l 526 79 l 595 79 l 595 74 l 526 74 l 526 5 l 595 5 l 595 0 l 526 0 l 526 -69 l 595 -69 l 595 -74 l 526 -74 l 526 -144 l 595 -144 l 595 -149 l 526 -149 l 526 -218 l 595 -218 l 595 -223 l 526 -223 l 526 -293 l 595 -293 l 595 -298 l 526 -298 l 526 -367 l 595 -367 l 595 -372 l 0 -372 l 0 1121 l 595 1121 l 595 1116 m 298 967 l 298 893 l 223 893 l 223 967 l 298 967 m 298 893 l 298 818 l 223 818 l 223 893 l 298 893 m 372 967 l 372 893 l 298 893 l 298 967 l 372 967 m 372 1042 l 372 967 l 298 967 l 298 1042 l 372 1042 z "},"":{"ha":595,"x_min":0,"x_max":595,"o":"m 451 1116 l 451 1047 l 521 1047 l 521 1116 l 451 1116 m 451 972 l 521 972 l 521 1042 l 451 1042 l 451 972 m 377 972 l 446 972 l 446 1042 l 377 1042 l 377 972 m 303 972 l 372 972 l 372 1042 l 303 1042 l 303 972 m 228 972 l 298 972 l 298 1042 l 228 1042 l 228 972 m 154 972 l 223 972 l 223 1042 l 154 1042 l 154 972 m 79 972 l 149 972 l 149 1042 l 79 1042 l 79 972 m 5 972 l 74 972 l 74 1042 l 5 1042 l 5 972 m 451 898 l 521 898 l 521 967 l 451 967 l 451 898 m 377 898 l 446 898 l 446 967 l 377 967 l 377 898 m 303 898 l 372 898 l 372 967 l 303 967 l 303 898 m 228 898 l 298 898 l 298 967 l 228 967 l 228 898 m 154 898 l 223 898 l 223 967 l 154 967 l 154 898 m 79 898 l 149 898 l 149 967 l 79 967 l 79 898 m 5 898 l 74 898 l 74 967 l 5 967 l 5 898 m 451 823 l 521 823 l 521 893 l 451 893 l 451 823 m 377 823 l 446 823 l 446 893 l 377 893 l 377 823 m 303 823 l 372 823 l 372 893 l 303 893 l 303 823 m 228 823 l 298 823 l 298 893 l 228 893 l 228 823 m 154 823 l 223 823 l 223 893 l 154 893 l 154 823 m 79 823 l 149 823 l 149 893 l 79 893 l 79 823 m 5 823 l 74 823 l 74 893 l 5 893 l 5 823 m 79 749 l 149 749 l 149 818 l 79 818 l 79 749 m 228 749 l 298 749 l 298 818 l 228 818 l 228 749 m 5 749 l 74 749 l 74 818 l 5 818 l 5 749 m 154 749 l 223 749 l 223 818 l 154 818 l 154 749 m 303 749 l 372 749 l 372 818 l 303 818 l 303 749 m 377 749 l 446 749 l 446 818 l 377 818 l 377 749 m 451 749 l 521 749 l 521 818 l 451 818 l 451 749 m 303 675 l 372 675 l 372 744 l 303 744 l 303 675 m 451 675 l 521 675 l 521 744 l 451 744 l 451 675 m 377 675 l 446 675 l 446 744 l 377 744 l 377 675 m 154 675 l 223 675 l 223 744 l 154 744 l 154 675 m 79 675 l 149 675 l 149 744 l 79 744 l 79 675 m 5 675 l 74 675 l 74 744 l 5 744 l 5 675 m 451 600 l 521 600 l 521 670 l 451 670 l 451 600 m 377 600 l 446 600 l 446 670 l 377 670 l 377 600 m 79 600 l 149 600 l 149 670 l 79 670 l 79 600 m 5 600 l 74 600 l 74 670 l 5 670 l 5 600 m 451 526 l 521 526 l 521 595 l 451 595 l 451 526 m 5 526 l 74 526 l 74 595 l 5 595 l 5 526 m 228 451 l 298 451 l 298 521 l 228 521 l 228 451 m 154 377 l 223 377 l 223 446 l 154 446 l 154 377 m 228 377 l 298 377 l 298 446 l 228 446 l 228 377 m 303 377 l 372 377 l 372 446 l 303 446 l 303 377 m 303 303 l 372 303 l 372 372 l 303 372 l 303 303 m 154 303 l 223 303 l 223 372 l 154 372 l 154 303 m 228 303 l 298 303 l 298 372 l 228 372 l 228 303 m 303 79 l 372 79 l 372 149 l 303 149 l 303 79 m 154 79 l 223 79 l 223 149 l 154 149 l 154 79 m 228 79 l 298 79 l 298 149 l 228 149 l 228 79 m 154 5 l 223 5 l 223 74 l 154 74 l 154 5 m 228 5 l 298 5 l 298 74 l 228 74 l 228 5 m 303 5 l 372 5 l 372 74 l 303 74 l 303 5 m 451 -69 l 521 -69 l 521 0 l 451 0 l 451 -69 m 5 -69 l 74 -69 l 74 0 l 5 0 l 5 -69 m 303 -69 l 372 -69 l 372 0 l 303 0 l 303 -69 m 79 -69 l 149 -69 l 149 0 l 79 0 l 79 -69 m 377 -69 l 446 -69 l 446 0 l 377 0 l 377 -69 m 154 -69 l 223 -69 l 223 0 l 154 0 l 154 -69 m 228 -69 l 298 -69 l 298 0 l 228 0 l 228 -69 m 5 -144 l 74 -144 l 74 -74 l 5 -74 l 5 -144 m 377 -144 l 446 -144 l 446 -74 l 377 -74 l 377 -144 m 79 -144 l 149 -144 l 149 -74 l 79 -74 l 79 -144 m 303 -144 l 372 -144 l 372 -74 l 303 -74 l 303 -144 m 154 -144 l 223 -144 l 223 -74 l 154 -74 l 154 -144 m 451 -144 l 521 -144 l 521 -74 l 451 -74 l 451 -144 m 228 -144 l 298 -144 l 298 -74 l 228 -74 l 228 -144 m 377 -218 l 446 -218 l 446 -149 l 377 -149 l 377 -218 m 5 -218 l 74 -218 l 74 -149 l 5 -149 l 5 -218 m 79 -218 l 149 -218 l 149 -149 l 79 -149 l 79 -218 m 303 -218 l 372 -218 l 372 -149 l 303 -149 l 303 -218 m 154 -218 l 223 -218 l 223 -149 l 154 -149 l 154 -218 m 451 -218 l 521 -218 l 521 -149 l 451 -149 l 451 -218 m 228 -218 l 298 -218 l 298 -149 l 228 -149 l 228 -218 m 228 -293 l 298 -293 l 298 -223 l 228 -223 l 228 -293 m 451 -293 l 521 -293 l 521 -223 l 451 -223 l 451 -293 m 303 -293 l 372 -293 l 372 -223 l 303 -223 l 303 -293 m 154 -293 l 223 -293 l 223 -223 l 154 -223 l 154 -293 m 79 -293 l 149 -293 l 149 -223 l 79 -223 l 79 -293 m 5 -293 l 74 -293 l 74 -223 l 5 -223 l 5 -293 m 377 -293 l 446 -293 l 446 -223 l 377 -223 l 377 -293 m 451 -367 l 521 -367 l 521 -298 l 451 -298 l 451 -367 m 228 -367 l 298 -367 l 298 -298 l 228 -298 l 228 -367 m 303 -367 l 372 -367 l 372 -298 l 303 -298 l 303 -367 m 5 -367 l 74 -367 l 74 -298 l 5 -298 l 5 -367 m 154 -367 l 223 -367 l 223 -298 l 154 -298 l 154 -367 m 79 -367 l 149 -367 l 149 -298 l 79 -298 l 79 -367 m 377 -367 l 446 -367 l 446 -298 l 377 -298 l 377 -367 m 377 1116 l 377 1047 l 446 1047 l 446 1116 l 377 1116 m 303 1116 l 303 1047 l 372 1047 l 372 1116 l 303 1116 m 228 1116 l 228 1047 l 298 1047 l 298 1116 l 228 1116 m 154 1116 l 154 1047 l 223 1047 l 223 1116 l 154 1116 m 79 1116 l 79 1047 l 149 1047 l 149 1116 l 79 1116 m 5 1116 l 5 1047 l 74 1047 l 74 1116 l 5 1116 m 595 1116 l 526 1116 l 526 1047 l 595 1047 l 595 1042 l 526 1042 l 526 972 l 595 972 l 595 967 l 526 967 l 526 898 l 595 898 l 595 893 l 526 893 l 526 823 l 595 823 l 595 818 l 526 818 l 526 749 l 595 749 l 595 744 l 526 744 l 526 675 l 595 675 l 595 670 l 526 670 l 526 600 l 595 600 l 595 595 l 526 595 l 526 526 l 595 526 l 595 521 l 526 521 l 526 451 l 595 451 l 595 446 l 526 446 l 526 377 l 595 377 l 595 372 l 526 372 l 526 303 l 595 303 l 595 298 l 526 298 l 526 228 l 595 228 l 595 223 l 526 223 l 526 154 l 595 154 l 595 149 l 526 149 l 526 79 l 595 79 l 595 74 l 526 74 l 526 5 l 595 5 l 595 0 l 526 0 l 526 -69 l 595 -69 l 595 -74 l 526 -74 l 526 -144 l 595 -144 l 595 -149 l 526 -149 l 526 -218 l 595 -218 l 595 -223 l 526 -223 l 526 -293 l 595 -293 l 595 -298 l 526 -298 l 526 -367 l 595 -367 l 595 -372 l 0 -372 l 0 1121 l 595 1121 l 595 1116 m 149 893 l 149 967 l 223 967 l 223 893 l 149 893 m 74 967 l 74 1042 l 149 1042 l 149 967 l 74 967 m 298 893 l 298 967 l 372 967 l 372 893 l 298 893 m 74 893 l 74 967 l 149 967 l 149 893 l 74 893 m 223 818 l 223 893 l 298 893 l 298 818 l 223 818 m 149 818 l 149 893 l 223 893 l 223 818 l 149 818 m 372 1042 l 446 1042 l 446 967 l 372 967 l 372 1042 m 372 967 l 446 967 l 446 893 l 372 893 l 372 967 m 298 893 l 372 893 l 372 818 l 298 818 l 298 893 m 223 967 l 298 967 l 298 893 l 223 893 l 223 967 z "},"":{"ha":595,"x_min":0,"x_max":595,"o":"m 451 1116 l 451 1047 l 521 1047 l 521 1116 l 451 1116 m 451 972 l 521 972 l 521 1042 l 451 1042 l 451 972 m 377 972 l 446 972 l 446 1042 l 377 1042 l 377 972 m 303 972 l 372 972 l 372 1042 l 303 1042 l 303 972 m 228 972 l 298 972 l 298 1042 l 228 1042 l 228 972 m 154 972 l 223 972 l 223 1042 l 154 1042 l 154 972 m 79 972 l 149 972 l 149 1042 l 79 1042 l 79 972 m 5 972 l 74 972 l 74 1042 l 5 1042 l 5 972 m 451 898 l 521 898 l 521 967 l 451 967 l 451 898 m 377 898 l 446 898 l 446 967 l 377 967 l 377 898 m 303 898 l 372 898 l 372 967 l 303 967 l 303 898 m 228 898 l 298 898 l 298 967 l 228 967 l 228 898 m 154 898 l 223 898 l 223 967 l 154 967 l 154 898 m 79 898 l 149 898 l 149 967 l 79 967 l 79 898 m 5 898 l 74 898 l 74 967 l 5 967 l 5 898 m 451 823 l 521 823 l 521 893 l 451 893 l 451 823 m 377 823 l 446 823 l 446 893 l 377 893 l 377 823 m 303 823 l 372 823 l 372 893 l 303 893 l 303 823 m 228 823 l 298 823 l 298 893 l 228 893 l 228 823 m 154 823 l 223 823 l 223 893 l 154 893 l 154 823 m 79 823 l 149 823 l 149 893 l 79 893 l 79 823 m 5 823 l 74 823 l 74 893 l 5 893 l 5 823 m 79 749 l 149 749 l 149 818 l 79 818 l 79 749 m 228 749 l 298 749 l 298 818 l 228 818 l 228 749 m 5 749 l 74 749 l 74 818 l 5 818 l 5 749 m 154 749 l 223 749 l 223 818 l 154 818 l 154 749 m 303 749 l 372 749 l 372 818 l 303 818 l 303 749 m 377 749 l 446 749 l 446 818 l 377 818 l 377 749 m 451 749 l 521 749 l 521 818 l 451 818 l 451 749 m 303 675 l 372 675 l 372 744 l 303 744 l 303 675 m 451 675 l 521 675 l 521 744 l 451 744 l 451 675 m 377 675 l 446 675 l 446 744 l 377 744 l 377 675 m 154 675 l 223 675 l 223 744 l 154 744 l 154 675 m 79 675 l 149 675 l 149 744 l 79 744 l 79 675 m 5 675 l 74 675 l 74 744 l 5 744 l 5 675 m 451 600 l 521 600 l 521 670 l 451 670 l 451 600 m 377 600 l 446 600 l 446 670 l 377 670 l 377 600 m 79 600 l 149 600 l 149 670 l 79 670 l 79 600 m 5 600 l 74 600 l 74 670 l 5 670 l 5 600 m 451 526 l 521 526 l 521 595 l 451 595 l 451 526 m 5 526 l 74 526 l 74 595 l 5 595 l 5 526 m 228 451 l 298 451 l 298 521 l 228 521 l 228 451 m 154 377 l 223 377 l 223 446 l 154 446 l 154 377 m 228 377 l 298 377 l 298 446 l 228 446 l 228 377 m 303 377 l 372 377 l 372 446 l 303 446 l 303 377 m 303 303 l 372 303 l 372 372 l 303 372 l 303 303 m 154 303 l 223 303 l 223 372 l 154 372 l 154 303 m 228 303 l 298 303 l 298 372 l 228 372 l 228 303 m 303 79 l 372 79 l 372 149 l 303 149 l 303 79 m 154 79 l 223 79 l 223 149 l 154 149 l 154 79 m 228 79 l 298 79 l 298 149 l 228 149 l 228 79 m 154 5 l 223 5 l 223 74 l 154 74 l 154 5 m 228 5 l 298 5 l 298 74 l 228 74 l 228 5 m 303 5 l 372 5 l 372 74 l 303 74 l 303 5 m 451 -69 l 521 -69 l 521 0 l 451 0 l 451 -69 m 5 -69 l 74 -69 l 74 0 l 5 0 l 5 -69 m 303 -69 l 372 -69 l 372 0 l 303 0 l 303 -69 m 79 -69 l 149 -69 l 149 0 l 79 0 l 79 -69 m 377 -69 l 446 -69 l 446 0 l 377 0 l 377 -69 m 154 -69 l 223 -69 l 223 0 l 154 0 l 154 -69 m 228 -69 l 298 -69 l 298 0 l 228 0 l 228 -69 m 5 -144 l 74 -144 l 74 -74 l 5 -74 l 5 -144 m 377 -144 l 446 -144 l 446 -74 l 377 -74 l 377 -144 m 79 -144 l 149 -144 l 149 -74 l 79 -74 l 79 -144 m 303 -144 l 372 -144 l 372 -74 l 303 -74 l 303 -144 m 154 -144 l 223 -144 l 223 -74 l 154 -74 l 154 -144 m 451 -144 l 521 -144 l 521 -74 l 451 -74 l 451 -144 m 228 -144 l 298 -144 l 298 -74 l 228 -74 l 228 -144 m 377 -218 l 446 -218 l 446 -149 l 377 -149 l 377 -218 m 5 -218 l 74 -218 l 74 -149 l 5 -149 l 5 -218 m 79 -218 l 149 -218 l 149 -149 l 79 -149 l 79 -218 m 303 -218 l 372 -218 l 372 -149 l 303 -149 l 303 -218 m 154 -218 l 223 -218 l 223 -149 l 154 -149 l 154 -218 m 451 -218 l 521 -218 l 521 -149 l 451 -149 l 451 -218 m 228 -218 l 298 -218 l 298 -149 l 228 -149 l 228 -218 m 228 -293 l 298 -293 l 298 -223 l 228 -223 l 228 -293 m 451 -293 l 521 -293 l 521 -223 l 451 -223 l 451 -293 m 303 -293 l 372 -293 l 372 -223 l 303 -223 l 303 -293 m 154 -293 l 223 -293 l 223 -223 l 154 -223 l 154 -293 m 79 -293 l 149 -293 l 149 -223 l 79 -223 l 79 -293 m 5 -293 l 74 -293 l 74 -223 l 5 -223 l 5 -293 m 377 -293 l 446 -293 l 446 -223 l 377 -223 l 377 -293 m 451 -367 l 521 -367 l 521 -298 l 451 -298 l 451 -367 m 228 -367 l 298 -367 l 298 -298 l 228 -298 l 228 -367 m 303 -367 l 372 -367 l 372 -298 l 303 -298 l 303 -367 m 5 -367 l 74 -367 l 74 -298 l 5 -298 l 5 -367 m 154 -367 l 223 -367 l 223 -298 l 154 -298 l 154 -367 m 79 -367 l 149 -367 l 149 -298 l 79 -298 l 79 -367 m 377 -367 l 446 -367 l 446 -298 l 377 -298 l 377 -367 m 377 1116 l 377 1047 l 446 1047 l 446 1116 l 377 1116 m 303 1116 l 303 1047 l 372 1047 l 372 1116 l 303 1116 m 228 1116 l 228 1047 l 298 1047 l 298 1116 l 228 1116 m 154 1116 l 154 1047 l 223 1047 l 223 1116 l 154 1116 m 79 1116 l 79 1047 l 149 1047 l 149 1116 l 79 1116 m 5 1116 l 5 1047 l 74 1047 l 74 1116 l 5 1116 m 595 1116 l 526 1116 l 526 1047 l 595 1047 l 595 1042 l 526 1042 l 526 972 l 595 972 l 595 967 l 526 967 l 526 898 l 595 898 l 595 893 l 526 893 l 526 823 l 595 823 l 595 818 l 526 818 l 526 749 l 595 749 l 595 744 l 526 744 l 526 675 l 595 675 l 595 670 l 526 670 l 526 600 l 595 600 l 595 595 l 526 595 l 526 526 l 595 526 l 595 521 l 526 521 l 526 451 l 595 451 l 595 446 l 526 446 l 526 377 l 595 377 l 595 372 l 526 372 l 526 303 l 595 303 l 595 298 l 526 298 l 526 228 l 595 228 l 595 223 l 526 223 l 526 154 l 595 154 l 595 149 l 526 149 l 526 79 l 595 79 l 595 74 l 526 74 l 526 5 l 595 5 l 595 0 l 526 0 l 526 -69 l 595 -69 l 595 -74 l 526 -74 l 526 -144 l 595 -144 l 595 -149 l 526 -149 l 526 -218 l 595 -218 l 595 -223 l 526 -223 l 526 -293 l 595 -293 l 595 -298 l 526 -298 l 526 -367 l 595 -367 l 595 -372 l 0 -372 l 0 1121 l 595 1121 l 595 1116 m 149 893 l 223 893 l 223 818 l 149 818 l 149 893 m 298 893 l 372 893 l 372 818 l 298 818 l 298 893 m 74 893 l 149 893 l 149 818 l 74 818 l 74 893 m 223 967 l 298 967 l 298 893 l 223 893 l 223 967 m 149 967 l 223 967 l 223 893 l 149 893 l 149 967 m 372 893 l 446 893 l 446 818 l 372 818 l 372 893 m 298 967 l 372 967 l 372 893 l 298 893 l 298 967 m 223 1042 l 298 1042 l 298 967 l 223 967 l 223 1042 z "},"":{"ha":595,"x_min":0,"x_max":595,"o":"m 451 1116 l 451 1047 l 521 1047 l 521 1116 l 451 1116 m 451 972 l 521 972 l 521 1042 l 451 1042 l 451 972 m 377 972 l 446 972 l 446 1042 l 377 1042 l 377 972 m 303 972 l 372 972 l 372 1042 l 303 1042 l 303 972 m 228 972 l 298 972 l 298 1042 l 228 1042 l 228 972 m 154 972 l 223 972 l 223 1042 l 154 1042 l 154 972 m 79 972 l 149 972 l 149 1042 l 79 1042 l 79 972 m 5 972 l 74 972 l 74 1042 l 5 1042 l 5 972 m 451 898 l 521 898 l 521 967 l 451 967 l 451 898 m 377 898 l 446 898 l 446 967 l 377 967 l 377 898 m 303 898 l 372 898 l 372 967 l 303 967 l 303 898 m 228 898 l 298 898 l 298 967 l 228 967 l 228 898 m 154 898 l 223 898 l 223 967 l 154 967 l 154 898 m 79 898 l 149 898 l 149 967 l 79 967 l 79 898 m 5 898 l 74 898 l 74 967 l 5 967 l 5 898 m 451 823 l 521 823 l 521 893 l 451 893 l 451 823 m 377 823 l 446 823 l 446 893 l 377 893 l 377 823 m 303 823 l 372 823 l 372 893 l 303 893 l 303 823 m 228 823 l 298 823 l 298 893 l 228 893 l 228 823 m 154 823 l 223 823 l 223 893 l 154 893 l 154 823 m 79 823 l 149 823 l 149 893 l 79 893 l 79 823 m 5 823 l 74 823 l 74 893 l 5 893 l 5 823 m 79 749 l 149 749 l 149 818 l 79 818 l 79 749 m 228 749 l 298 749 l 298 818 l 228 818 l 228 749 m 5 749 l 74 749 l 74 818 l 5 818 l 5 749 m 154 749 l 223 749 l 223 818 l 154 818 l 154 749 m 303 749 l 372 749 l 372 818 l 303 818 l 303 749 m 377 749 l 446 749 l 446 818 l 377 818 l 377 749 m 451 749 l 521 749 l 521 818 l 451 818 l 451 749 m 303 675 l 372 675 l 372 744 l 303 744 l 303 675 m 451 675 l 521 675 l 521 744 l 451 744 l 451 675 m 377 675 l 446 675 l 446 744 l 377 744 l 377 675 m 154 675 l 223 675 l 223 744 l 154 744 l 154 675 m 79 675 l 149 675 l 149 744 l 79 744 l 79 675 m 5 675 l 74 675 l 74 744 l 5 744 l 5 675 m 451 600 l 521 600 l 521 670 l 451 670 l 451 600 m 377 600 l 446 600 l 446 670 l 377 670 l 377 600 m 79 600 l 149 600 l 149 670 l 79 670 l 79 600 m 5 600 l 74 600 l 74 670 l 5 670 l 5 600 m 451 526 l 521 526 l 521 595 l 451 595 l 451 526 m 5 526 l 74 526 l 74 595 l 5 595 l 5 526 m 228 451 l 298 451 l 298 521 l 228 521 l 228 451 m 154 377 l 223 377 l 223 446 l 154 446 l 154 377 m 228 377 l 298 377 l 298 446 l 228 446 l 228 377 m 303 377 l 372 377 l 372 446 l 303 446 l 303 377 m 303 303 l 372 303 l 372 372 l 303 372 l 303 303 m 154 303 l 223 303 l 223 372 l 154 372 l 154 303 m 228 303 l 298 303 l 298 372 l 228 372 l 228 303 m 303 79 l 372 79 l 372 149 l 303 149 l 303 79 m 154 79 l 223 79 l 223 149 l 154 149 l 154 79 m 228 79 l 298 79 l 298 149 l 228 149 l 228 79 m 154 5 l 223 5 l 223 74 l 154 74 l 154 5 m 228 5 l 298 5 l 298 74 l 228 74 l 228 5 m 303 5 l 372 5 l 372 74 l 303 74 l 303 5 m 451 -69 l 521 -69 l 521 0 l 451 0 l 451 -69 m 5 -69 l 74 -69 l 74 0 l 5 0 l 5 -69 m 303 -69 l 372 -69 l 372 0 l 303 0 l 303 -69 m 79 -69 l 149 -69 l 149 0 l 79 0 l 79 -69 m 377 -69 l 446 -69 l 446 0 l 377 0 l 377 -69 m 154 -69 l 223 -69 l 223 0 l 154 0 l 154 -69 m 228 -69 l 298 -69 l 298 0 l 228 0 l 228 -69 m 5 -144 l 74 -144 l 74 -74 l 5 -74 l 5 -144 m 377 -144 l 446 -144 l 446 -74 l 377 -74 l 377 -144 m 79 -144 l 149 -144 l 149 -74 l 79 -74 l 79 -144 m 303 -144 l 372 -144 l 372 -74 l 303 -74 l 303 -144 m 154 -144 l 223 -144 l 223 -74 l 154 -74 l 154 -144 m 451 -144 l 521 -144 l 521 -74 l 451 -74 l 451 -144 m 228 -144 l 298 -144 l 298 -74 l 228 -74 l 228 -144 m 377 -218 l 446 -218 l 446 -149 l 377 -149 l 377 -218 m 5 -218 l 74 -218 l 74 -149 l 5 -149 l 5 -218 m 79 -218 l 149 -218 l 149 -149 l 79 -149 l 79 -218 m 303 -218 l 372 -218 l 372 -149 l 303 -149 l 303 -218 m 154 -218 l 223 -218 l 223 -149 l 154 -149 l 154 -218 m 451 -218 l 521 -218 l 521 -149 l 451 -149 l 451 -218 m 228 -218 l 298 -218 l 298 -149 l 228 -149 l 228 -218 m 228 -293 l 298 -293 l 298 -223 l 228 -223 l 228 -293 m 451 -293 l 521 -293 l 521 -223 l 451 -223 l 451 -293 m 303 -293 l 372 -293 l 372 -223 l 303 -223 l 303 -293 m 154 -293 l 223 -293 l 223 -223 l 154 -223 l 154 -293 m 79 -293 l 149 -293 l 149 -223 l 79 -223 l 79 -293 m 5 -293 l 74 -293 l 74 -223 l 5 -223 l 5 -293 m 377 -293 l 446 -293 l 446 -223 l 377 -223 l 377 -293 m 451 -367 l 521 -367 l 521 -298 l 451 -298 l 451 -367 m 228 -367 l 298 -367 l 298 -298 l 228 -298 l 228 -367 m 303 -367 l 372 -367 l 372 -298 l 303 -298 l 303 -367 m 5 -367 l 74 -367 l 74 -298 l 5 -298 l 5 -367 m 154 -367 l 223 -367 l 223 -298 l 154 -298 l 154 -367 m 79 -367 l 149 -367 l 149 -298 l 79 -298 l 79 -367 m 377 -367 l 446 -367 l 446 -298 l 377 -298 l 377 -367 m 377 1116 l 377 1047 l 446 1047 l 446 1116 l 377 1116 m 303 1116 l 303 1047 l 372 1047 l 372 1116 l 303 1116 m 228 1116 l 228 1047 l 298 1047 l 298 1116 l 228 1116 m 154 1116 l 154 1047 l 223 1047 l 223 1116 l 154 1116 m 79 1116 l 79 1047 l 149 1047 l 149 1116 l 79 1116 m 5 1116 l 5 1047 l 74 1047 l 74 1116 l 5 1116 m 595 1116 l 526 1116 l 526 1047 l 595 1047 l 595 1042 l 526 1042 l 526 972 l 595 972 l 595 967 l 526 967 l 526 898 l 595 898 l 595 893 l 526 893 l 526 823 l 595 823 l 595 818 l 526 818 l 526 749 l 595 749 l 595 744 l 526 744 l 526 675 l 595 675 l 595 670 l 526 670 l 526 600 l 595 600 l 595 595 l 526 595 l 526 526 l 595 526 l 595 521 l 526 521 l 526 451 l 595 451 l 595 446 l 526 446 l 526 377 l 595 377 l 595 372 l 526 372 l 526 303 l 595 303 l 595 298 l 526 298 l 526 228 l 595 228 l 595 223 l 526 223 l 526 154 l 595 154 l 595 149 l 526 149 l 526 79 l 595 79 l 595 74 l 526 74 l 526 5 l 595 5 l 595 0 l 526 0 l 526 -69 l 595 -69 l 595 -74 l 526 -74 l 526 -144 l 595 -144 l 595 -149 l 526 -149 l 526 -218 l 595 -218 l 595 -223 l 526 -223 l 526 -293 l 595 -293 l 595 -298 l 526 -298 l 526 -367 l 595 -367 l 595 -372 l 0 -372 l 0 1121 l 595 1121 l 595 1116 m 298 967 l 372 967 l 372 893 l 298 893 l 298 967 m 372 967 l 446 967 l 446 893 l 372 893 l 372 967 m 372 893 l 446 893 l 446 818 l 372 818 l 372 893 m 298 893 l 372 893 l 372 818 l 298 818 l 298 893 m 74 893 l 149 893 l 149 818 l 74 818 l 74 893 m 149 893 l 223 893 l 223 818 l 149 818 l 149 893 m 149 967 l 223 967 l 223 893 l 149 893 l 149 967 m 74 967 l 149 967 l 149 893 l 74 893 l 74 967 z "},"":{"ha":595,"x_min":0,"x_max":595,"o":"m 451 1116 l 451 1047 l 521 1047 l 521 1116 l 451 1116 m 451 972 l 521 972 l 521 1042 l 451 1042 l 451 972 m 377 972 l 446 972 l 446 1042 l 377 1042 l 377 972 m 303 972 l 372 972 l 372 1042 l 303 1042 l 303 972 m 228 972 l 298 972 l 298 1042 l 228 1042 l 228 972 m 154 972 l 223 972 l 223 1042 l 154 1042 l 154 972 m 79 972 l 149 972 l 149 1042 l 79 1042 l 79 972 m 5 972 l 74 972 l 74 1042 l 5 1042 l 5 972 m 451 898 l 521 898 l 521 967 l 451 967 l 451 898 m 377 898 l 446 898 l 446 967 l 377 967 l 377 898 m 303 898 l 372 898 l 372 967 l 303 967 l 303 898 m 228 898 l 298 898 l 298 967 l 228 967 l 228 898 m 154 898 l 223 898 l 223 967 l 154 967 l 154 898 m 79 898 l 149 898 l 149 967 l 79 967 l 79 898 m 5 898 l 74 898 l 74 967 l 5 967 l 5 898 m 451 823 l 521 823 l 521 893 l 451 893 l 451 823 m 377 823 l 446 823 l 446 893 l 377 893 l 377 823 m 303 823 l 372 823 l 372 893 l 303 893 l 303 823 m 228 823 l 298 823 l 298 893 l 228 893 l 228 823 m 154 823 l 223 823 l 223 893 l 154 893 l 154 823 m 79 823 l 149 823 l 149 893 l 79 893 l 79 823 m 5 823 l 74 823 l 74 893 l 5 893 l 5 823 m 79 749 l 149 749 l 149 818 l 79 818 l 79 749 m 228 749 l 298 749 l 298 818 l 228 818 l 228 749 m 5 749 l 74 749 l 74 818 l 5 818 l 5 749 m 154 749 l 223 749 l 223 818 l 154 818 l 154 749 m 303 749 l 372 749 l 372 818 l 303 818 l 303 749 m 377 749 l 446 749 l 446 818 l 377 818 l 377 749 m 451 749 l 521 749 l 521 818 l 451 818 l 451 749 m 303 675 l 372 675 l 372 744 l 303 744 l 303 675 m 451 675 l 521 675 l 521 744 l 451 744 l 451 675 m 377 675 l 446 675 l 446 744 l 377 744 l 377 675 m 154 675 l 223 675 l 223 744 l 154 744 l 154 675 m 79 675 l 149 675 l 149 744 l 79 744 l 79 675 m 5 675 l 74 675 l 74 744 l 5 744 l 5 675 m 451 600 l 521 600 l 521 670 l 451 670 l 451 600 m 377 600 l 446 600 l 446 670 l 377 670 l 377 600 m 79 600 l 149 600 l 149 670 l 79 670 l 79 600 m 5 600 l 74 600 l 74 670 l 5 670 l 5 600 m 451 526 l 521 526 l 521 595 l 451 595 l 451 526 m 5 526 l 74 526 l 74 595 l 5 595 l 5 526 m 228 451 l 298 451 l 298 521 l 228 521 l 228 451 m 154 377 l 223 377 l 223 446 l 154 446 l 154 377 m 228 377 l 298 377 l 298 446 l 228 446 l 228 377 m 303 377 l 372 377 l 372 446 l 303 446 l 303 377 m 303 303 l 372 303 l 372 372 l 303 372 l 303 303 m 154 303 l 223 303 l 223 372 l 154 372 l 154 303 m 228 303 l 298 303 l 298 372 l 228 372 l 228 303 m 303 79 l 372 79 l 372 149 l 303 149 l 303 79 m 154 79 l 223 79 l 223 149 l 154 149 l 154 79 m 228 79 l 298 79 l 298 149 l 228 149 l 228 79 m 154 5 l 223 5 l 223 74 l 154 74 l 154 5 m 228 5 l 298 5 l 298 74 l 228 74 l 228 5 m 303 5 l 372 5 l 372 74 l 303 74 l 303 5 m 451 -69 l 521 -69 l 521 0 l 451 0 l 451 -69 m 5 -69 l 74 -69 l 74 0 l 5 0 l 5 -69 m 303 -69 l 372 -69 l 372 0 l 303 0 l 303 -69 m 79 -69 l 149 -69 l 149 0 l 79 0 l 79 -69 m 377 -69 l 446 -69 l 446 0 l 377 0 l 377 -69 m 154 -69 l 223 -69 l 223 0 l 154 0 l 154 -69 m 228 -69 l 298 -69 l 298 0 l 228 0 l 228 -69 m 5 -144 l 74 -144 l 74 -74 l 5 -74 l 5 -144 m 377 -144 l 446 -144 l 446 -74 l 377 -74 l 377 -144 m 79 -144 l 149 -144 l 149 -74 l 79 -74 l 79 -144 m 303 -144 l 372 -144 l 372 -74 l 303 -74 l 303 -144 m 154 -144 l 223 -144 l 223 -74 l 154 -74 l 154 -144 m 451 -144 l 521 -144 l 521 -74 l 451 -74 l 451 -144 m 228 -144 l 298 -144 l 298 -74 l 228 -74 l 228 -144 m 377 -218 l 446 -218 l 446 -149 l 377 -149 l 377 -218 m 5 -218 l 74 -218 l 74 -149 l 5 -149 l 5 -218 m 79 -218 l 149 -218 l 149 -149 l 79 -149 l 79 -218 m 303 -218 l 372 -218 l 372 -149 l 303 -149 l 303 -218 m 154 -218 l 223 -218 l 223 -149 l 154 -149 l 154 -218 m 451 -218 l 521 -218 l 521 -149 l 451 -149 l 451 -218 m 228 -218 l 298 -218 l 298 -149 l 228 -149 l 228 -218 m 228 -293 l 298 -293 l 298 -223 l 228 -223 l 228 -293 m 451 -293 l 521 -293 l 521 -223 l 451 -223 l 451 -293 m 303 -293 l 372 -293 l 372 -223 l 303 -223 l 303 -293 m 154 -293 l 223 -293 l 223 -223 l 154 -223 l 154 -293 m 79 -293 l 149 -293 l 149 -223 l 79 -223 l 79 -293 m 5 -293 l 74 -293 l 74 -223 l 5 -223 l 5 -293 m 377 -293 l 446 -293 l 446 -223 l 377 -223 l 377 -293 m 451 -367 l 521 -367 l 521 -298 l 451 -298 l 451 -367 m 228 -367 l 298 -367 l 298 -298 l 228 -298 l 228 -367 m 303 -367 l 372 -367 l 372 -298 l 303 -298 l 303 -367 m 5 -367 l 74 -367 l 74 -298 l 5 -298 l 5 -367 m 154 -367 l 223 -367 l 223 -298 l 154 -298 l 154 -367 m 79 -367 l 149 -367 l 149 -298 l 79 -298 l 79 -367 m 377 -367 l 446 -367 l 446 -298 l 377 -298 l 377 -367 m 377 1116 l 377 1047 l 446 1047 l 446 1116 l 377 1116 m 303 1116 l 303 1047 l 372 1047 l 372 1116 l 303 1116 m 228 1116 l 228 1047 l 298 1047 l 298 1116 l 228 1116 m 154 1116 l 154 1047 l 223 1047 l 223 1116 l 154 1116 m 79 1116 l 79 1047 l 149 1047 l 149 1116 l 79 1116 m 5 1116 l 5 1047 l 74 1047 l 74 1116 l 5 1116 m 595 1116 l 526 1116 l 526 1047 l 595 1047 l 595 1042 l 526 1042 l 526 972 l 595 972 l 595 967 l 526 967 l 526 898 l 595 898 l 595 893 l 526 893 l 526 823 l 595 823 l 595 818 l 526 818 l 526 749 l 595 749 l 595 744 l 526 744 l 526 675 l 595 675 l 595 670 l 526 670 l 526 600 l 595 600 l 595 595 l 526 595 l 526 526 l 595 526 l 595 521 l 526 521 l 526 451 l 595 451 l 595 446 l 526 446 l 526 377 l 595 377 l 595 372 l 526 372 l 526 303 l 595 303 l 595 298 l 526 298 l 526 228 l 595 228 l 595 223 l 526 223 l 526 154 l 595 154 l 595 149 l 526 149 l 526 79 l 595 79 l 595 74 l 526 74 l 526 5 l 595 5 l 595 0 l 526 0 l 526 -69 l 595 -69 l 595 -74 l 526 -74 l 526 -144 l 595 -144 l 595 -149 l 526 -149 l 526 -218 l 595 -218 l 595 -223 l 526 -223 l 526 -293 l 595 -293 l 595 -298 l 526 -298 l 526 -367 l 595 -367 l 595 -372 l 0 -372 l 0 1121 l 595 1121 l 595 1116 m 223 967 l 298 967 l 298 893 l 223 893 l 223 967 m 223 893 l 298 893 l 298 818 l 223 818 l 223 893 m 149 967 l 223 967 l 223 893 l 149 893 l 149 967 m 298 893 l 372 893 l 372 818 l 298 818 l 298 893 m 149 1042 l 223 1042 l 223 967 l 149 967 l 149 1042 z "},"":{"ha":595,"x_min":0,"x_max":595,"o":"m 451 1116 l 451 1047 l 521 1047 l 521 1116 l 451 1116 m 451 972 l 521 972 l 521 1042 l 451 1042 l 451 972 m 377 972 l 446 972 l 446 1042 l 377 1042 l 377 972 m 303 972 l 372 972 l 372 1042 l 303 1042 l 303 972 m 228 972 l 298 972 l 298 1042 l 228 1042 l 228 972 m 154 972 l 223 972 l 223 1042 l 154 1042 l 154 972 m 79 972 l 149 972 l 149 1042 l 79 1042 l 79 972 m 5 972 l 74 972 l 74 1042 l 5 1042 l 5 972 m 451 898 l 521 898 l 521 967 l 451 967 l 451 898 m 377 898 l 446 898 l 446 967 l 377 967 l 377 898 m 303 898 l 372 898 l 372 967 l 303 967 l 303 898 m 228 898 l 298 898 l 298 967 l 228 967 l 228 898 m 154 898 l 223 898 l 223 967 l 154 967 l 154 898 m 79 898 l 149 898 l 149 967 l 79 967 l 79 898 m 5 898 l 74 898 l 74 967 l 5 967 l 5 898 m 451 823 l 521 823 l 521 893 l 451 893 l 451 823 m 377 823 l 446 823 l 446 893 l 377 893 l 377 823 m 303 823 l 372 823 l 372 893 l 303 893 l 303 823 m 228 823 l 298 823 l 298 893 l 228 893 l 228 823 m 154 823 l 223 823 l 223 893 l 154 893 l 154 823 m 79 823 l 149 823 l 149 893 l 79 893 l 79 823 m 5 823 l 74 823 l 74 893 l 5 893 l 5 823 m 79 749 l 149 749 l 149 818 l 79 818 l 79 749 m 228 749 l 298 749 l 298 818 l 228 818 l 228 749 m 5 749 l 74 749 l 74 818 l 5 818 l 5 749 m 154 749 l 223 749 l 223 818 l 154 818 l 154 749 m 303 749 l 372 749 l 372 818 l 303 818 l 303 749 m 377 749 l 446 749 l 446 818 l 377 818 l 377 749 m 451 749 l 521 749 l 521 818 l 451 818 l 451 749 m 303 675 l 372 675 l 372 744 l 303 744 l 303 675 m 451 675 l 521 675 l 521 744 l 451 744 l 451 675 m 377 675 l 446 675 l 446 744 l 377 744 l 377 675 m 154 675 l 223 675 l 223 744 l 154 744 l 154 675 m 79 675 l 149 675 l 149 744 l 79 744 l 79 675 m 5 675 l 74 675 l 74 744 l 5 744 l 5 675 m 451 600 l 521 600 l 521 670 l 451 670 l 451 600 m 377 600 l 446 600 l 446 670 l 377 670 l 377 600 m 79 600 l 149 600 l 149 670 l 79 670 l 79 600 m 5 600 l 74 600 l 74 670 l 5 670 l 5 600 m 451 526 l 521 526 l 521 595 l 451 595 l 451 526 m 5 526 l 74 526 l 74 595 l 5 595 l 5 526 m 228 451 l 298 451 l 298 521 l 228 521 l 228 451 m 154 377 l 223 377 l 223 446 l 154 446 l 154 377 m 228 377 l 298 377 l 298 446 l 228 446 l 228 377 m 303 377 l 372 377 l 372 446 l 303 446 l 303 377 m 303 303 l 372 303 l 372 372 l 303 372 l 303 303 m 154 303 l 223 303 l 223 372 l 154 372 l 154 303 m 228 303 l 298 303 l 298 372 l 228 372 l 228 303 m 303 79 l 372 79 l 372 149 l 303 149 l 303 79 m 154 79 l 223 79 l 223 149 l 154 149 l 154 79 m 228 79 l 298 79 l 298 149 l 228 149 l 228 79 m 154 5 l 223 5 l 223 74 l 154 74 l 154 5 m 228 5 l 298 5 l 298 74 l 228 74 l 228 5 m 303 5 l 372 5 l 372 74 l 303 74 l 303 5 m 451 -69 l 521 -69 l 521 0 l 451 0 l 451 -69 m 5 -69 l 74 -69 l 74 0 l 5 0 l 5 -69 m 303 -69 l 372 -69 l 372 0 l 303 0 l 303 -69 m 79 -69 l 149 -69 l 149 0 l 79 0 l 79 -69 m 377 -69 l 446 -69 l 446 0 l 377 0 l 377 -69 m 154 -69 l 223 -69 l 223 0 l 154 0 l 154 -69 m 228 -69 l 298 -69 l 298 0 l 228 0 l 228 -69 m 5 -144 l 74 -144 l 74 -74 l 5 -74 l 5 -144 m 377 -144 l 446 -144 l 446 -74 l 377 -74 l 377 -144 m 79 -144 l 149 -144 l 149 -74 l 79 -74 l 79 -144 m 303 -144 l 372 -144 l 372 -74 l 303 -74 l 303 -144 m 154 -144 l 223 -144 l 223 -74 l 154 -74 l 154 -144 m 451 -144 l 521 -144 l 521 -74 l 451 -74 l 451 -144 m 228 -144 l 298 -144 l 298 -74 l 228 -74 l 228 -144 m 377 -218 l 446 -218 l 446 -149 l 377 -149 l 377 -218 m 5 -218 l 74 -218 l 74 -149 l 5 -149 l 5 -218 m 79 -218 l 149 -218 l 149 -149 l 79 -149 l 79 -218 m 303 -218 l 372 -218 l 372 -149 l 303 -149 l 303 -218 m 154 -218 l 223 -218 l 223 -149 l 154 -149 l 154 -218 m 451 -218 l 521 -218 l 521 -149 l 451 -149 l 451 -218 m 228 -218 l 298 -218 l 298 -149 l 228 -149 l 228 -218 m 228 -293 l 298 -293 l 298 -223 l 228 -223 l 228 -293 m 451 -293 l 521 -293 l 521 -223 l 451 -223 l 451 -293 m 303 -293 l 372 -293 l 372 -223 l 303 -223 l 303 -293 m 154 -293 l 223 -293 l 223 -223 l 154 -223 l 154 -293 m 79 -293 l 149 -293 l 149 -223 l 79 -223 l 79 -293 m 5 -293 l 74 -293 l 74 -223 l 5 -223 l 5 -293 m 377 -293 l 446 -293 l 446 -223 l 377 -223 l 377 -293 m 451 -367 l 521 -367 l 521 -298 l 451 -298 l 451 -367 m 228 -367 l 298 -367 l 298 -298 l 228 -298 l 228 -367 m 303 -367 l 372 -367 l 372 -298 l 303 -298 l 303 -367 m 5 -367 l 74 -367 l 74 -298 l 5 -298 l 5 -367 m 154 -367 l 223 -367 l 223 -298 l 154 -298 l 154 -367 m 79 -367 l 149 -367 l 149 -298 l 79 -298 l 79 -367 m 377 -367 l 446 -367 l 446 -298 l 377 -298 l 377 -367 m 377 1116 l 377 1047 l 446 1047 l 446 1116 l 377 1116 m 303 1116 l 303 1047 l 372 1047 l 372 1116 l 303 1116 m 228 1116 l 228 1047 l 298 1047 l 298 1116 l 228 1116 m 154 1116 l 154 1047 l 223 1047 l 223 1116 l 154 1116 m 79 1116 l 79 1047 l 149 1047 l 149 1116 l 79 1116 m 5 1116 l 5 1047 l 74 1047 l 74 1116 l 5 1116 m 595 1116 l 526 1116 l 526 1047 l 595 1047 l 595 1042 l 526 1042 l 526 972 l 595 972 l 595 967 l 526 967 l 526 898 l 595 898 l 595 893 l 526 893 l 526 823 l 595 823 l 595 818 l 526 818 l 526 749 l 595 749 l 595 744 l 526 744 l 526 675 l 595 675 l 595 670 l 526 670 l 526 600 l 595 600 l 595 595 l 526 595 l 526 526 l 595 526 l 595 521 l 526 521 l 526 451 l 595 451 l 595 446 l 526 446 l 526 377 l 595 377 l 595 372 l 526 372 l 526 303 l 595 303 l 595 298 l 526 298 l 526 228 l 595 228 l 595 223 l 526 223 l 526 154 l 595 154 l 595 149 l 526 149 l 526 79 l 595 79 l 595 74 l 526 74 l 526 5 l 595 5 l 595 0 l 526 0 l 526 -69 l 595 -69 l 595 -74 l 526 -74 l 526 -144 l 595 -144 l 595 -149 l 526 -149 l 526 -218 l 595 -218 l 595 -223 l 526 -223 l 526 -293 l 595 -293 l 595 -298 l 526 -298 l 526 -367 l 595 -367 l 595 -372 l 0 -372 l 0 1121 l 595 1121 l 595 1116 m 149 967 l 223 967 l 223 893 l 149 893 l 149 967 m 223 967 l 298 967 l 298 893 l 223 893 l 223 967 m 223 893 l 298 893 l 298 818 l 223 818 l 223 893 m 149 893 l 223 893 l 223 818 l 149 818 l 149 893 m 74 967 l 149 967 l 149 893 l 74 893 l 74 967 m 74 893 l 149 893 l 149 818 l 74 818 l 74 893 m 298 967 l 372 967 l 372 893 l 298 893 l 298 967 m 298 893 l 372 893 l 372 818 l 298 818 l 298 893 m 372 967 l 446 967 l 446 893 l 372 893 l 372 967 m 372 893 l 446 893 l 446 818 l 372 818 l 372 893 z "},"":{"ha":595,"x_min":0,"x_max":595,"o":"m 451 1116 l 451 1047 l 521 1047 l 521 1116 l 451 1116 m 451 972 l 521 972 l 521 1042 l 451 1042 l 451 972 m 377 972 l 446 972 l 446 1042 l 377 1042 l 377 972 m 303 972 l 372 972 l 372 1042 l 303 1042 l 303 972 m 228 972 l 298 972 l 298 1042 l 228 1042 l 228 972 m 154 972 l 223 972 l 223 1042 l 154 1042 l 154 972 m 79 972 l 149 972 l 149 1042 l 79 1042 l 79 972 m 5 972 l 74 972 l 74 1042 l 5 1042 l 5 972 m 451 898 l 521 898 l 521 967 l 451 967 l 451 898 m 377 898 l 446 898 l 446 967 l 377 967 l 377 898 m 303 898 l 372 898 l 372 967 l 303 967 l 303 898 m 228 898 l 298 898 l 298 967 l 228 967 l 228 898 m 154 898 l 223 898 l 223 967 l 154 967 l 154 898 m 79 898 l 149 898 l 149 967 l 79 967 l 79 898 m 5 898 l 74 898 l 74 967 l 5 967 l 5 898 m 451 823 l 521 823 l 521 893 l 451 893 l 451 823 m 377 823 l 446 823 l 446 893 l 377 893 l 377 823 m 303 823 l 372 823 l 372 893 l 303 893 l 303 823 m 228 823 l 298 823 l 298 893 l 228 893 l 228 823 m 154 823 l 223 823 l 223 893 l 154 893 l 154 823 m 79 823 l 149 823 l 149 893 l 79 893 l 79 823 m 5 823 l 74 823 l 74 893 l 5 893 l 5 823 m 79 749 l 149 749 l 149 818 l 79 818 l 79 749 m 228 749 l 298 749 l 298 818 l 228 818 l 228 749 m 5 749 l 74 749 l 74 818 l 5 818 l 5 749 m 154 749 l 223 749 l 223 818 l 154 818 l 154 749 m 303 749 l 372 749 l 372 818 l 303 818 l 303 749 m 377 749 l 446 749 l 446 818 l 377 818 l 377 749 m 451 749 l 521 749 l 521 818 l 451 818 l 451 749 m 303 675 l 372 675 l 372 744 l 303 744 l 303 675 m 451 675 l 521 675 l 521 744 l 451 744 l 451 675 m 377 675 l 446 675 l 446 744 l 377 744 l 377 675 m 154 675 l 223 675 l 223 744 l 154 744 l 154 675 m 79 675 l 149 675 l 149 744 l 79 744 l 79 675 m 5 675 l 74 675 l 74 744 l 5 744 l 5 675 m 451 600 l 521 600 l 521 670 l 451 670 l 451 600 m 377 600 l 446 600 l 446 670 l 377 670 l 377 600 m 79 600 l 149 600 l 149 670 l 79 670 l 79 600 m 5 600 l 74 600 l 74 670 l 5 670 l 5 600 m 451 526 l 521 526 l 521 595 l 451 595 l 451 526 m 5 526 l 74 526 l 74 595 l 5 595 l 5 526 m 228 451 l 298 451 l 298 521 l 228 521 l 228 451 m 154 377 l 223 377 l 223 446 l 154 446 l 154 377 m 228 377 l 298 377 l 298 446 l 228 446 l 228 377 m 303 377 l 372 377 l 372 446 l 303 446 l 303 377 m 303 303 l 372 303 l 372 372 l 303 372 l 303 303 m 154 303 l 223 303 l 223 372 l 154 372 l 154 303 m 228 303 l 298 303 l 298 372 l 228 372 l 228 303 m 303 79 l 372 79 l 372 149 l 303 149 l 303 79 m 154 79 l 223 79 l 223 149 l 154 149 l 154 79 m 228 79 l 298 79 l 298 149 l 228 149 l 228 79 m 154 5 l 223 5 l 223 74 l 154 74 l 154 5 m 228 5 l 298 5 l 298 74 l 228 74 l 228 5 m 303 5 l 372 5 l 372 74 l 303 74 l 303 5 m 451 -69 l 521 -69 l 521 0 l 451 0 l 451 -69 m 5 -69 l 74 -69 l 74 0 l 5 0 l 5 -69 m 303 -69 l 372 -69 l 372 0 l 303 0 l 303 -69 m 79 -69 l 149 -69 l 149 0 l 79 0 l 79 -69 m 377 -69 l 446 -69 l 446 0 l 377 0 l 377 -69 m 154 -69 l 223 -69 l 223 0 l 154 0 l 154 -69 m 228 -69 l 298 -69 l 298 0 l 228 0 l 228 -69 m 5 -144 l 74 -144 l 74 -74 l 5 -74 l 5 -144 m 377 -144 l 446 -144 l 446 -74 l 377 -74 l 377 -144 m 79 -144 l 149 -144 l 149 -74 l 79 -74 l 79 -144 m 303 -144 l 372 -144 l 372 -74 l 303 -74 l 303 -144 m 154 -144 l 223 -144 l 223 -74 l 154 -74 l 154 -144 m 451 -144 l 521 -144 l 521 -74 l 451 -74 l 451 -144 m 228 -144 l 298 -144 l 298 -74 l 228 -74 l 228 -144 m 377 -218 l 446 -218 l 446 -149 l 377 -149 l 377 -218 m 5 -218 l 74 -218 l 74 -149 l 5 -149 l 5 -218 m 79 -218 l 149 -218 l 149 -149 l 79 -149 l 79 -218 m 303 -218 l 372 -218 l 372 -149 l 303 -149 l 303 -218 m 154 -218 l 223 -218 l 223 -149 l 154 -149 l 154 -218 m 451 -218 l 521 -218 l 521 -149 l 451 -149 l 451 -218 m 228 -218 l 298 -218 l 298 -149 l 228 -149 l 228 -218 m 228 -293 l 298 -293 l 298 -223 l 228 -223 l 228 -293 m 451 -293 l 521 -293 l 521 -223 l 451 -223 l 451 -293 m 303 -293 l 372 -293 l 372 -223 l 303 -223 l 303 -293 m 154 -293 l 223 -293 l 223 -223 l 154 -223 l 154 -293 m 79 -293 l 149 -293 l 149 -223 l 79 -223 l 79 -293 m 5 -293 l 74 -293 l 74 -223 l 5 -223 l 5 -293 m 377 -293 l 446 -293 l 446 -223 l 377 -223 l 377 -293 m 451 -367 l 521 -367 l 521 -298 l 451 -298 l 451 -367 m 228 -367 l 298 -367 l 298 -298 l 228 -298 l 228 -367 m 303 -367 l 372 -367 l 372 -298 l 303 -298 l 303 -367 m 5 -367 l 74 -367 l 74 -298 l 5 -298 l 5 -367 m 154 -367 l 223 -367 l 223 -298 l 154 -298 l 154 -367 m 79 -367 l 149 -367 l 149 -298 l 79 -298 l 79 -367 m 377 -367 l 446 -367 l 446 -298 l 377 -298 l 377 -367 m 377 1116 l 377 1047 l 446 1047 l 446 1116 l 377 1116 m 303 1116 l 303 1047 l 372 1047 l 372 1116 l 303 1116 m 228 1116 l 228 1047 l 298 1047 l 298 1116 l 228 1116 m 154 1116 l 154 1047 l 223 1047 l 223 1116 l 154 1116 m 79 1116 l 79 1047 l 149 1047 l 149 1116 l 79 1116 m 5 1116 l 5 1047 l 74 1047 l 74 1116 l 5 1116 m 595 1116 l 526 1116 l 526 1047 l 595 1047 l 595 1042 l 526 1042 l 526 972 l 595 972 l 595 967 l 526 967 l 526 898 l 595 898 l 595 893 l 526 893 l 526 823 l 595 823 l 595 818 l 526 818 l 526 749 l 595 749 l 595 744 l 526 744 l 526 675 l 595 675 l 595 670 l 526 670 l 526 600 l 595 600 l 595 595 l 526 595 l 526 526 l 595 526 l 595 521 l 526 521 l 526 451 l 595 451 l 595 446 l 526 446 l 526 377 l 595 377 l 595 372 l 526 372 l 526 303 l 595 303 l 595 298 l 526 298 l 526 228 l 595 228 l 595 223 l 526 223 l 526 154 l 595 154 l 595 149 l 526 149 l 526 79 l 595 79 l 595 74 l 526 74 l 526 5 l 595 5 l 595 0 l 526 0 l 526 -69 l 595 -69 l 595 -74 l 526 -74 l 526 -144 l 595 -144 l 595 -149 l 526 -149 l 526 -218 l 595 -218 l 595 -223 l 526 -223 l 526 -293 l 595 -293 l 595 -298 l 526 -298 l 526 -367 l 595 -367 l 595 -372 l 0 -372 l 0 1121 l 595 1121 l 595 1116 m 521 0 l 521 -74 l 446 -74 l 446 0 l 521 0 m 446 -74 l 446 -149 l 372 -149 l 372 -74 l 446 -74 m 446 -149 l 446 -223 l 372 -223 l 372 -149 l 446 -149 m 521 -149 l 521 -223 l 446 -223 l 446 -149 l 521 -149 m 372 -223 l 446 -223 l 446 -298 l 372 -298 l 372 -223 m 446 -223 l 521 -223 l 521 -298 l 446 -298 l 446 -223 z "},"":{"ha":595,"x_min":0,"x_max":595,"o":"m 451 1116 l 451 1047 l 521 1047 l 521 1116 l 451 1116 m 451 972 l 521 972 l 521 1042 l 451 1042 l 451 972 m 377 972 l 446 972 l 446 1042 l 377 1042 l 377 972 m 303 972 l 372 972 l 372 1042 l 303 1042 l 303 972 m 228 972 l 298 972 l 298 1042 l 228 1042 l 228 972 m 154 972 l 223 972 l 223 1042 l 154 1042 l 154 972 m 79 972 l 149 972 l 149 1042 l 79 1042 l 79 972 m 5 972 l 74 972 l 74 1042 l 5 1042 l 5 972 m 451 898 l 521 898 l 521 967 l 451 967 l 451 898 m 377 898 l 446 898 l 446 967 l 377 967 l 377 898 m 303 898 l 372 898 l 372 967 l 303 967 l 303 898 m 228 898 l 298 898 l 298 967 l 228 967 l 228 898 m 154 898 l 223 898 l 223 967 l 154 967 l 154 898 m 79 898 l 149 898 l 149 967 l 79 967 l 79 898 m 5 898 l 74 898 l 74 967 l 5 967 l 5 898 m 451 823 l 521 823 l 521 893 l 451 893 l 451 823 m 377 823 l 446 823 l 446 893 l 377 893 l 377 823 m 303 823 l 372 823 l 372 893 l 303 893 l 303 823 m 228 823 l 298 823 l 298 893 l 228 893 l 228 823 m 154 823 l 223 823 l 223 893 l 154 893 l 154 823 m 79 823 l 149 823 l 149 893 l 79 893 l 79 823 m 5 823 l 74 823 l 74 893 l 5 893 l 5 823 m 79 749 l 149 749 l 149 818 l 79 818 l 79 749 m 228 749 l 298 749 l 298 818 l 228 818 l 228 749 m 5 749 l 74 749 l 74 818 l 5 818 l 5 749 m 154 749 l 223 749 l 223 818 l 154 818 l 154 749 m 303 749 l 372 749 l 372 818 l 303 818 l 303 749 m 377 749 l 446 749 l 446 818 l 377 818 l 377 749 m 451 749 l 521 749 l 521 818 l 451 818 l 451 749 m 303 675 l 372 675 l 372 744 l 303 744 l 303 675 m 451 675 l 521 675 l 521 744 l 451 744 l 451 675 m 377 675 l 446 675 l 446 744 l 377 744 l 377 675 m 154 675 l 223 675 l 223 744 l 154 744 l 154 675 m 79 675 l 149 675 l 149 744 l 79 744 l 79 675 m 5 675 l 74 675 l 74 744 l 5 744 l 5 675 m 451 600 l 521 600 l 521 670 l 451 670 l 451 600 m 377 600 l 446 600 l 446 670 l 377 670 l 377 600 m 79 600 l 149 600 l 149 670 l 79 670 l 79 600 m 5 600 l 74 600 l 74 670 l 5 670 l 5 600 m 451 526 l 521 526 l 521 595 l 451 595 l 451 526 m 5 526 l 74 526 l 74 595 l 5 595 l 5 526 m 228 451 l 298 451 l 298 521 l 228 521 l 228 451 m 154 377 l 223 377 l 223 446 l 154 446 l 154 377 m 228 377 l 298 377 l 298 446 l 228 446 l 228 377 m 303 377 l 372 377 l 372 446 l 303 446 l 303 377 m 303 303 l 372 303 l 372 372 l 303 372 l 303 303 m 154 303 l 223 303 l 223 372 l 154 372 l 154 303 m 228 303 l 298 303 l 298 372 l 228 372 l 228 303 m 303 79 l 372 79 l 372 149 l 303 149 l 303 79 m 154 79 l 223 79 l 223 149 l 154 149 l 154 79 m 228 79 l 298 79 l 298 149 l 228 149 l 228 79 m 154 5 l 223 5 l 223 74 l 154 74 l 154 5 m 228 5 l 298 5 l 298 74 l 228 74 l 228 5 m 303 5 l 372 5 l 372 74 l 303 74 l 303 5 m 451 -69 l 521 -69 l 521 0 l 451 0 l 451 -69 m 5 -69 l 74 -69 l 74 0 l 5 0 l 5 -69 m 303 -69 l 372 -69 l 372 0 l 303 0 l 303 -69 m 79 -69 l 149 -69 l 149 0 l 79 0 l 79 -69 m 377 -69 l 446 -69 l 446 0 l 377 0 l 377 -69 m 154 -69 l 223 -69 l 223 0 l 154 0 l 154 -69 m 228 -69 l 298 -69 l 298 0 l 228 0 l 228 -69 m 5 -144 l 74 -144 l 74 -74 l 5 -74 l 5 -144 m 377 -144 l 446 -144 l 446 -74 l 377 -74 l 377 -144 m 79 -144 l 149 -144 l 149 -74 l 79 -74 l 79 -144 m 303 -144 l 372 -144 l 372 -74 l 303 -74 l 303 -144 m 154 -144 l 223 -144 l 223 -74 l 154 -74 l 154 -144 m 451 -144 l 521 -144 l 521 -74 l 451 -74 l 451 -144 m 228 -144 l 298 -144 l 298 -74 l 228 -74 l 228 -144 m 377 -218 l 446 -218 l 446 -149 l 377 -149 l 377 -218 m 5 -218 l 74 -218 l 74 -149 l 5 -149 l 5 -218 m 79 -218 l 149 -218 l 149 -149 l 79 -149 l 79 -218 m 303 -218 l 372 -218 l 372 -149 l 303 -149 l 303 -218 m 154 -218 l 223 -218 l 223 -149 l 154 -149 l 154 -218 m 451 -218 l 521 -218 l 521 -149 l 451 -149 l 451 -218 m 228 -218 l 298 -218 l 298 -149 l 228 -149 l 228 -218 m 228 -293 l 298 -293 l 298 -223 l 228 -223 l 228 -293 m 451 -293 l 521 -293 l 521 -223 l 451 -223 l 451 -293 m 303 -293 l 372 -293 l 372 -223 l 303 -223 l 303 -293 m 154 -293 l 223 -293 l 223 -223 l 154 -223 l 154 -293 m 79 -293 l 149 -293 l 149 -223 l 79 -223 l 79 -293 m 5 -293 l 74 -293 l 74 -223 l 5 -223 l 5 -293 m 377 -293 l 446 -293 l 446 -223 l 377 -223 l 377 -293 m 451 -367 l 521 -367 l 521 -298 l 451 -298 l 451 -367 m 228 -367 l 298 -367 l 298 -298 l 228 -298 l 228 -367 m 303 -367 l 372 -367 l 372 -298 l 303 -298 l 303 -367 m 5 -367 l 74 -367 l 74 -298 l 5 -298 l 5 -367 m 154 -367 l 223 -367 l 223 -298 l 154 -298 l 154 -367 m 79 -367 l 149 -367 l 149 -298 l 79 -298 l 79 -367 m 377 -367 l 446 -367 l 446 -298 l 377 -298 l 377 -367 m 377 1116 l 377 1047 l 446 1047 l 446 1116 l 377 1116 m 303 1116 l 303 1047 l 372 1047 l 372 1116 l 303 1116 m 228 1116 l 228 1047 l 298 1047 l 298 1116 l 228 1116 m 154 1116 l 154 1047 l 223 1047 l 223 1116 l 154 1116 m 79 1116 l 79 1047 l 149 1047 l 149 1116 l 79 1116 m 5 1116 l 5 1047 l 74 1047 l 74 1116 l 5 1116 m 595 1116 l 526 1116 l 526 1047 l 595 1047 l 595 1042 l 526 1042 l 526 972 l 595 972 l 595 967 l 526 967 l 526 898 l 595 898 l 595 893 l 526 893 l 526 823 l 595 823 l 595 818 l 526 818 l 526 749 l 595 749 l 595 744 l 526 744 l 526 675 l 595 675 l 595 670 l 526 670 l 526 600 l 595 600 l 595 595 l 526 595 l 526 526 l 595 526 l 595 521 l 526 521 l 526 451 l 595 451 l 595 446 l 526 446 l 526 377 l 595 377 l 595 372 l 526 372 l 526 303 l 595 303 l 595 298 l 526 298 l 526 228 l 595 228 l 595 223 l 526 223 l 526 154 l 595 154 l 595 149 l 526 149 l 526 79 l 595 79 l 595 74 l 526 74 l 526 5 l 595 5 l 595 0 l 526 0 l 526 -69 l 595 -69 l 595 -74 l 526 -74 l 526 -144 l 595 -144 l 595 -149 l 526 -149 l 526 -218 l 595 -218 l 595 -223 l 526 -223 l 526 -293 l 595 -293 l 595 -298 l 526 -298 l 526 -367 l 595 -367 l 595 -372 l 0 -372 l 0 1121 l 595 1121 l 595 1116 m 149 893 l 223 893 l 223 818 l 149 818 l 149 893 m 223 893 l 298 893 l 298 818 l 223 818 l 223 893 m 223 1042 l 298 1042 l 298 967 l 223 967 l 223 1042 m 149 1042 l 223 1042 l 223 967 l 149 967 l 149 1042 m 298 1042 l 372 1042 l 372 967 l 298 967 l 298 1042 m 298 967 l 372 967 l 372 893 l 298 893 l 298 967 m 298 893 l 372 893 l 372 818 l 298 818 l 298 893 m 149 967 l 223 967 l 223 893 l 149 893 l 149 967 z "},"":{"ha":595,"x_min":0,"x_max":595,"o":"m 451 1116 l 451 1047 l 521 1047 l 521 1116 l 451 1116 m 451 972 l 521 972 l 521 1042 l 451 1042 l 451 972 m 377 972 l 446 972 l 446 1042 l 377 1042 l 377 972 m 303 972 l 372 972 l 372 1042 l 303 1042 l 303 972 m 228 972 l 298 972 l 298 1042 l 228 1042 l 228 972 m 154 972 l 223 972 l 223 1042 l 154 1042 l 154 972 m 79 972 l 149 972 l 149 1042 l 79 1042 l 79 972 m 5 972 l 74 972 l 74 1042 l 5 1042 l 5 972 m 451 898 l 521 898 l 521 967 l 451 967 l 451 898 m 377 898 l 446 898 l 446 967 l 377 967 l 377 898 m 303 898 l 372 898 l 372 967 l 303 967 l 303 898 m 228 898 l 298 898 l 298 967 l 228 967 l 228 898 m 154 898 l 223 898 l 223 967 l 154 967 l 154 898 m 79 898 l 149 898 l 149 967 l 79 967 l 79 898 m 5 898 l 74 898 l 74 967 l 5 967 l 5 898 m 451 823 l 521 823 l 521 893 l 451 893 l 451 823 m 377 823 l 446 823 l 446 893 l 377 893 l 377 823 m 303 823 l 372 823 l 372 893 l 303 893 l 303 823 m 228 823 l 298 823 l 298 893 l 228 893 l 228 823 m 154 823 l 223 823 l 223 893 l 154 893 l 154 823 m 79 823 l 149 823 l 149 893 l 79 893 l 79 823 m 5 823 l 74 823 l 74 893 l 5 893 l 5 823 m 79 749 l 149 749 l 149 818 l 79 818 l 79 749 m 228 749 l 298 749 l 298 818 l 228 818 l 228 749 m 5 749 l 74 749 l 74 818 l 5 818 l 5 749 m 154 749 l 223 749 l 223 818 l 154 818 l 154 749 m 303 749 l 372 749 l 372 818 l 303 818 l 303 749 m 377 749 l 446 749 l 446 818 l 377 818 l 377 749 m 451 749 l 521 749 l 521 818 l 451 818 l 451 749 m 303 675 l 372 675 l 372 744 l 303 744 l 303 675 m 451 675 l 521 675 l 521 744 l 451 744 l 451 675 m 377 675 l 446 675 l 446 744 l 377 744 l 377 675 m 154 675 l 223 675 l 223 744 l 154 744 l 154 675 m 79 675 l 149 675 l 149 744 l 79 744 l 79 675 m 5 675 l 74 675 l 74 744 l 5 744 l 5 675 m 451 600 l 521 600 l 521 670 l 451 670 l 451 600 m 377 600 l 446 600 l 446 670 l 377 670 l 377 600 m 79 600 l 149 600 l 149 670 l 79 670 l 79 600 m 5 600 l 74 600 l 74 670 l 5 670 l 5 600 m 451 526 l 521 526 l 521 595 l 451 595 l 451 526 m 5 526 l 74 526 l 74 595 l 5 595 l 5 526 m 228 451 l 298 451 l 298 521 l 228 521 l 228 451 m 154 377 l 223 377 l 223 446 l 154 446 l 154 377 m 228 377 l 298 377 l 298 446 l 228 446 l 228 377 m 303 377 l 372 377 l 372 446 l 303 446 l 303 377 m 303 303 l 372 303 l 372 372 l 303 372 l 303 303 m 154 303 l 223 303 l 223 372 l 154 372 l 154 303 m 228 303 l 298 303 l 298 372 l 228 372 l 228 303 m 303 79 l 372 79 l 372 149 l 303 149 l 303 79 m 154 79 l 223 79 l 223 149 l 154 149 l 154 79 m 228 79 l 298 79 l 298 149 l 228 149 l 228 79 m 154 5 l 223 5 l 223 74 l 154 74 l 154 5 m 228 5 l 298 5 l 298 74 l 228 74 l 228 5 m 303 5 l 372 5 l 372 74 l 303 74 l 303 5 m 451 -69 l 521 -69 l 521 0 l 451 0 l 451 -69 m 5 -69 l 74 -69 l 74 0 l 5 0 l 5 -69 m 303 -69 l 372 -69 l 372 0 l 303 0 l 303 -69 m 79 -69 l 149 -69 l 149 0 l 79 0 l 79 -69 m 377 -69 l 446 -69 l 446 0 l 377 0 l 377 -69 m 154 -69 l 223 -69 l 223 0 l 154 0 l 154 -69 m 228 -69 l 298 -69 l 298 0 l 228 0 l 228 -69 m 5 -144 l 74 -144 l 74 -74 l 5 -74 l 5 -144 m 377 -144 l 446 -144 l 446 -74 l 377 -74 l 377 -144 m 79 -144 l 149 -144 l 149 -74 l 79 -74 l 79 -144 m 303 -144 l 372 -144 l 372 -74 l 303 -74 l 303 -144 m 154 -144 l 223 -144 l 223 -74 l 154 -74 l 154 -144 m 451 -144 l 521 -144 l 521 -74 l 451 -74 l 451 -144 m 228 -144 l 298 -144 l 298 -74 l 228 -74 l 228 -144 m 377 -218 l 446 -218 l 446 -149 l 377 -149 l 377 -218 m 5 -218 l 74 -218 l 74 -149 l 5 -149 l 5 -218 m 79 -218 l 149 -218 l 149 -149 l 79 -149 l 79 -218 m 303 -218 l 372 -218 l 372 -149 l 303 -149 l 303 -218 m 154 -218 l 223 -218 l 223 -149 l 154 -149 l 154 -218 m 451 -218 l 521 -218 l 521 -149 l 451 -149 l 451 -218 m 228 -218 l 298 -218 l 298 -149 l 228 -149 l 228 -218 m 228 -293 l 298 -293 l 298 -223 l 228 -223 l 228 -293 m 451 -293 l 521 -293 l 521 -223 l 451 -223 l 451 -293 m 303 -293 l 372 -293 l 372 -223 l 303 -223 l 303 -293 m 154 -293 l 223 -293 l 223 -223 l 154 -223 l 154 -293 m 79 -293 l 149 -293 l 149 -223 l 79 -223 l 79 -293 m 5 -293 l 74 -293 l 74 -223 l 5 -223 l 5 -293 m 377 -293 l 446 -293 l 446 -223 l 377 -223 l 377 -293 m 451 -367 l 521 -367 l 521 -298 l 451 -298 l 451 -367 m 228 -367 l 298 -367 l 298 -298 l 228 -298 l 228 -367 m 303 -367 l 372 -367 l 372 -298 l 303 -298 l 303 -367 m 5 -367 l 74 -367 l 74 -298 l 5 -298 l 5 -367 m 154 -367 l 223 -367 l 223 -298 l 154 -298 l 154 -367 m 79 -367 l 149 -367 l 149 -298 l 79 -298 l 79 -367 m 377 -367 l 446 -367 l 446 -298 l 377 -298 l 377 -367 m 377 1116 l 377 1047 l 446 1047 l 446 1116 l 377 1116 m 303 1116 l 303 1047 l 372 1047 l 372 1116 l 303 1116 m 228 1116 l 228 1047 l 298 1047 l 298 1116 l 228 1116 m 154 1116 l 154 1047 l 223 1047 l 223 1116 l 154 1116 m 79 1116 l 79 1047 l 149 1047 l 149 1116 l 79 1116 m 5 1116 l 5 1047 l 74 1047 l 74 1116 l 5 1116 m 595 1116 l 526 1116 l 526 1047 l 595 1047 l 595 1042 l 526 1042 l 526 972 l 595 972 l 595 967 l 526 967 l 526 898 l 595 898 l 595 893 l 526 893 l 526 823 l 595 823 l 595 818 l 526 818 l 526 749 l 595 749 l 595 744 l 526 744 l 526 675 l 595 675 l 595 670 l 526 670 l 526 600 l 595 600 l 595 595 l 526 595 l 526 526 l 595 526 l 595 521 l 526 521 l 526 451 l 595 451 l 595 446 l 526 446 l 526 377 l 595 377 l 595 372 l 526 372 l 526 303 l 595 303 l 595 298 l 526 298 l 526 228 l 595 228 l 595 223 l 526 223 l 526 154 l 595 154 l 595 149 l 526 149 l 526 79 l 595 79 l 595 74 l 526 74 l 526 5 l 595 5 l 595 0 l 526 0 l 526 -69 l 595 -69 l 595 -74 l 526 -74 l 526 -144 l 595 -144 l 595 -149 l 526 -149 l 526 -218 l 595 -218 l 595 -223 l 526 -223 l 526 -293 l 595 -293 l 595 -298 l 526 -298 l 526 -367 l 595 -367 l 595 -372 l 0 -372 l 0 1121 l 595 1121 l 595 1116 m 223 967 l 298 967 l 298 893 l 223 893 l 223 967 m 74 1042 l 149 1042 l 149 967 l 74 967 l 74 1042 m 149 1042 l 223 1042 l 223 967 l 149 967 l 149 1042 m 298 967 l 372 967 l 372 893 l 298 893 l 298 967 m 372 967 l 446 967 l 446 893 l 372 893 l 372 967 m 372 1042 l 446 1042 l 446 967 l 372 967 l 372 1042 m 298 893 l 372 893 l 372 818 l 298 818 l 298 893 m 223 1042 l 298 1042 l 298 967 l 223 967 l 223 1042 m 149 1116 l 223 1116 l 223 1042 l 149 1042 l 149 1116 m 74 967 l 149 967 l 149 893 l 74 893 l 74 967 z "},"":{"ha":967,"x_min":0,"x_max":967,"o":"m 823 1116 l 823 1047 l 893 1047 l 893 1116 l 823 1116 m 5 972 l 74 972 l 74 1042 l 5 1042 l 5 972 m 823 972 l 893 972 l 893 1042 l 823 1042 l 823 972 m 600 972 l 670 972 l 670 1042 l 600 1042 l 600 972 m 675 972 l 744 972 l 744 1042 l 675 1042 l 675 972 m 749 972 l 818 972 l 818 1042 l 749 1042 l 749 972 m 526 972 l 595 972 l 595 1042 l 526 1042 l 526 972 m 303 972 l 372 972 l 372 1042 l 303 1042 l 303 972 m 377 972 l 446 972 l 446 1042 l 377 1042 l 377 972 m 228 972 l 298 972 l 298 1042 l 228 1042 l 228 972 m 451 972 l 521 972 l 521 1042 l 451 1042 l 451 972 m 79 972 l 149 972 l 149 1042 l 79 1042 l 79 972 m 154 972 l 223 972 l 223 1042 l 154 1042 l 154 972 m 526 898 l 595 898 l 595 967 l 526 967 l 526 898 m 154 898 l 223 898 l 223 967 l 154 967 l 154 898 m 228 898 l 298 898 l 298 967 l 228 967 l 228 898 m 303 898 l 372 898 l 372 967 l 303 967 l 303 898 m 79 898 l 149 898 l 149 967 l 79 967 l 79 898 m 451 898 l 521 898 l 521 967 l 451 967 l 451 898 m 377 898 l 446 898 l 446 967 l 377 967 l 377 898 m 823 898 l 893 898 l 893 967 l 823 967 l 823 898 m 5 898 l 74 898 l 74 967 l 5 967 l 5 898 m 749 898 l 818 898 l 818 967 l 749 967 l 749 898 m 600 898 l 670 898 l 670 967 l 600 967 l 600 898 m 675 898 l 744 898 l 744 967 l 675 967 l 675 898 m 228 823 l 298 823 l 298 893 l 228 893 l 228 823 m 303 823 l 372 823 l 372 893 l 303 893 l 303 823 m 600 823 l 670 823 l 670 893 l 600 893 l 600 823 m 154 823 l 223 823 l 223 893 l 154 893 l 154 823 m 377 823 l 446 823 l 446 893 l 377 893 l 377 823 m 79 823 l 149 823 l 149 893 l 79 893 l 79 823 m 823 823 l 893 823 l 893 893 l 823 893 l 823 823 m 526 823 l 595 823 l 595 893 l 526 893 l 526 823 m 749 823 l 818 823 l 818 893 l 749 893 l 749 823 m 5 823 l 74 823 l 74 893 l 5 893 l 5 823 m 451 823 l 521 823 l 521 893 l 451 893 l 451 823 m 675 823 l 744 823 l 744 893 l 675 893 l 675 823 m 749 749 l 818 749 l 818 818 l 749 818 l 749 749 m 823 749 l 893 749 l 893 818 l 823 818 l 823 749 m 5 749 l 74 749 l 74 818 l 5 818 l 5 749 m 526 749 l 595 749 l 595 818 l 526 818 l 526 749 m 451 749 l 521 749 l 521 818 l 451 818 l 451 749 m 675 749 l 744 749 l 744 818 l 675 818 l 675 749 m 377 749 l 446 749 l 446 818 l 377 818 l 377 749 m 303 749 l 372 749 l 372 818 l 303 818 l 303 749 m 228 749 l 298 749 l 298 818 l 228 818 l 228 749 m 154 749 l 223 749 l 223 818 l 154 818 l 154 749 m 79 749 l 149 749 l 149 818 l 79 818 l 79 749 m 600 749 l 670 749 l 670 818 l 600 818 l 600 749 m 5 675 l 74 675 l 74 744 l 5 744 l 5 675 m 79 675 l 149 675 l 149 744 l 79 744 l 79 675 m 154 675 l 223 675 l 223 744 l 154 744 l 154 675 m 303 675 l 372 675 l 372 744 l 303 744 l 303 675 m 377 675 l 446 675 l 446 744 l 377 744 l 377 675 m 5 600 l 74 600 l 74 670 l 5 670 l 5 600 m 79 600 l 149 600 l 149 670 l 79 670 l 79 600 m 377 600 l 446 600 l 446 670 l 377 670 l 377 600 m 675 526 l 744 526 l 744 595 l 675 595 l 675 526 m 600 526 l 670 526 l 670 595 l 600 595 l 600 526 m 749 526 l 818 526 l 818 595 l 749 595 l 749 526 m 823 526 l 893 526 l 893 595 l 823 595 l 823 526 m 5 526 l 74 526 l 74 595 l 5 595 l 5 526 m 600 451 l 670 451 l 670 521 l 600 521 l 600 451 m 675 451 l 744 451 l 744 521 l 675 521 l 675 451 m 749 451 l 818 451 l 818 521 l 749 521 l 749 451 m 823 451 l 893 451 l 893 521 l 823 521 l 823 451 m 228 451 l 298 451 l 298 521 l 228 521 l 228 451 m 228 377 l 298 377 l 298 446 l 228 446 l 228 377 m 823 377 l 893 377 l 893 446 l 823 446 l 823 377 m 154 377 l 223 377 l 223 446 l 154 446 l 154 377 m 303 377 l 372 377 l 372 446 l 303 446 l 303 377 m 154 303 l 223 303 l 223 372 l 154 372 l 154 303 m 303 303 l 372 303 l 372 372 l 303 372 l 303 303 m 823 303 l 893 303 l 893 372 l 823 372 l 823 303 m 228 303 l 298 303 l 298 372 l 228 372 l 228 303 m 823 228 l 893 228 l 893 298 l 823 298 l 823 228 m 600 228 l 670 228 l 670 298 l 600 298 l 600 228 m 749 228 l 818 228 l 818 298 l 749 298 l 749 228 m 675 228 l 744 228 l 744 298 l 675 298 l 675 228 m 675 154 l 744 154 l 744 223 l 675 223 l 675 154 m 749 154 l 818 154 l 818 223 l 749 223 l 749 154 m 600 154 l 670 154 l 670 223 l 600 223 l 600 154 m 823 154 l 893 154 l 893 223 l 823 223 l 823 154 m 154 79 l 223 79 l 223 149 l 154 149 l 154 79 m 303 79 l 372 79 l 372 149 l 303 149 l 303 79 m 228 79 l 298 79 l 298 149 l 228 149 l 228 79 m 228 5 l 298 5 l 298 74 l 228 74 l 228 5 m 303 5 l 372 5 l 372 74 l 303 74 l 303 5 m 154 5 l 223 5 l 223 74 l 154 74 l 154 5 m 600 -69 l 670 -69 l 670 0 l 600 0 l 600 -69 m 154 -69 l 223 -69 l 223 0 l 154 0 l 154 -69 m 675 -69 l 744 -69 l 744 0 l 675 0 l 675 -69 m 526 -69 l 595 -69 l 595 0 l 526 0 l 526 -69 m 749 -69 l 818 -69 l 818 0 l 749 0 l 749 -69 m 451 -69 l 521 -69 l 521 0 l 451 0 l 451 -69 m 228 -69 l 298 -69 l 298 0 l 228 0 l 228 -69 m 377 -69 l 446 -69 l 446 0 l 377 0 l 377 -69 m 823 -69 l 893 -69 l 893 0 l 823 0 l 823 -69 m 303 -69 l 372 -69 l 372 0 l 303 0 l 303 -69 m 79 -69 l 149 -69 l 149 0 l 79 0 l 79 -69 m 5 -69 l 74 -69 l 74 0 l 5 0 l 5 -69 m 79 -144 l 149 -144 l 149 -74 l 79 -74 l 79 -144 m 228 -144 l 298 -144 l 298 -74 l 228 -74 l 228 -144 m 823 -144 l 893 -144 l 893 -74 l 823 -74 l 823 -144 m 303 -144 l 372 -144 l 372 -74 l 303 -74 l 303 -144 m 749 -144 l 818 -144 l 818 -74 l 749 -74 l 749 -144 m 675 -144 l 744 -144 l 744 -74 l 675 -74 l 675 -144 m 5 -144 l 74 -144 l 74 -74 l 5 -74 l 5 -144 m 154 -144 l 223 -144 l 223 -74 l 154 -74 l 154 -144 m 600 -144 l 670 -144 l 670 -74 l 600 -74 l 600 -144 m 377 -144 l 446 -144 l 446 -74 l 377 -74 l 377 -144 m 526 -144 l 595 -144 l 595 -74 l 526 -74 l 526 -144 m 451 -144 l 521 -144 l 521 -74 l 451 -74 l 451 -144 m 823 -218 l 893 -218 l 893 -149 l 823 -149 l 823 -218 m 303 -218 l 372 -218 l 372 -149 l 303 -149 l 303 -218 m 749 -218 l 818 -218 l 818 -149 l 749 -149 l 749 -218 m 154 -218 l 223 -218 l 223 -149 l 154 -149 l 154 -218 m 5 -218 l 74 -218 l 74 -149 l 5 -149 l 5 -218 m 228 -218 l 298 -218 l 298 -149 l 228 -149 l 228 -218 m 675 -218 l 744 -218 l 744 -149 l 675 -149 l 675 -218 m 79 -218 l 149 -218 l 149 -149 l 79 -149 l 79 -218 m 377 -218 l 446 -218 l 446 -149 l 377 -149 l 377 -218 m 600 -218 l 670 -218 l 670 -149 l 600 -149 l 600 -218 m 451 -218 l 521 -218 l 521 -149 l 451 -149 l 451 -218 m 526 -218 l 595 -218 l 595 -149 l 526 -149 l 526 -218 m 526 -293 l 595 -293 l 595 -223 l 526 -223 l 526 -293 m 451 -293 l 521 -293 l 521 -223 l 451 -223 l 451 -293 m 600 -293 l 670 -293 l 670 -223 l 600 -223 l 600 -293 m 377 -293 l 446 -293 l 446 -223 l 377 -223 l 377 -293 m 79 -293 l 149 -293 l 149 -223 l 79 -223 l 79 -293 m 675 -293 l 744 -293 l 744 -223 l 675 -223 l 675 -293 m 5 -293 l 74 -293 l 74 -223 l 5 -223 l 5 -293 m 154 -293 l 223 -293 l 223 -223 l 154 -223 l 154 -293 m 749 -293 l 818 -293 l 818 -223 l 749 -223 l 749 -293 m 228 -293 l 298 -293 l 298 -223 l 228 -223 l 228 -293 m 303 -293 l 372 -293 l 372 -223 l 303 -223 l 303 -293 m 823 -293 l 893 -293 l 893 -223 l 823 -223 l 823 -293 m 526 -367 l 595 -367 l 595 -298 l 526 -298 l 526 -367 m 600 -367 l 670 -367 l 670 -298 l 600 -298 l 600 -367 m 451 -367 l 521 -367 l 521 -298 l 451 -298 l 451 -367 m 377 -367 l 446 -367 l 446 -298 l 377 -298 l 377 -367 m 675 -367 l 744 -367 l 744 -298 l 675 -298 l 675 -367 m 79 -367 l 149 -367 l 149 -298 l 79 -298 l 79 -367 m 5 -367 l 74 -367 l 74 -298 l 5 -298 l 5 -367 m 154 -367 l 223 -367 l 223 -298 l 154 -298 l 154 -367 m 749 -367 l 818 -367 l 818 -298 l 749 -298 l 749 -367 m 228 -367 l 298 -367 l 298 -298 l 228 -298 l 228 -367 m 303 -367 l 372 -367 l 372 -298 l 303 -298 l 303 -367 m 823 -367 l 893 -367 l 893 -298 l 823 -298 l 823 -367 m 749 1116 l 749 1047 l 818 1047 l 818 1116 l 749 1116 m 675 1116 l 675 1047 l 744 1047 l 744 1116 l 675 1116 m 600 1116 l 600 1047 l 670 1047 l 670 1116 l 600 1116 m 526 1116 l 526 1047 l 595 1047 l 595 1116 l 526 1116 m 451 1116 l 451 1047 l 521 1047 l 521 1116 l 451 1116 m 377 1116 l 377 1047 l 446 1047 l 446 1116 l 377 1116 m 303 1116 l 303 1047 l 372 1047 l 372 1116 l 303 1116 m 228 1116 l 228 1047 l 298 1047 l 298 1116 l 228 1116 m 154 1116 l 154 1047 l 223 1047 l 223 1116 l 154 1116 m 79 1116 l 79 1047 l 149 1047 l 149 1116 l 79 1116 m 5 1116 l 5 1047 l 74 1047 l 74 1116 l 5 1116 m 967 1116 l 898 1116 l 898 1047 l 967 1047 l 967 1042 l 898 1042 l 898 972 l 967 972 l 967 967 l 898 967 l 898 898 l 967 898 l 967 893 l 898 893 l 898 823 l 967 823 l 967 818 l 898 818 l 898 749 l 967 749 l 967 744 l 898 744 l 898 675 l 967 675 l 967 670 l 898 670 l 898 600 l 967 600 l 967 595 l 898 595 l 898 526 l 967 526 l 967 521 l 898 521 l 898 451 l 967 451 l 967 446 l 898 446 l 898 377 l 967 377 l 967 372 l 898 372 l 898 303 l 967 303 l 967 298 l 898 298 l 898 228 l 967 228 l 967 223 l 898 223 l 898 154 l 967 154 l 967 149 l 898 149 l 898 79 l 967 79 l 967 74 l 898 74 l 898 5 l 967 5 l 967 0 l 898 0 l 898 -69 l 967 -69 l 967 -74 l 898 -74 l 898 -144 l 967 -144 l 967 -149 l 898 -149 l 898 -218 l 967 -218 l 967 -223 l 898 -223 l 898 -293 l 967 -293 l 967 -298 l 898 -298 l 898 -367 l 967 -367 l 967 -372 l 0 -372 l 0 1121 l 967 1121 l 967 1116 z "},"B":{"ha":595,"x_min":0,"x_max":595,"o":"m 451 1116 l 451 1047 l 521 1047 l 521 1116 l 451 1116 m 79 972 l 149 972 l 149 1042 l 79 1042 l 79 972 m 154 972 l 223 972 l 223 1042 l 154 1042 l 154 972 m 451 972 l 521 972 l 521 1042 l 451 1042 l 451 972 m 377 972 l 446 972 l 446 1042 l 377 1042 l 377 972 m 5 972 l 74 972 l 74 1042 l 5 1042 l 5 972 m 303 972 l 372 972 l 372 1042 l 303 1042 l 303 972 m 228 972 l 298 972 l 298 1042 l 228 1042 l 228 972 m 154 898 l 223 898 l 223 967 l 154 967 l 154 898 m 79 898 l 149 898 l 149 967 l 79 967 l 79 898 m 5 898 l 74 898 l 74 967 l 5 967 l 5 898 m 228 898 l 298 898 l 298 967 l 228 967 l 228 898 m 451 898 l 521 898 l 521 967 l 451 967 l 451 898 m 377 898 l 446 898 l 446 967 l 377 967 l 377 898 m 303 898 l 372 898 l 372 967 l 303 967 l 303 898 m 377 823 l 446 823 l 446 893 l 377 893 l 377 823 m 451 823 l 521 823 l 521 893 l 451 893 l 451 823 m 303 823 l 372 823 l 372 893 l 303 893 l 303 823 m 79 823 l 149 823 l 149 893 l 79 893 l 79 823 m 228 823 l 298 823 l 298 893 l 228 893 l 228 823 m 5 823 l 74 823 l 74 893 l 5 893 l 5 823 m 154 823 l 223 823 l 223 893 l 154 893 l 154 823 m 451 749 l 521 749 l 521 818 l 451 818 l 451 749 m 377 749 l 446 749 l 446 818 l 377 818 l 377 749 m 154 749 l 223 749 l 223 818 l 154 818 l 154 749 m 79 749 l 149 749 l 149 818 l 79 818 l 79 749 m 303 749 l 372 749 l 372 818 l 303 818 l 303 749 m 5 749 l 74 749 l 74 818 l 5 818 l 5 749 m 228 749 l 298 749 l 298 818 l 228 818 l 228 749 m 451 675 l 521 675 l 521 744 l 451 744 l 451 675 m 228 526 l 298 526 l 298 595 l 228 595 l 228 526 m 154 526 l 223 526 l 223 595 l 154 595 l 154 526 m 303 526 l 372 526 l 372 595 l 303 595 l 303 526 m 303 451 l 372 451 l 372 521 l 303 521 l 303 451 m 154 451 l 223 451 l 223 521 l 154 521 l 154 451 m 228 451 l 298 451 l 298 521 l 228 521 l 228 451 m 451 377 l 521 377 l 521 446 l 451 446 l 451 377 m 228 228 l 298 228 l 298 298 l 228 298 l 228 228 m 303 228 l 372 228 l 372 298 l 303 298 l 303 228 m 154 228 l 223 228 l 223 298 l 154 298 l 154 228 m 303 154 l 372 154 l 372 223 l 303 223 l 303 154 m 154 154 l 223 154 l 223 223 l 154 223 l 154 154 m 228 154 l 298 154 l 298 223 l 228 223 l 228 154 m 451 5 l 521 5 l 521 74 l 451 74 l 451 5 m 154 -69 l 223 -69 l 223 0 l 154 0 l 154 -69 m 451 -69 l 521 -69 l 521 0 l 451 0 l 451 -69 m 228 -69 l 298 -69 l 298 0 l 228 0 l 228 -69 m 79 -69 l 149 -69 l 149 0 l 79 0 l 79 -69 m 303 -69 l 372 -69 l 372 0 l 303 0 l 303 -69 m 377 -69 l 446 -69 l 446 0 l 377 0 l 377 -69 m 5 -69 l 74 -69 l 74 0 l 5 0 l 5 -69 m 154 -144 l 223 -144 l 223 -74 l 154 -74 l 154 -144 m 451 -144 l 521 -144 l 521 -74 l 451 -74 l 451 -144 m 228 -144 l 298 -144 l 298 -74 l 228 -74 l 228 -144 m 79 -144 l 149 -144 l 149 -74 l 79 -74 l 79 -144 m 377 -144 l 446 -144 l 446 -74 l 377 -74 l 377 -144 m 303 -144 l 372 -144 l 372 -74 l 303 -74 l 303 -144 m 5 -144 l 74 -144 l 74 -74 l 5 -74 l 5 -144 m 451 -218 l 521 -218 l 521 -149 l 451 -149 l 451 -218 m 154 -218 l 223 -218 l 223 -149 l 154 -149 l 154 -218 m 5 -218 l 74 -218 l 74 -149 l 5 -149 l 5 -218 m 228 -218 l 298 -218 l 298 -149 l 228 -149 l 228 -218 m 303 -218 l 372 -218 l 372 -149 l 303 -149 l 303 -218 m 79 -218 l 149 -218 l 149 -149 l 79 -149 l 79 -218 m 377 -218 l 446 -218 l 446 -149 l 377 -149 l 377 -218 m 377 -293 l 446 -293 l 446 -223 l 377 -223 l 377 -293 m 79 -293 l 149 -293 l 149 -223 l 79 -223 l 79 -293 m 303 -293 l 372 -293 l 372 -223 l 303 -223 l 303 -293 m 228 -293 l 298 -293 l 298 -223 l 228 -223 l 228 -293 m 154 -293 l 223 -293 l 223 -223 l 154 -223 l 154 -293 m 5 -293 l 74 -293 l 74 -223 l 5 -223 l 5 -293 m 451 -293 l 521 -293 l 521 -223 l 451 -223 l 451 -293 m 377 -367 l 446 -367 l 446 -298 l 377 -298 l 377 -367 m 79 -367 l 149 -367 l 149 -298 l 79 -298 l 79 -367 m 228 -367 l 298 -367 l 298 -298 l 228 -298 l 228 -367 m 154 -367 l 223 -367 l 223 -298 l 154 -298 l 154 -367 m 451 -367 l 521 -367 l 521 -298 l 451 -298 l 451 -367 m 5 -367 l 74 -367 l 74 -298 l 5 -298 l 5 -367 m 303 -367 l 372 -367 l 372 -298 l 303 -298 l 303 -367 m 377 1116 l 377 1047 l 446 1047 l 446 1116 l 377 1116 m 303 1116 l 303 1047 l 372 1047 l 372 1116 l 303 1116 m 228 1116 l 228 1047 l 298 1047 l 298 1116 l 228 1116 m 154 1116 l 154 1047 l 223 1047 l 223 1116 l 154 1116 m 79 1116 l 79 1047 l 149 1047 l 149 1116 l 79 1116 m 5 1116 l 5 1047 l 74 1047 l 74 1116 l 5 1116 m 595 1116 l 526 1116 l 526 1047 l 595 1047 l 595 1042 l 526 1042 l 526 972 l 595 972 l 595 967 l 526 967 l 526 898 l 595 898 l 595 893 l 526 893 l 526 823 l 595 823 l 595 818 l 526 818 l 526 749 l 595 749 l 595 744 l 526 744 l 526 675 l 595 675 l 595 670 l 526 670 l 526 600 l 595 600 l 595 595 l 526 595 l 526 526 l 595 526 l 595 521 l 526 521 l 526 451 l 595 451 l 595 446 l 526 446 l 526 377 l 595 377 l 595 372 l 526 372 l 526 303 l 595 303 l 595 298 l 526 298 l 526 228 l 595 228 l 595 223 l 526 223 l 526 154 l 595 154 l 595 149 l 526 149 l 526 79 l 595 79 l 595 74 l 526 74 l 526 5 l 595 5 l 595 0 l 526 0 l 526 -69 l 595 -69 l 595 -74 l 526 -74 l 526 -144 l 595 -144 l 595 -149 l 526 -149 l 526 -218 l 595 -218 l 595 -223 l 526 -223 l 526 -293 l 595 -293 l 595 -298 l 526 -298 l 526 -367 l 595 -367 l 595 -372 l 0 -372 l 0 1121 l 595 1121 l 595 1116 z "},"C":{"ha":595,"x_min":0,"x_max":595,"o":"m 451 1116 l 451 1047 l 521 1047 l 521 1116 l 451 1116 m 79 972 l 149 972 l 149 1042 l 79 1042 l 79 972 m 5 972 l 74 972 l 74 1042 l 5 1042 l 5 972 m 154 972 l 223 972 l 223 1042 l 154 1042 l 154 972 m 228 972 l 298 972 l 298 1042 l 228 1042 l 228 972 m 303 972 l 372 972 l 372 1042 l 303 1042 l 303 972 m 451 972 l 521 972 l 521 1042 l 451 1042 l 451 972 m 377 972 l 446 972 l 446 1042 l 377 1042 l 377 972 m 451 898 l 521 898 l 521 967 l 451 967 l 451 898 m 377 898 l 446 898 l 446 967 l 377 967 l 377 898 m 303 898 l 372 898 l 372 967 l 303 967 l 303 898 m 5 898 l 74 898 l 74 967 l 5 967 l 5 898 m 228 898 l 298 898 l 298 967 l 228 967 l 228 898 m 154 898 l 223 898 l 223 967 l 154 967 l 154 898 m 79 898 l 149 898 l 149 967 l 79 967 l 79 898 m 451 823 l 521 823 l 521 893 l 451 893 l 451 823 m 79 823 l 149 823 l 149 893 l 79 893 l 79 823 m 377 823 l 446 823 l 446 893 l 377 893 l 377 823 m 303 823 l 372 823 l 372 893 l 303 893 l 303 823 m 5 823 l 74 823 l 74 893 l 5 893 l 5 823 m 228 823 l 298 823 l 298 893 l 228 893 l 228 823 m 154 823 l 223 823 l 223 893 l 154 893 l 154 823 m 451 749 l 521 749 l 521 818 l 451 818 l 451 749 m 154 749 l 223 749 l 223 818 l 154 818 l 154 749 m 377 749 l 446 749 l 446 818 l 377 818 l 377 749 m 79 749 l 149 749 l 149 818 l 79 818 l 79 749 m 303 749 l 372 749 l 372 818 l 303 818 l 303 749 m 5 749 l 74 749 l 74 818 l 5 818 l 5 749 m 228 749 l 298 749 l 298 818 l 228 818 l 228 749 m 451 675 l 521 675 l 521 744 l 451 744 l 451 675 m 5 675 l 74 675 l 74 744 l 5 744 l 5 675 m 303 526 l 372 526 l 372 595 l 303 595 l 303 526 m 228 526 l 298 526 l 298 595 l 228 595 l 228 526 m 154 451 l 223 451 l 223 521 l 154 521 l 154 451 m 451 451 l 521 451 l 521 521 l 451 521 l 451 451 m 228 451 l 298 451 l 298 521 l 228 521 l 228 451 m 377 451 l 446 451 l 446 521 l 377 521 l 377 451 m 303 451 l 372 451 l 372 521 l 303 521 l 303 451 m 154 377 l 223 377 l 223 446 l 154 446 l 154 377 m 228 377 l 298 377 l 298 446 l 228 446 l 228 377 m 303 377 l 372 377 l 372 446 l 303 446 l 303 377 m 451 377 l 521 377 l 521 446 l 451 446 l 451 377 m 377 377 l 446 377 l 446 446 l 377 446 l 377 377 m 451 303 l 521 303 l 521 372 l 451 372 l 451 303 m 377 303 l 446 303 l 446 372 l 377 372 l 377 303 m 154 303 l 223 303 l 223 372 l 154 372 l 154 303 m 303 303 l 372 303 l 372 372 l 303 372 l 303 303 m 228 303 l 298 303 l 298 372 l 228 372 l 228 303 m 451 228 l 521 228 l 521 298 l 451 298 l 451 228 m 154 228 l 223 228 l 223 298 l 154 298 l 154 228 m 228 228 l 298 228 l 298 298 l 228 298 l 228 228 m 377 228 l 446 228 l 446 298 l 377 298 l 377 228 m 303 228 l 372 228 l 372 298 l 303 298 l 303 228 m 303 154 l 372 154 l 372 223 l 303 223 l 303 154 m 228 154 l 298 154 l 298 223 l 228 223 l 228 154 m 451 5 l 521 5 l 521 74 l 451 74 l 451 5 m 5 5 l 74 5 l 74 74 l 5 74 l 5 5 m 5 -69 l 74 -69 l 74 0 l 5 0 l 5 -69 m 303 -69 l 372 -69 l 372 0 l 303 0 l 303 -69 m 154 -69 l 223 -69 l 223 0 l 154 0 l 154 -69 m 79 -69 l 149 -69 l 149 0 l 79 0 l 79 -69 m 377 -69 l 446 -69 l 446 0 l 377 0 l 377 -69 m 228 -69 l 298 -69 l 298 0 l 228 0 l 228 -69 m 451 -69 l 521 -69 l 521 0 l 451 0 l 451 -69 m 5 -144 l 74 -144 l 74 -74 l 5 -74 l 5 -144 m 79 -144 l 149 -144 l 149 -74 l 79 -74 l 79 -144 m 154 -144 l 223 -144 l 223 -74 l 154 -74 l 154 -144 m 228 -144 l 298 -144 l 298 -74 l 228 -74 l 228 -144 m 451 -144 l 521 -144 l 521 -74 l 451 -74 l 451 -144 m 303 -144 l 372 -144 l 372 -74 l 303 -74 l 303 -144 m 377 -144 l 446 -144 l 446 -74 l 377 -74 l 377 -144 m 154 -293 l 223 -293 l 223 -223 l 154 -223 l 154 -293 m 228 -293 l 298 -293 l 298 -223 l 228 -223 l 228 -293 m 303 -293 l 372 -293 l 372 -223 l 303 -223 l 303 -293 m 79 -293 l 149 -293 l 149 -223 l 79 -223 l 79 -293 m 5 -293 l 74 -293 l 74 -223 l 5 -223 l 5 -293 m 451 -293 l 521 -293 l 521 -223 l 451 -223 l 451 -293 m 377 -293 l 446 -293 l 446 -223 l 377 -223 l 377 -293 m 228 -367 l 298 -367 l 298 -298 l 228 -298 l 228 -367 m 303 -367 l 372 -367 l 372 -298 l 303 -298 l 303 -367 m 377 -367 l 446 -367 l 446 -298 l 377 -298 l 377 -367 m 154 -367 l 223 -367 l 223 -298 l 154 -298 l 154 -367 m 79 -367 l 149 -367 l 149 -298 l 79 -298 l 79 -367 m 451 -367 l 521 -367 l 521 -298 l 451 -298 l 451 -367 m 5 -367 l 74 -367 l 74 -298 l 5 -298 l 5 -367 m 377 1116 l 377 1047 l 446 1047 l 446 1116 l 377 1116 m 303 1116 l 303 1047 l 372 1047 l 372 1116 l 303 1116 m 228 1116 l 228 1047 l 298 1047 l 298 1116 l 228 1116 m 154 1116 l 154 1047 l 223 1047 l 223 1116 l 154 1116 m 79 1116 l 79 1047 l 149 1047 l 149 1116 l 79 1116 m 5 1116 l 5 1047 l 74 1047 l 74 1116 l 5 1116 m 0 -372 l 0 -149 l 5 -149 l 5 -218 l 74 -218 l 74 -149 l 79 -149 l 79 -218 l 149 -218 l 149 -149 l 154 -149 l 154 -218 l 223 -218 l 223 -149 l 228 -149 l 228 -218 l 298 -218 l 298 -149 l 303 -149 l 303 -218 l 372 -218 l 372 -149 l 377 -149 l 377 -218 l 446 -218 l 446 -149 l 451 -149 l 451 -218 l 521 -218 l 521 -149 l 0 -149 l 0 1121 l 595 1121 l 595 1116 l 526 1116 l 526 1047 l 595 1047 l 595 1042 l 526 1042 l 526 972 l 595 972 l 595 967 l 526 967 l 526 898 l 595 898 l 595 893 l 526 893 l 526 823 l 595 823 l 595 818 l 526 818 l 526 749 l 595 749 l 595 744 l 526 744 l 526 675 l 595 675 l 595 670 l 526 670 l 526 600 l 595 600 l 595 595 l 526 595 l 526 526 l 595 526 l 595 521 l 526 521 l 526 451 l 595 451 l 595 446 l 526 446 l 526 377 l 595 377 l 595 372 l 526 372 l 526 303 l 595 303 l 595 298 l 526 298 l 526 228 l 595 228 l 595 223 l 526 223 l 526 154 l 595 154 l 595 149 l 526 149 l 526 79 l 595 79 l 595 74 l 526 74 l 526 5 l 595 5 l 595 0 l 526 0 l 526 -69 l 595 -69 l 595 -74 l 526 -74 l 526 -144 l 595 -144 l 595 -149 l 526 -149 l 526 -218 l 595 -218 l 595 -223 l 526 -223 l 526 -293 l 595 -293 l 595 -298 l 526 -298 l 526 -367 l 595 -367 l 595 -372 l 0 -372 z "},"":{"ha":595,"x_min":0,"x_max":595,"o":"m 451 1116 l 451 1047 l 521 1047 l 521 1116 l 451 1116 m 79 972 l 149 972 l 149 1042 l 79 1042 l 79 972 m 5 972 l 74 972 l 74 1042 l 5 1042 l 5 972 m 154 972 l 223 972 l 223 1042 l 154 1042 l 154 972 m 228 972 l 298 972 l 298 1042 l 228 1042 l 228 972 m 303 972 l 372 972 l 372 1042 l 303 1042 l 303 972 m 451 972 l 521 972 l 521 1042 l 451 1042 l 451 972 m 377 972 l 446 972 l 446 1042 l 377 1042 l 377 972 m 451 898 l 521 898 l 521 967 l 451 967 l 451 898 m 377 898 l 446 898 l 446 967 l 377 967 l 377 898 m 303 898 l 372 898 l 372 967 l 303 967 l 303 898 m 5 898 l 74 898 l 74 967 l 5 967 l 5 898 m 228 898 l 298 898 l 298 967 l 228 967 l 228 898 m 154 898 l 223 898 l 223 967 l 154 967 l 154 898 m 79 898 l 149 898 l 149 967 l 79 967 l 79 898 m 451 823 l 521 823 l 521 893 l 451 893 l 451 823 m 79 823 l 149 823 l 149 893 l 79 893 l 79 823 m 377 823 l 446 823 l 446 893 l 377 893 l 377 823 m 303 823 l 372 823 l 372 893 l 303 893 l 303 823 m 5 823 l 74 823 l 74 893 l 5 893 l 5 823 m 228 823 l 298 823 l 298 893 l 228 893 l 228 823 m 154 823 l 223 823 l 223 893 l 154 893 l 154 823 m 451 749 l 521 749 l 521 818 l 451 818 l 451 749 m 154 749 l 223 749 l 223 818 l 154 818 l 154 749 m 377 749 l 446 749 l 446 818 l 377 818 l 377 749 m 79 749 l 149 749 l 149 818 l 79 818 l 79 749 m 303 749 l 372 749 l 372 818 l 303 818 l 303 749 m 5 749 l 74 749 l 74 818 l 5 818 l 5 749 m 228 749 l 298 749 l 298 818 l 228 818 l 228 749 m 451 675 l 521 675 l 521 744 l 451 744 l 451 675 m 5 675 l 74 675 l 74 744 l 5 744 l 5 675 m 303 526 l 372 526 l 372 595 l 303 595 l 303 526 m 228 526 l 298 526 l 298 595 l 228 595 l 228 526 m 154 451 l 223 451 l 223 521 l 154 521 l 154 451 m 451 451 l 521 451 l 521 521 l 451 521 l 451 451 m 228 451 l 298 451 l 298 521 l 228 521 l 228 451 m 377 451 l 446 451 l 446 521 l 377 521 l 377 451 m 303 451 l 372 451 l 372 521 l 303 521 l 303 451 m 154 377 l 223 377 l 223 446 l 154 446 l 154 377 m 228 377 l 298 377 l 298 446 l 228 446 l 228 377 m 303 377 l 372 377 l 372 446 l 303 446 l 303 377 m 451 377 l 521 377 l 521 446 l 451 446 l 451 377 m 377 377 l 446 377 l 446 446 l 377 446 l 377 377 m 451 303 l 521 303 l 521 372 l 451 372 l 451 303 m 377 303 l 446 303 l 446 372 l 377 372 l 377 303 m 154 303 l 223 303 l 223 372 l 154 372 l 154 303 m 303 303 l 372 303 l 372 372 l 303 372 l 303 303 m 228 303 l 298 303 l 298 372 l 228 372 l 228 303 m 451 228 l 521 228 l 521 298 l 451 298 l 451 228 m 154 228 l 223 228 l 223 298 l 154 298 l 154 228 m 228 228 l 298 228 l 298 298 l 228 298 l 228 228 m 377 228 l 446 228 l 446 298 l 377 298 l 377 228 m 303 228 l 372 228 l 372 298 l 303 298 l 303 228 m 303 154 l 372 154 l 372 223 l 303 223 l 303 154 m 228 154 l 298 154 l 298 223 l 228 223 l 228 154 m 451 5 l 521 5 l 521 74 l 451 74 l 451 5 m 5 5 l 74 5 l 74 74 l 5 74 l 5 5 m 5 -69 l 74 -69 l 74 0 l 5 0 l 5 -69 m 303 -69 l 372 -69 l 372 0 l 303 0 l 303 -69 m 154 -69 l 223 -69 l 223 0 l 154 0 l 154 -69 m 79 -69 l 149 -69 l 149 0 l 79 0 l 79 -69 m 377 -69 l 446 -69 l 446 0 l 377 0 l 377 -69 m 228 -69 l 298 -69 l 298 0 l 228 0 l 228 -69 m 451 -69 l 521 -69 l 521 0 l 451 0 l 451 -69 m 5 -144 l 74 -144 l 74 -74 l 5 -74 l 5 -144 m 79 -144 l 149 -144 l 149 -74 l 79 -74 l 79 -144 m 154 -144 l 223 -144 l 223 -74 l 154 -74 l 154 -144 m 228 -144 l 298 -144 l 298 -74 l 228 -74 l 228 -144 m 451 -144 l 521 -144 l 521 -74 l 451 -74 l 451 -144 m 303 -144 l 372 -144 l 372 -74 l 303 -74 l 303 -144 m 377 -144 l 446 -144 l 446 -74 l 377 -74 l 377 -144 m 154 -293 l 223 -293 l 223 -223 l 154 -223 l 154 -293 m 228 -293 l 298 -293 l 298 -223 l 228 -223 l 228 -293 m 303 -293 l 372 -293 l 372 -223 l 303 -223 l 303 -293 m 79 -293 l 149 -293 l 149 -223 l 79 -223 l 79 -293 m 5 -293 l 74 -293 l 74 -223 l 5 -223 l 5 -293 m 451 -293 l 521 -293 l 521 -223 l 451 -223 l 451 -293 m 377 -293 l 446 -293 l 446 -223 l 377 -223 l 377 -293 m 228 -367 l 298 -367 l 298 -298 l 228 -298 l 228 -367 m 303 -367 l 372 -367 l 372 -298 l 303 -298 l 303 -367 m 377 -367 l 446 -367 l 446 -298 l 377 -298 l 377 -367 m 154 -367 l 223 -367 l 223 -298 l 154 -298 l 154 -367 m 79 -367 l 149 -367 l 149 -298 l 79 -298 l 79 -367 m 451 -367 l 521 -367 l 521 -298 l 451 -298 l 451 -367 m 5 -367 l 74 -367 l 74 -298 l 5 -298 l 5 -367 m 377 1116 l 377 1047 l 446 1047 l 446 1116 l 377 1116 m 303 1116 l 303 1047 l 372 1047 l 372 1116 l 303 1116 m 228 1116 l 228 1047 l 298 1047 l 298 1116 l 228 1116 m 154 1116 l 154 1047 l 223 1047 l 223 1116 l 154 1116 m 79 1116 l 79 1047 l 149 1047 l 149 1116 l 79 1116 m 5 1116 l 5 1047 l 74 1047 l 74 1116 l 5 1116 m 0 -372 l 0 -149 l 5 -149 l 5 -218 l 74 -218 l 74 -149 l 79 -149 l 79 -218 l 149 -218 l 149 -149 l 154 -149 l 154 -218 l 223 -218 l 223 -149 l 228 -149 l 228 -218 l 298 -218 l 298 -149 l 303 -149 l 303 -218 l 372 -218 l 372 -149 l 377 -149 l 377 -218 l 446 -218 l 446 -149 l 451 -149 l 451 -218 l 521 -218 l 521 -149 l 0 -149 l 0 1121 l 595 1121 l 595 1116 l 526 1116 l 526 1047 l 595 1047 l 595 1042 l 526 1042 l 526 972 l 595 972 l 595 967 l 526 967 l 526 898 l 595 898 l 595 893 l 526 893 l 526 823 l 595 823 l 595 818 l 526 818 l 526 749 l 595 749 l 595 744 l 526 744 l 526 675 l 595 675 l 595 670 l 526 670 l 526 600 l 595 600 l 595 595 l 526 595 l 526 526 l 595 526 l 595 521 l 526 521 l 526 451 l 595 451 l 595 446 l 526 446 l 526 377 l 595 377 l 595 372 l 526 372 l 526 303 l 595 303 l 595 298 l 526 298 l 526 228 l 595 228 l 595 223 l 526 223 l 526 154 l 595 154 l 595 149 l 526 149 l 526 79 l 595 79 l 595 74 l 526 74 l 526 5 l 595 5 l 595 0 l 526 0 l 526 -69 l 595 -69 l 595 -74 l 526 -74 l 526 -144 l 595 -144 l 595 -149 l 526 -149 l 526 -218 l 595 -218 l 595 -223 l 526 -223 l 526 -293 l 595 -293 l 595 -298 l 526 -298 l 526 -367 l 595 -367 l 595 -372 l 0 -372 m 298 967 l 298 893 l 223 893 l 223 967 l 298 967 m 298 893 l 298 818 l 223 818 l 223 893 l 298 893 m 372 967 l 372 893 l 298 893 l 298 967 l 372 967 m 372 1042 l 372 967 l 298 967 l 298 1042 l 372 1042 z "},"":{"ha":595,"x_min":0,"x_max":595,"o":"m 451 1116 l 451 1047 l 521 1047 l 521 1116 l 451 1116 m 79 972 l 149 972 l 149 1042 l 79 1042 l 79 972 m 5 972 l 74 972 l 74 1042 l 5 1042 l 5 972 m 154 972 l 223 972 l 223 1042 l 154 1042 l 154 972 m 228 972 l 298 972 l 298 1042 l 228 1042 l 228 972 m 303 972 l 372 972 l 372 1042 l 303 1042 l 303 972 m 451 972 l 521 972 l 521 1042 l 451 1042 l 451 972 m 377 972 l 446 972 l 446 1042 l 377 1042 l 377 972 m 451 898 l 521 898 l 521 967 l 451 967 l 451 898 m 377 898 l 446 898 l 446 967 l 377 967 l 377 898 m 303 898 l 372 898 l 372 967 l 303 967 l 303 898 m 5 898 l 74 898 l 74 967 l 5 967 l 5 898 m 228 898 l 298 898 l 298 967 l 228 967 l 228 898 m 154 898 l 223 898 l 223 967 l 154 967 l 154 898 m 79 898 l 149 898 l 149 967 l 79 967 l 79 898 m 451 823 l 521 823 l 521 893 l 451 893 l 451 823 m 79 823 l 149 823 l 149 893 l 79 893 l 79 823 m 377 823 l 446 823 l 446 893 l 377 893 l 377 823 m 303 823 l 372 823 l 372 893 l 303 893 l 303 823 m 5 823 l 74 823 l 74 893 l 5 893 l 5 823 m 228 823 l 298 823 l 298 893 l 228 893 l 228 823 m 154 823 l 223 823 l 223 893 l 154 893 l 154 823 m 451 749 l 521 749 l 521 818 l 451 818 l 451 749 m 154 749 l 223 749 l 223 818 l 154 818 l 154 749 m 377 749 l 446 749 l 446 818 l 377 818 l 377 749 m 79 749 l 149 749 l 149 818 l 79 818 l 79 749 m 303 749 l 372 749 l 372 818 l 303 818 l 303 749 m 5 749 l 74 749 l 74 818 l 5 818 l 5 749 m 228 749 l 298 749 l 298 818 l 228 818 l 228 749 m 451 675 l 521 675 l 521 744 l 451 744 l 451 675 m 5 675 l 74 675 l 74 744 l 5 744 l 5 675 m 303 526 l 372 526 l 372 595 l 303 595 l 303 526 m 228 526 l 298 526 l 298 595 l 228 595 l 228 526 m 154 451 l 223 451 l 223 521 l 154 521 l 154 451 m 451 451 l 521 451 l 521 521 l 451 521 l 451 451 m 228 451 l 298 451 l 298 521 l 228 521 l 228 451 m 377 451 l 446 451 l 446 521 l 377 521 l 377 451 m 303 451 l 372 451 l 372 521 l 303 521 l 303 451 m 154 377 l 223 377 l 223 446 l 154 446 l 154 377 m 228 377 l 298 377 l 298 446 l 228 446 l 228 377 m 303 377 l 372 377 l 372 446 l 303 446 l 303 377 m 451 377 l 521 377 l 521 446 l 451 446 l 451 377 m 377 377 l 446 377 l 446 446 l 377 446 l 377 377 m 451 303 l 521 303 l 521 372 l 451 372 l 451 303 m 377 303 l 446 303 l 446 372 l 377 372 l 377 303 m 154 303 l 223 303 l 223 372 l 154 372 l 154 303 m 303 303 l 372 303 l 372 372 l 303 372 l 303 303 m 228 303 l 298 303 l 298 372 l 228 372 l 228 303 m 451 228 l 521 228 l 521 298 l 451 298 l 451 228 m 154 228 l 223 228 l 223 298 l 154 298 l 154 228 m 228 228 l 298 228 l 298 298 l 228 298 l 228 228 m 377 228 l 446 228 l 446 298 l 377 298 l 377 228 m 303 228 l 372 228 l 372 298 l 303 298 l 303 228 m 303 154 l 372 154 l 372 223 l 303 223 l 303 154 m 228 154 l 298 154 l 298 223 l 228 223 l 228 154 m 451 5 l 521 5 l 521 74 l 451 74 l 451 5 m 5 5 l 74 5 l 74 74 l 5 74 l 5 5 m 5 -69 l 74 -69 l 74 0 l 5 0 l 5 -69 m 303 -69 l 372 -69 l 372 0 l 303 0 l 303 -69 m 154 -69 l 223 -69 l 223 0 l 154 0 l 154 -69 m 79 -69 l 149 -69 l 149 0 l 79 0 l 79 -69 m 377 -69 l 446 -69 l 446 0 l 377 0 l 377 -69 m 228 -69 l 298 -69 l 298 0 l 228 0 l 228 -69 m 451 -69 l 521 -69 l 521 0 l 451 0 l 451 -69 m 5 -144 l 74 -144 l 74 -74 l 5 -74 l 5 -144 m 79 -144 l 149 -144 l 149 -74 l 79 -74 l 79 -144 m 154 -144 l 223 -144 l 223 -74 l 154 -74 l 154 -144 m 228 -144 l 298 -144 l 298 -74 l 228 -74 l 228 -144 m 451 -144 l 521 -144 l 521 -74 l 451 -74 l 451 -144 m 303 -144 l 372 -144 l 372 -74 l 303 -74 l 303 -144 m 377 -144 l 446 -144 l 446 -74 l 377 -74 l 377 -144 m 154 -293 l 223 -293 l 223 -223 l 154 -223 l 154 -293 m 228 -293 l 298 -293 l 298 -223 l 228 -223 l 228 -293 m 303 -293 l 372 -293 l 372 -223 l 303 -223 l 303 -293 m 79 -293 l 149 -293 l 149 -223 l 79 -223 l 79 -293 m 5 -293 l 74 -293 l 74 -223 l 5 -223 l 5 -293 m 451 -293 l 521 -293 l 521 -223 l 451 -223 l 451 -293 m 377 -293 l 446 -293 l 446 -223 l 377 -223 l 377 -293 m 228 -367 l 298 -367 l 298 -298 l 228 -298 l 228 -367 m 303 -367 l 372 -367 l 372 -298 l 303 -298 l 303 -367 m 377 -367 l 446 -367 l 446 -298 l 377 -298 l 377 -367 m 154 -367 l 223 -367 l 223 -298 l 154 -298 l 154 -367 m 79 -367 l 149 -367 l 149 -298 l 79 -298 l 79 -367 m 451 -367 l 521 -367 l 521 -298 l 451 -298 l 451 -367 m 5 -367 l 74 -367 l 74 -298 l 5 -298 l 5 -367 m 377 1116 l 377 1047 l 446 1047 l 446 1116 l 377 1116 m 303 1116 l 303 1047 l 372 1047 l 372 1116 l 303 1116 m 228 1116 l 228 1047 l 298 1047 l 298 1116 l 228 1116 m 154 1116 l 154 1047 l 223 1047 l 223 1116 l 154 1116 m 79 1116 l 79 1047 l 149 1047 l 149 1116 l 79 1116 m 5 1116 l 5 1047 l 74 1047 l 74 1116 l 5 1116 m 0 -372 l 0 -149 l 5 -149 l 5 -218 l 74 -218 l 74 -149 l 79 -149 l 79 -218 l 149 -218 l 149 -149 l 154 -149 l 154 -218 l 223 -218 l 223 -149 l 228 -149 l 228 -218 l 298 -218 l 298 -149 l 303 -149 l 303 -218 l 372 -218 l 372 -149 l 377 -149 l 377 -218 l 446 -218 l 446 -149 l 451 -149 l 451 -218 l 521 -218 l 521 -149 l 0 -149 l 0 1121 l 595 1121 l 595 1116 l 526 1116 l 526 1047 l 595 1047 l 595 1042 l 526 1042 l 526 972 l 595 972 l 595 967 l 526 967 l 526 898 l 595 898 l 595 893 l 526 893 l 526 823 l 595 823 l 595 818 l 526 818 l 526 749 l 595 749 l 595 744 l 526 744 l 526 675 l 595 675 l 595 670 l 526 670 l 526 600 l 595 600 l 595 595 l 526 595 l 526 526 l 595 526 l 595 521 l 526 521 l 526 451 l 595 451 l 595 446 l 526 446 l 526 377 l 595 377 l 595 372 l 526 372 l 526 303 l 595 303 l 595 298 l 526 298 l 526 228 l 595 228 l 595 223 l 526 223 l 526 154 l 595 154 l 595 149 l 526 149 l 526 79 l 595 79 l 595 74 l 526 74 l 526 5 l 595 5 l 595 0 l 526 0 l 526 -69 l 595 -69 l 595 -74 l 526 -74 l 526 -144 l 595 -144 l 595 -149 l 526 -149 l 526 -218 l 595 -218 l 595 -223 l 526 -223 l 526 -293 l 595 -293 l 595 -298 l 526 -298 l 526 -367 l 595 -367 l 595 -372 l 0 -372 m 149 967 l 149 1042 l 223 1042 l 223 967 l 149 967 m 298 967 l 298 1042 l 372 1042 l 372 967 l 298 967 m 74 967 l 74 1042 l 149 1042 l 149 967 l 74 967 m 223 893 l 223 967 l 298 967 l 298 893 l 223 893 m 149 893 l 149 967 l 223 967 l 223 893 l 149 893 m 372 1042 l 446 1042 l 446 967 l 372 967 l 372 1042 m 298 967 l 372 967 l 372 893 l 298 893 l 298 967 m 223 893 l 298 893 l 298 818 l 223 818 l 223 893 z "},"":{"ha":595,"x_min":0,"x_max":595,"o":"m 451 1116 l 451 1047 l 521 1047 l 521 1116 l 451 1116 m 79 972 l 149 972 l 149 1042 l 79 1042 l 79 972 m 5 972 l 74 972 l 74 1042 l 5 1042 l 5 972 m 154 972 l 223 972 l 223 1042 l 154 1042 l 154 972 m 228 972 l 298 972 l 298 1042 l 228 1042 l 228 972 m 303 972 l 372 972 l 372 1042 l 303 1042 l 303 972 m 451 972 l 521 972 l 521 1042 l 451 1042 l 451 972 m 377 972 l 446 972 l 446 1042 l 377 1042 l 377 972 m 451 898 l 521 898 l 521 967 l 451 967 l 451 898 m 377 898 l 446 898 l 446 967 l 377 967 l 377 898 m 303 898 l 372 898 l 372 967 l 303 967 l 303 898 m 5 898 l 74 898 l 74 967 l 5 967 l 5 898 m 228 898 l 298 898 l 298 967 l 228 967 l 228 898 m 154 898 l 223 898 l 223 967 l 154 967 l 154 898 m 79 898 l 149 898 l 149 967 l 79 967 l 79 898 m 451 823 l 521 823 l 521 893 l 451 893 l 451 823 m 79 823 l 149 823 l 149 893 l 79 893 l 79 823 m 377 823 l 446 823 l 446 893 l 377 893 l 377 823 m 303 823 l 372 823 l 372 893 l 303 893 l 303 823 m 5 823 l 74 823 l 74 893 l 5 893 l 5 823 m 228 823 l 298 823 l 298 893 l 228 893 l 228 823 m 154 823 l 223 823 l 223 893 l 154 893 l 154 823 m 451 749 l 521 749 l 521 818 l 451 818 l 451 749 m 154 749 l 223 749 l 223 818 l 154 818 l 154 749 m 377 749 l 446 749 l 446 818 l 377 818 l 377 749 m 79 749 l 149 749 l 149 818 l 79 818 l 79 749 m 303 749 l 372 749 l 372 818 l 303 818 l 303 749 m 5 749 l 74 749 l 74 818 l 5 818 l 5 749 m 228 749 l 298 749 l 298 818 l 228 818 l 228 749 m 451 675 l 521 675 l 521 744 l 451 744 l 451 675 m 5 675 l 74 675 l 74 744 l 5 744 l 5 675 m 303 526 l 372 526 l 372 595 l 303 595 l 303 526 m 228 526 l 298 526 l 298 595 l 228 595 l 228 526 m 154 451 l 223 451 l 223 521 l 154 521 l 154 451 m 451 451 l 521 451 l 521 521 l 451 521 l 451 451 m 228 451 l 298 451 l 298 521 l 228 521 l 228 451 m 377 451 l 446 451 l 446 521 l 377 521 l 377 451 m 303 451 l 372 451 l 372 521 l 303 521 l 303 451 m 154 377 l 223 377 l 223 446 l 154 446 l 154 377 m 228 377 l 298 377 l 298 446 l 228 446 l 228 377 m 303 377 l 372 377 l 372 446 l 303 446 l 303 377 m 451 377 l 521 377 l 521 446 l 451 446 l 451 377 m 377 377 l 446 377 l 446 446 l 377 446 l 377 377 m 451 303 l 521 303 l 521 372 l 451 372 l 451 303 m 377 303 l 446 303 l 446 372 l 377 372 l 377 303 m 154 303 l 223 303 l 223 372 l 154 372 l 154 303 m 303 303 l 372 303 l 372 372 l 303 372 l 303 303 m 228 303 l 298 303 l 298 372 l 228 372 l 228 303 m 451 228 l 521 228 l 521 298 l 451 298 l 451 228 m 154 228 l 223 228 l 223 298 l 154 298 l 154 228 m 228 228 l 298 228 l 298 298 l 228 298 l 228 228 m 377 228 l 446 228 l 446 298 l 377 298 l 377 228 m 303 228 l 372 228 l 372 298 l 303 298 l 303 228 m 303 154 l 372 154 l 372 223 l 303 223 l 303 154 m 228 154 l 298 154 l 298 223 l 228 223 l 228 154 m 451 5 l 521 5 l 521 74 l 451 74 l 451 5 m 5 5 l 74 5 l 74 74 l 5 74 l 5 5 m 5 -69 l 74 -69 l 74 0 l 5 0 l 5 -69 m 303 -69 l 372 -69 l 372 0 l 303 0 l 303 -69 m 154 -69 l 223 -69 l 223 0 l 154 0 l 154 -69 m 79 -69 l 149 -69 l 149 0 l 79 0 l 79 -69 m 377 -69 l 446 -69 l 446 0 l 377 0 l 377 -69 m 228 -69 l 298 -69 l 298 0 l 228 0 l 228 -69 m 451 -69 l 521 -69 l 521 0 l 451 0 l 451 -69 m 5 -144 l 74 -144 l 74 -74 l 5 -74 l 5 -144 m 79 -144 l 149 -144 l 149 -74 l 79 -74 l 79 -144 m 154 -144 l 223 -144 l 223 -74 l 154 -74 l 154 -144 m 228 -144 l 298 -144 l 298 -74 l 228 -74 l 228 -144 m 451 -144 l 521 -144 l 521 -74 l 451 -74 l 451 -144 m 303 -144 l 372 -144 l 372 -74 l 303 -74 l 303 -144 m 377 -144 l 446 -144 l 446 -74 l 377 -74 l 377 -144 m 154 -293 l 223 -293 l 223 -223 l 154 -223 l 154 -293 m 228 -293 l 298 -293 l 298 -223 l 228 -223 l 228 -293 m 303 -293 l 372 -293 l 372 -223 l 303 -223 l 303 -293 m 79 -293 l 149 -293 l 149 -223 l 79 -223 l 79 -293 m 5 -293 l 74 -293 l 74 -223 l 5 -223 l 5 -293 m 451 -293 l 521 -293 l 521 -223 l 451 -223 l 451 -293 m 377 -293 l 446 -293 l 446 -223 l 377 -223 l 377 -293 m 228 -367 l 298 -367 l 298 -298 l 228 -298 l 228 -367 m 303 -367 l 372 -367 l 372 -298 l 303 -298 l 303 -367 m 377 -367 l 446 -367 l 446 -298 l 377 -298 l 377 -367 m 154 -367 l 223 -367 l 223 -298 l 154 -298 l 154 -367 m 79 -367 l 149 -367 l 149 -298 l 79 -298 l 79 -367 m 451 -367 l 521 -367 l 521 -298 l 451 -298 l 451 -367 m 5 -367 l 74 -367 l 74 -298 l 5 -298 l 5 -367 m 377 1116 l 377 1047 l 446 1047 l 446 1116 l 377 1116 m 303 1116 l 303 1047 l 372 1047 l 372 1116 l 303 1116 m 228 1116 l 228 1047 l 298 1047 l 298 1116 l 228 1116 m 154 1116 l 154 1047 l 223 1047 l 223 1116 l 154 1116 m 79 1116 l 79 1047 l 149 1047 l 149 1116 l 79 1116 m 5 1116 l 5 1047 l 74 1047 l 74 1116 l 5 1116 m 0 -372 l 0 -149 l 5 -149 l 5 -218 l 74 -218 l 74 -149 l 79 -149 l 79 -218 l 149 -218 l 149 -149 l 154 -149 l 154 -218 l 223 -218 l 223 -149 l 228 -149 l 228 -218 l 298 -218 l 298 -149 l 303 -149 l 303 -218 l 372 -218 l 372 -149 l 377 -149 l 377 -218 l 446 -218 l 446 -149 l 451 -149 l 451 -218 l 521 -218 l 521 -149 l 0 -149 l 0 1121 l 595 1121 l 595 1116 l 526 1116 l 526 1047 l 595 1047 l 595 1042 l 526 1042 l 526 972 l 595 972 l 595 967 l 526 967 l 526 898 l 595 898 l 595 893 l 526 893 l 526 823 l 595 823 l 595 818 l 526 818 l 526 749 l 595 749 l 595 744 l 526 744 l 526 675 l 595 675 l 595 670 l 526 670 l 526 600 l 595 600 l 595 595 l 526 595 l 526 526 l 595 526 l 595 521 l 526 521 l 526 451 l 595 451 l 595 446 l 526 446 l 526 377 l 595 377 l 595 372 l 526 372 l 526 303 l 595 303 l 595 298 l 526 298 l 526 228 l 595 228 l 595 223 l 526 223 l 526 154 l 595 154 l 595 149 l 526 149 l 526 79 l 595 79 l 595 74 l 526 74 l 526 5 l 595 5 l 595 0 l 526 0 l 526 -69 l 595 -69 l 595 -74 l 526 -74 l 526 -144 l 595 -144 l 595 -149 l 526 -149 l 526 -218 l 595 -218 l 595 -223 l 526 -223 l 526 -293 l 595 -293 l 595 -298 l 526 -298 l 526 -367 l 595 -367 l 595 -372 l 0 -372 m 223 0 l 298 0 l 298 -74 l 223 -74 l 223 0 m 298 -74 l 372 -74 l 372 -149 l 298 -149 l 298 -74 m 298 -149 l 372 -149 l 372 -223 l 298 -223 l 298 -149 m 223 -149 l 298 -149 l 298 -223 l 223 -223 l 223 -149 m 223 -223 l 298 -223 l 298 -298 l 223 -298 l 223 -223 m 298 -223 l 372 -223 l 372 -298 l 298 -298 l 298 -223 z "},"":{"ha":595,"x_min":0,"x_max":595,"o":"m 451 1116 l 451 1047 l 521 1047 l 521 1116 l 451 1116 m 79 972 l 149 972 l 149 1042 l 79 1042 l 79 972 m 5 972 l 74 972 l 74 1042 l 5 1042 l 5 972 m 154 972 l 223 972 l 223 1042 l 154 1042 l 154 972 m 228 972 l 298 972 l 298 1042 l 228 1042 l 228 972 m 303 972 l 372 972 l 372 1042 l 303 1042 l 303 972 m 451 972 l 521 972 l 521 1042 l 451 1042 l 451 972 m 377 972 l 446 972 l 446 1042 l 377 1042 l 377 972 m 451 898 l 521 898 l 521 967 l 451 967 l 451 898 m 377 898 l 446 898 l 446 967 l 377 967 l 377 898 m 303 898 l 372 898 l 372 967 l 303 967 l 303 898 m 5 898 l 74 898 l 74 967 l 5 967 l 5 898 m 228 898 l 298 898 l 298 967 l 228 967 l 228 898 m 154 898 l 223 898 l 223 967 l 154 967 l 154 898 m 79 898 l 149 898 l 149 967 l 79 967 l 79 898 m 451 823 l 521 823 l 521 893 l 451 893 l 451 823 m 79 823 l 149 823 l 149 893 l 79 893 l 79 823 m 377 823 l 446 823 l 446 893 l 377 893 l 377 823 m 303 823 l 372 823 l 372 893 l 303 893 l 303 823 m 5 823 l 74 823 l 74 893 l 5 893 l 5 823 m 228 823 l 298 823 l 298 893 l 228 893 l 228 823 m 154 823 l 223 823 l 223 893 l 154 893 l 154 823 m 451 749 l 521 749 l 521 818 l 451 818 l 451 749 m 154 749 l 223 749 l 223 818 l 154 818 l 154 749 m 377 749 l 446 749 l 446 818 l 377 818 l 377 749 m 79 749 l 149 749 l 149 818 l 79 818 l 79 749 m 303 749 l 372 749 l 372 818 l 303 818 l 303 749 m 5 749 l 74 749 l 74 818 l 5 818 l 5 749 m 228 749 l 298 749 l 298 818 l 228 818 l 228 749 m 451 675 l 521 675 l 521 744 l 451 744 l 451 675 m 5 675 l 74 675 l 74 744 l 5 744 l 5 675 m 303 526 l 372 526 l 372 595 l 303 595 l 303 526 m 228 526 l 298 526 l 298 595 l 228 595 l 228 526 m 154 451 l 223 451 l 223 521 l 154 521 l 154 451 m 451 451 l 521 451 l 521 521 l 451 521 l 451 451 m 228 451 l 298 451 l 298 521 l 228 521 l 228 451 m 377 451 l 446 451 l 446 521 l 377 521 l 377 451 m 303 451 l 372 451 l 372 521 l 303 521 l 303 451 m 154 377 l 223 377 l 223 446 l 154 446 l 154 377 m 228 377 l 298 377 l 298 446 l 228 446 l 228 377 m 303 377 l 372 377 l 372 446 l 303 446 l 303 377 m 451 377 l 521 377 l 521 446 l 451 446 l 451 377 m 377 377 l 446 377 l 446 446 l 377 446 l 377 377 m 451 303 l 521 303 l 521 372 l 451 372 l 451 303 m 377 303 l 446 303 l 446 372 l 377 372 l 377 303 m 154 303 l 223 303 l 223 372 l 154 372 l 154 303 m 303 303 l 372 303 l 372 372 l 303 372 l 303 303 m 228 303 l 298 303 l 298 372 l 228 372 l 228 303 m 451 228 l 521 228 l 521 298 l 451 298 l 451 228 m 154 228 l 223 228 l 223 298 l 154 298 l 154 228 m 228 228 l 298 228 l 298 298 l 228 298 l 228 228 m 377 228 l 446 228 l 446 298 l 377 298 l 377 228 m 303 228 l 372 228 l 372 298 l 303 298 l 303 228 m 303 154 l 372 154 l 372 223 l 303 223 l 303 154 m 228 154 l 298 154 l 298 223 l 228 223 l 228 154 m 451 5 l 521 5 l 521 74 l 451 74 l 451 5 m 5 5 l 74 5 l 74 74 l 5 74 l 5 5 m 5 -69 l 74 -69 l 74 0 l 5 0 l 5 -69 m 303 -69 l 372 -69 l 372 0 l 303 0 l 303 -69 m 154 -69 l 223 -69 l 223 0 l 154 0 l 154 -69 m 79 -69 l 149 -69 l 149 0 l 79 0 l 79 -69 m 377 -69 l 446 -69 l 446 0 l 377 0 l 377 -69 m 228 -69 l 298 -69 l 298 0 l 228 0 l 228 -69 m 451 -69 l 521 -69 l 521 0 l 451 0 l 451 -69 m 5 -144 l 74 -144 l 74 -74 l 5 -74 l 5 -144 m 79 -144 l 149 -144 l 149 -74 l 79 -74 l 79 -144 m 154 -144 l 223 -144 l 223 -74 l 154 -74 l 154 -144 m 228 -144 l 298 -144 l 298 -74 l 228 -74 l 228 -144 m 451 -144 l 521 -144 l 521 -74 l 451 -74 l 451 -144 m 303 -144 l 372 -144 l 372 -74 l 303 -74 l 303 -144 m 377 -144 l 446 -144 l 446 -74 l 377 -74 l 377 -144 m 154 -293 l 223 -293 l 223 -223 l 154 -223 l 154 -293 m 228 -293 l 298 -293 l 298 -223 l 228 -223 l 228 -293 m 303 -293 l 372 -293 l 372 -223 l 303 -223 l 303 -293 m 79 -293 l 149 -293 l 149 -223 l 79 -223 l 79 -293 m 5 -293 l 74 -293 l 74 -223 l 5 -223 l 5 -293 m 451 -293 l 521 -293 l 521 -223 l 451 -223 l 451 -293 m 377 -293 l 446 -293 l 446 -223 l 377 -223 l 377 -293 m 228 -367 l 298 -367 l 298 -298 l 228 -298 l 228 -367 m 303 -367 l 372 -367 l 372 -298 l 303 -298 l 303 -367 m 377 -367 l 446 -367 l 446 -298 l 377 -298 l 377 -367 m 154 -367 l 223 -367 l 223 -298 l 154 -298 l 154 -367 m 79 -367 l 149 -367 l 149 -298 l 79 -298 l 79 -367 m 451 -367 l 521 -367 l 521 -298 l 451 -298 l 451 -367 m 5 -367 l 74 -367 l 74 -298 l 5 -298 l 5 -367 m 377 1116 l 377 1047 l 446 1047 l 446 1116 l 377 1116 m 303 1116 l 303 1047 l 372 1047 l 372 1116 l 303 1116 m 228 1116 l 228 1047 l 298 1047 l 298 1116 l 228 1116 m 154 1116 l 154 1047 l 223 1047 l 223 1116 l 154 1116 m 79 1116 l 79 1047 l 149 1047 l 149 1116 l 79 1116 m 5 1116 l 5 1047 l 74 1047 l 74 1116 l 5 1116 m 0 -372 l 0 -149 l 5 -149 l 5 -218 l 74 -218 l 74 -149 l 79 -149 l 79 -218 l 149 -218 l 149 -149 l 154 -149 l 154 -218 l 223 -218 l 223 -149 l 228 -149 l 228 -218 l 298 -218 l 298 -149 l 303 -149 l 303 -218 l 372 -218 l 372 -149 l 377 -149 l 377 -218 l 446 -218 l 446 -149 l 451 -149 l 451 -218 l 521 -218 l 521 -149 l 0 -149 l 0 1121 l 595 1121 l 595 1116 l 526 1116 l 526 1047 l 595 1047 l 595 1042 l 526 1042 l 526 972 l 595 972 l 595 967 l 526 967 l 526 898 l 595 898 l 595 893 l 526 893 l 526 823 l 595 823 l 595 818 l 526 818 l 526 749 l 595 749 l 595 744 l 526 744 l 526 675 l 595 675 l 595 670 l 526 670 l 526 600 l 595 600 l 595 595 l 526 595 l 526 526 l 595 526 l 595 521 l 526 521 l 526 451 l 595 451 l 595 446 l 526 446 l 526 377 l 595 377 l 595 372 l 526 372 l 526 303 l 595 303 l 595 298 l 526 298 l 526 228 l 595 228 l 595 223 l 526 223 l 526 154 l 595 154 l 595 149 l 526 149 l 526 79 l 595 79 l 595 74 l 526 74 l 526 5 l 595 5 l 595 0 l 526 0 l 526 -69 l 595 -69 l 595 -74 l 526 -74 l 526 -144 l 595 -144 l 595 -149 l 526 -149 l 526 -218 l 595 -218 l 595 -223 l 526 -223 l 526 -293 l 595 -293 l 595 -298 l 526 -298 l 526 -367 l 595 -367 l 595 -372 l 0 -372 m 149 967 l 223 967 l 223 893 l 149 893 l 149 967 m 223 967 l 298 967 l 298 893 l 223 893 l 223 967 m 223 893 l 298 893 l 298 818 l 223 818 l 223 893 m 149 893 l 223 893 l 223 818 l 149 818 l 149 893 z "},"D":{"ha":595,"x_min":0,"x_max":595,"o":"m 451 1116 l 451 1047 l 521 1047 l 521 1116 l 451 1116 m 79 972 l 149 972 l 149 1042 l 79 1042 l 79 972 m 154 972 l 223 972 l 223 1042 l 154 1042 l 154 972 m 451 972 l 521 972 l 521 1042 l 451 1042 l 451 972 m 377 972 l 446 972 l 446 1042 l 377 1042 l 377 972 m 5 972 l 74 972 l 74 1042 l 5 1042 l 5 972 m 303 972 l 372 972 l 372 1042 l 303 1042 l 303 972 m 228 972 l 298 972 l 298 1042 l 228 1042 l 228 972 m 154 898 l 223 898 l 223 967 l 154 967 l 154 898 m 79 898 l 149 898 l 149 967 l 79 967 l 79 898 m 5 898 l 74 898 l 74 967 l 5 967 l 5 898 m 228 898 l 298 898 l 298 967 l 228 967 l 228 898 m 451 898 l 521 898 l 521 967 l 451 967 l 451 898 m 377 898 l 446 898 l 446 967 l 377 967 l 377 898 m 303 898 l 372 898 l 372 967 l 303 967 l 303 898 m 377 823 l 446 823 l 446 893 l 377 893 l 377 823 m 451 823 l 521 823 l 521 893 l 451 893 l 451 823 m 303 823 l 372 823 l 372 893 l 303 893 l 303 823 m 79 823 l 149 823 l 149 893 l 79 893 l 79 823 m 228 823 l 298 823 l 298 893 l 228 893 l 228 823 m 5 823 l 74 823 l 74 893 l 5 893 l 5 823 m 154 823 l 223 823 l 223 893 l 154 893 l 154 823 m 451 749 l 521 749 l 521 818 l 451 818 l 451 749 m 377 749 l 446 749 l 446 818 l 377 818 l 377 749 m 154 749 l 223 749 l 223 818 l 154 818 l 154 749 m 79 749 l 149 749 l 149 818 l 79 818 l 79 749 m 303 749 l 372 749 l 372 818 l 303 818 l 303 749 m 5 749 l 74 749 l 74 818 l 5 818 l 5 749 m 228 749 l 298 749 l 298 818 l 228 818 l 228 749 m 451 675 l 521 675 l 521 744 l 451 744 l 451 675 m 154 526 l 223 526 l 223 595 l 154 595 l 154 526 m 228 526 l 298 526 l 298 595 l 228 595 l 228 526 m 154 451 l 223 451 l 223 521 l 154 521 l 154 451 m 303 451 l 372 451 l 372 521 l 303 521 l 303 451 m 228 451 l 298 451 l 298 521 l 228 521 l 228 451 m 303 377 l 372 377 l 372 446 l 303 446 l 303 377 m 228 377 l 298 377 l 298 446 l 228 446 l 228 377 m 154 377 l 223 377 l 223 446 l 154 446 l 154 377 m 154 303 l 223 303 l 223 372 l 154 372 l 154 303 m 303 303 l 372 303 l 372 372 l 303 372 l 303 303 m 228 303 l 298 303 l 298 372 l 228 372 l 228 303 m 228 228 l 298 228 l 298 298 l 228 298 l 228 228 m 303 228 l 372 228 l 372 298 l 303 298 l 303 228 m 154 228 l 223 228 l 223 298 l 154 298 l 154 228 m 154 154 l 223 154 l 223 223 l 154 223 l 154 154 m 228 154 l 298 154 l 298 223 l 228 223 l 228 154 m 451 5 l 521 5 l 521 74 l 451 74 l 451 5 m 154 -69 l 223 -69 l 223 0 l 154 0 l 154 -69 m 79 -69 l 149 -69 l 149 0 l 79 0 l 79 -69 m 228 -69 l 298 -69 l 298 0 l 228 0 l 228 -69 m 303 -69 l 372 -69 l 372 0 l 303 0 l 303 -69 m 5 -69 l 74 -69 l 74 0 l 5 0 l 5 -69 m 451 -69 l 521 -69 l 521 0 l 451 0 l 451 -69 m 377 -69 l 446 -69 l 446 0 l 377 0 l 377 -69 m 154 -144 l 223 -144 l 223 -74 l 154 -74 l 154 -144 m 79 -144 l 149 -144 l 149 -74 l 79 -74 l 79 -144 m 377 -144 l 446 -144 l 446 -74 l 377 -74 l 377 -144 m 303 -144 l 372 -144 l 372 -74 l 303 -74 l 303 -144 m 5 -144 l 74 -144 l 74 -74 l 5 -74 l 5 -144 m 451 -144 l 521 -144 l 521 -74 l 451 -74 l 451 -144 m 228 -144 l 298 -144 l 298 -74 l 228 -74 l 228 -144 m 154 -218 l 223 -218 l 223 -149 l 154 -149 l 154 -218 m 377 -218 l 446 -218 l 446 -149 l 377 -149 l 377 -218 m 228 -218 l 298 -218 l 298 -149 l 228 -149 l 228 -218 m 303 -218 l 372 -218 l 372 -149 l 303 -149 l 303 -218 m 79 -218 l 149 -218 l 149 -149 l 79 -149 l 79 -218 m 451 -218 l 521 -218 l 521 -149 l 451 -149 l 451 -218 m 5 -218 l 74 -218 l 74 -149 l 5 -149 l 5 -218 m 154 -293 l 223 -293 l 223 -223 l 154 -223 l 154 -293 m 5 -293 l 74 -293 l 74 -223 l 5 -223 l 5 -293 m 228 -293 l 298 -293 l 298 -223 l 228 -223 l 228 -293 m 303 -293 l 372 -293 l 372 -223 l 303 -223 l 303 -293 m 79 -293 l 149 -293 l 149 -223 l 79 -223 l 79 -293 m 377 -293 l 446 -293 l 446 -223 l 377 -223 l 377 -293 m 451 -293 l 521 -293 l 521 -223 l 451 -223 l 451 -293 m 451 -367 l 521 -367 l 521 -298 l 451 -298 l 451 -367 m 303 -367 l 372 -367 l 372 -298 l 303 -298 l 303 -367 m 228 -367 l 298 -367 l 298 -298 l 228 -298 l 228 -367 m 154 -367 l 223 -367 l 223 -298 l 154 -298 l 154 -367 m 79 -367 l 149 -367 l 149 -298 l 79 -298 l 79 -367 m 5 -367 l 74 -367 l 74 -298 l 5 -298 l 5 -367 m 377 -367 l 446 -367 l 446 -298 l 377 -298 l 377 -367 m 377 1116 l 377 1047 l 446 1047 l 446 1116 l 377 1116 m 303 1116 l 303 1047 l 372 1047 l 372 1116 l 303 1116 m 228 1116 l 228 1047 l 298 1047 l 298 1116 l 228 1116 m 154 1116 l 154 1047 l 223 1047 l 223 1116 l 154 1116 m 79 1116 l 79 1047 l 149 1047 l 149 1116 l 79 1116 m 5 1116 l 5 1047 l 74 1047 l 74 1116 l 5 1116 m 595 1116 l 526 1116 l 526 1047 l 595 1047 l 595 1042 l 526 1042 l 526 972 l 595 972 l 595 967 l 526 967 l 526 898 l 595 898 l 595 893 l 526 893 l 526 823 l 595 823 l 595 818 l 526 818 l 526 749 l 595 749 l 595 744 l 526 744 l 526 675 l 595 675 l 595 670 l 526 670 l 526 600 l 595 600 l 595 595 l 526 595 l 526 526 l 595 526 l 595 521 l 526 521 l 526 451 l 595 451 l 595 446 l 526 446 l 526 377 l 595 377 l 595 372 l 526 372 l 526 303 l 595 303 l 595 298 l 526 298 l 526 228 l 595 228 l 595 223 l 526 223 l 526 154 l 595 154 l 595 149 l 526 149 l 526 79 l 595 79 l 595 74 l 526 74 l 526 5 l 595 5 l 595 0 l 526 0 l 526 -69 l 595 -69 l 595 -74 l 526 -74 l 526 -144 l 595 -144 l 595 -149 l 526 -149 l 526 -218 l 595 -218 l 595 -223 l 526 -223 l 526 -293 l 595 -293 l 595 -298 l 526 -298 l 526 -367 l 595 -367 l 595 -372 l 0 -372 l 0 1121 l 595 1121 l 595 1116 z "},"":{"ha":670,"x_min":0,"x_max":670,"o":"m 526 1116 l 526 1047 l 595 1047 l 595 1116 l 526 1116 m 5 972 l 74 972 l 74 1042 l 5 1042 l 5 972 m 79 972 l 149 972 l 149 1042 l 79 1042 l 79 972 m 154 972 l 223 972 l 223 1042 l 154 1042 l 154 972 m 526 972 l 595 972 l 595 1042 l 526 1042 l 526 972 m 451 972 l 521 972 l 521 1042 l 451 1042 l 451 972 m 377 972 l 446 972 l 446 1042 l 377 1042 l 377 972 m 228 972 l 298 972 l 298 1042 l 228 1042 l 228 972 m 303 972 l 372 972 l 372 1042 l 303 1042 l 303 972 m 5 898 l 74 898 l 74 967 l 5 967 l 5 898 m 79 898 l 149 898 l 149 967 l 79 967 l 79 898 m 154 898 l 223 898 l 223 967 l 154 967 l 154 898 m 526 898 l 595 898 l 595 967 l 526 967 l 526 898 m 228 898 l 298 898 l 298 967 l 228 967 l 228 898 m 451 898 l 521 898 l 521 967 l 451 967 l 451 898 m 303 898 l 372 898 l 372 967 l 303 967 l 303 898 m 377 898 l 446 898 l 446 967 l 377 967 l 377 898 m 377 823 l 446 823 l 446 893 l 377 893 l 377 823 m 451 823 l 521 823 l 521 893 l 451 893 l 451 823 m 303 823 l 372 823 l 372 893 l 303 893 l 303 823 m 526 823 l 595 823 l 595 893 l 526 893 l 526 823 m 228 823 l 298 823 l 298 893 l 228 893 l 228 823 m 154 823 l 223 823 l 223 893 l 154 893 l 154 823 m 79 823 l 149 823 l 149 893 l 79 893 l 79 823 m 5 823 l 74 823 l 74 893 l 5 893 l 5 823 m 451 749 l 521 749 l 521 818 l 451 818 l 451 749 m 526 749 l 595 749 l 595 818 l 526 818 l 526 749 m 377 749 l 446 749 l 446 818 l 377 818 l 377 749 m 303 749 l 372 749 l 372 818 l 303 818 l 303 749 m 228 749 l 298 749 l 298 818 l 228 818 l 228 749 m 154 749 l 223 749 l 223 818 l 154 818 l 154 749 m 79 749 l 149 749 l 149 818 l 79 818 l 79 749 m 5 749 l 74 749 l 74 818 l 5 818 l 5 749 m 526 675 l 595 675 l 595 744 l 526 744 l 526 675 m 5 675 l 74 675 l 74 744 l 5 744 l 5 675 m 5 600 l 74 600 l 74 670 l 5 670 l 5 600 m 228 526 l 298 526 l 298 595 l 228 595 l 228 526 m 5 526 l 74 526 l 74 595 l 5 595 l 5 526 m 303 526 l 372 526 l 372 595 l 303 595 l 303 526 m 5 451 l 74 451 l 74 521 l 5 521 l 5 451 m 228 451 l 298 451 l 298 521 l 228 521 l 228 451 m 303 451 l 372 451 l 372 521 l 303 521 l 303 451 m 377 451 l 446 451 l 446 521 l 377 521 l 377 451 m 377 377 l 446 377 l 446 446 l 377 446 l 377 377 m 377 303 l 446 303 l 446 372 l 377 372 l 377 303 m 5 228 l 74 228 l 74 298 l 5 298 l 5 228 m 377 228 l 446 228 l 446 298 l 377 298 l 377 228 m 303 228 l 372 228 l 372 298 l 303 298 l 303 228 m 228 228 l 298 228 l 298 298 l 228 298 l 228 228 m 5 154 l 74 154 l 74 223 l 5 223 l 5 154 m 303 154 l 372 154 l 372 223 l 303 223 l 303 154 m 228 154 l 298 154 l 298 223 l 228 223 l 228 154 m 5 79 l 74 79 l 74 149 l 5 149 l 5 79 m 526 5 l 595 5 l 595 74 l 526 74 l 526 5 m 5 5 l 74 5 l 74 74 l 5 74 l 5 5 m 303 -69 l 372 -69 l 372 0 l 303 0 l 303 -69 m 377 -69 l 446 -69 l 446 0 l 377 0 l 377 -69 m 451 -69 l 521 -69 l 521 0 l 451 0 l 451 -69 m 5 -69 l 74 -69 l 74 0 l 5 0 l 5 -69 m 79 -69 l 149 -69 l 149 0 l 79 0 l 79 -69 m 526 -69 l 595 -69 l 595 0 l 526 0 l 526 -69 m 228 -69 l 298 -69 l 298 0 l 228 0 l 228 -69 m 154 -69 l 223 -69 l 223 0 l 154 0 l 154 -69 m 154 -144 l 223 -144 l 223 -74 l 154 -74 l 154 -144 m 377 -144 l 446 -144 l 446 -74 l 377 -74 l 377 -144 m 228 -144 l 298 -144 l 298 -74 l 228 -74 l 228 -144 m 526 -144 l 595 -144 l 595 -74 l 526 -74 l 526 -144 m 303 -144 l 372 -144 l 372 -74 l 303 -74 l 303 -144 m 451 -144 l 521 -144 l 521 -74 l 451 -74 l 451 -144 m 5 -144 l 74 -144 l 74 -74 l 5 -74 l 5 -144 m 79 -144 l 149 -144 l 149 -74 l 79 -74 l 79 -144 m 154 -218 l 223 -218 l 223 -149 l 154 -149 l 154 -218 m 377 -218 l 446 -218 l 446 -149 l 377 -149 l 377 -218 m 228 -218 l 298 -218 l 298 -149 l 228 -149 l 228 -218 m 5 -218 l 74 -218 l 74 -149 l 5 -149 l 5 -218 m 451 -218 l 521 -218 l 521 -149 l 451 -149 l 451 -218 m 303 -218 l 372 -218 l 372 -149 l 303 -149 l 303 -218 m 526 -218 l 595 -218 l 595 -149 l 526 -149 l 526 -218 m 79 -218 l 149 -218 l 149 -149 l 79 -149 l 79 -218 m 79 -293 l 149 -293 l 149 -223 l 79 -223 l 79 -293 m 526 -293 l 595 -293 l 595 -223 l 526 -223 l 526 -293 m 303 -293 l 372 -293 l 372 -223 l 303 -223 l 303 -293 m 451 -293 l 521 -293 l 521 -223 l 451 -223 l 451 -293 m 154 -293 l 223 -293 l 223 -223 l 154 -223 l 154 -293 m 228 -293 l 298 -293 l 298 -223 l 228 -223 l 228 -293 m 5 -293 l 74 -293 l 74 -223 l 5 -223 l 5 -293 m 377 -293 l 446 -293 l 446 -223 l 377 -223 l 377 -293 m 79 -367 l 149 -367 l 149 -298 l 79 -298 l 79 -367 m 154 -367 l 223 -367 l 223 -298 l 154 -298 l 154 -367 m 451 -367 l 521 -367 l 521 -298 l 451 -298 l 451 -367 m 303 -367 l 372 -367 l 372 -298 l 303 -298 l 303 -367 m 228 -367 l 298 -367 l 298 -298 l 228 -298 l 228 -367 m 377 -367 l 446 -367 l 446 -298 l 377 -298 l 377 -367 m 5 -367 l 74 -367 l 74 -298 l 5 -298 l 5 -367 m 526 -367 l 595 -367 l 595 -298 l 526 -298 l 526 -367 m 451 1116 l 451 1047 l 521 1047 l 521 1116 l 451 1116 m 377 1116 l 377 1047 l 446 1047 l 446 1116 l 377 1116 m 303 1116 l 303 1047 l 372 1047 l 372 1116 l 303 1116 m 228 1116 l 228 1047 l 298 1047 l 298 1116 l 228 1116 m 154 1116 l 154 1047 l 223 1047 l 223 1116 l 154 1116 m 79 1116 l 79 1047 l 149 1047 l 149 1116 l 79 1116 m 5 1116 l 5 1047 l 74 1047 l 74 1116 l 5 1116 m 670 1116 l 600 1116 l 600 1047 l 670 1047 l 670 1042 l 600 1042 l 600 972 l 670 972 l 670 967 l 600 967 l 600 898 l 670 898 l 670 893 l 600 893 l 600 823 l 670 823 l 670 818 l 600 818 l 600 749 l 670 749 l 670 744 l 600 744 l 600 675 l 670 675 l 670 670 l 600 670 l 600 600 l 670 600 l 670 595 l 600 595 l 600 526 l 670 526 l 670 521 l 600 521 l 600 451 l 670 451 l 670 446 l 600 446 l 600 377 l 670 377 l 670 372 l 600 372 l 600 303 l 670 303 l 670 298 l 600 298 l 600 228 l 670 228 l 670 223 l 600 223 l 600 154 l 670 154 l 670 149 l 600 149 l 600 79 l 670 79 l 670 74 l 600 74 l 600 5 l 670 5 l 670 0 l 600 0 l 600 -69 l 670 -69 l 670 -74 l 600 -74 l 600 -144 l 670 -144 l 670 -149 l 600 -149 l 600 -218 l 670 -218 l 670 -223 l 600 -223 l 600 -293 l 670 -293 l 670 -298 l 600 -298 l 600 -367 l 670 -367 l 670 -372 l 0 -372 l 0 1121 l 670 1121 l 670 1116 z "},"":{"ha":595,"x_min":0,"x_max":595,"o":"m 451 1116 l 451 1047 l 521 1047 l 521 1116 l 451 1116 m 79 972 l 149 972 l 149 1042 l 79 1042 l 79 972 m 154 972 l 223 972 l 223 1042 l 154 1042 l 154 972 m 451 972 l 521 972 l 521 1042 l 451 1042 l 451 972 m 377 972 l 446 972 l 446 1042 l 377 1042 l 377 972 m 5 972 l 74 972 l 74 1042 l 5 1042 l 5 972 m 303 972 l 372 972 l 372 1042 l 303 1042 l 303 972 m 228 972 l 298 972 l 298 1042 l 228 1042 l 228 972 m 154 898 l 223 898 l 223 967 l 154 967 l 154 898 m 79 898 l 149 898 l 149 967 l 79 967 l 79 898 m 5 898 l 74 898 l 74 967 l 5 967 l 5 898 m 228 898 l 298 898 l 298 967 l 228 967 l 228 898 m 451 898 l 521 898 l 521 967 l 451 967 l 451 898 m 377 898 l 446 898 l 446 967 l 377 967 l 377 898 m 303 898 l 372 898 l 372 967 l 303 967 l 303 898 m 377 823 l 446 823 l 446 893 l 377 893 l 377 823 m 451 823 l 521 823 l 521 893 l 451 893 l 451 823 m 303 823 l 372 823 l 372 893 l 303 893 l 303 823 m 79 823 l 149 823 l 149 893 l 79 893 l 79 823 m 228 823 l 298 823 l 298 893 l 228 893 l 228 823 m 5 823 l 74 823 l 74 893 l 5 893 l 5 823 m 154 823 l 223 823 l 223 893 l 154 893 l 154 823 m 451 749 l 521 749 l 521 818 l 451 818 l 451 749 m 377 749 l 446 749 l 446 818 l 377 818 l 377 749 m 154 749 l 223 749 l 223 818 l 154 818 l 154 749 m 79 749 l 149 749 l 149 818 l 79 818 l 79 749 m 303 749 l 372 749 l 372 818 l 303 818 l 303 749 m 5 749 l 74 749 l 74 818 l 5 818 l 5 749 m 228 749 l 298 749 l 298 818 l 228 818 l 228 749 m 451 675 l 521 675 l 521 744 l 451 744 l 451 675 m 154 526 l 223 526 l 223 595 l 154 595 l 154 526 m 228 526 l 298 526 l 298 595 l 228 595 l 228 526 m 154 451 l 223 451 l 223 521 l 154 521 l 154 451 m 303 451 l 372 451 l 372 521 l 303 521 l 303 451 m 228 451 l 298 451 l 298 521 l 228 521 l 228 451 m 303 377 l 372 377 l 372 446 l 303 446 l 303 377 m 228 377 l 298 377 l 298 446 l 228 446 l 228 377 m 154 377 l 223 377 l 223 446 l 154 446 l 154 377 m 154 303 l 223 303 l 223 372 l 154 372 l 154 303 m 303 303 l 372 303 l 372 372 l 303 372 l 303 303 m 228 303 l 298 303 l 298 372 l 228 372 l 228 303 m 228 228 l 298 228 l 298 298 l 228 298 l 228 228 m 303 228 l 372 228 l 372 298 l 303 298 l 303 228 m 154 228 l 223 228 l 223 298 l 154 298 l 154 228 m 154 154 l 223 154 l 223 223 l 154 223 l 154 154 m 228 154 l 298 154 l 298 223 l 228 223 l 228 154 m 451 5 l 521 5 l 521 74 l 451 74 l 451 5 m 154 -69 l 223 -69 l 223 0 l 154 0 l 154 -69 m 79 -69 l 149 -69 l 149 0 l 79 0 l 79 -69 m 228 -69 l 298 -69 l 298 0 l 228 0 l 228 -69 m 303 -69 l 372 -69 l 372 0 l 303 0 l 303 -69 m 5 -69 l 74 -69 l 74 0 l 5 0 l 5 -69 m 451 -69 l 521 -69 l 521 0 l 451 0 l 451 -69 m 377 -69 l 446 -69 l 446 0 l 377 0 l 377 -69 m 154 -144 l 223 -144 l 223 -74 l 154 -74 l 154 -144 m 79 -144 l 149 -144 l 149 -74 l 79 -74 l 79 -144 m 377 -144 l 446 -144 l 446 -74 l 377 -74 l 377 -144 m 303 -144 l 372 -144 l 372 -74 l 303 -74 l 303 -144 m 5 -144 l 74 -144 l 74 -74 l 5 -74 l 5 -144 m 451 -144 l 521 -144 l 521 -74 l 451 -74 l 451 -144 m 228 -144 l 298 -144 l 298 -74 l 228 -74 l 228 -144 m 154 -218 l 223 -218 l 223 -149 l 154 -149 l 154 -218 m 377 -218 l 446 -218 l 446 -149 l 377 -149 l 377 -218 m 228 -218 l 298 -218 l 298 -149 l 228 -149 l 228 -218 m 303 -218 l 372 -218 l 372 -149 l 303 -149 l 303 -218 m 79 -218 l 149 -218 l 149 -149 l 79 -149 l 79 -218 m 451 -218 l 521 -218 l 521 -149 l 451 -149 l 451 -218 m 5 -218 l 74 -218 l 74 -149 l 5 -149 l 5 -218 m 154 -293 l 223 -293 l 223 -223 l 154 -223 l 154 -293 m 5 -293 l 74 -293 l 74 -223 l 5 -223 l 5 -293 m 228 -293 l 298 -293 l 298 -223 l 228 -223 l 228 -293 m 303 -293 l 372 -293 l 372 -223 l 303 -223 l 303 -293 m 79 -293 l 149 -293 l 149 -223 l 79 -223 l 79 -293 m 377 -293 l 446 -293 l 446 -223 l 377 -223 l 377 -293 m 451 -293 l 521 -293 l 521 -223 l 451 -223 l 451 -293 m 451 -367 l 521 -367 l 521 -298 l 451 -298 l 451 -367 m 303 -367 l 372 -367 l 372 -298 l 303 -298 l 303 -367 m 228 -367 l 298 -367 l 298 -298 l 228 -298 l 228 -367 m 154 -367 l 223 -367 l 223 -298 l 154 -298 l 154 -367 m 79 -367 l 149 -367 l 149 -298 l 79 -298 l 79 -367 m 5 -367 l 74 -367 l 74 -298 l 5 -298 l 5 -367 m 377 -367 l 446 -367 l 446 -298 l 377 -298 l 377 -367 m 377 1116 l 377 1047 l 446 1047 l 446 1116 l 377 1116 m 303 1116 l 303 1047 l 372 1047 l 372 1116 l 303 1116 m 228 1116 l 228 1047 l 298 1047 l 298 1116 l 228 1116 m 154 1116 l 154 1047 l 223 1047 l 223 1116 l 154 1116 m 79 1116 l 79 1047 l 149 1047 l 149 1116 l 79 1116 m 5 1116 l 5 1047 l 74 1047 l 74 1116 l 5 1116 m 595 1116 l 526 1116 l 526 1047 l 595 1047 l 595 1042 l 526 1042 l 526 972 l 595 972 l 595 967 l 526 967 l 526 898 l 595 898 l 595 893 l 526 893 l 526 823 l 595 823 l 595 818 l 526 818 l 526 749 l 595 749 l 595 744 l 526 744 l 526 675 l 595 675 l 595 670 l 526 670 l 526 600 l 595 600 l 595 595 l 526 595 l 526 526 l 595 526 l 595 521 l 526 521 l 526 451 l 595 451 l 595 446 l 526 446 l 526 377 l 595 377 l 595 372 l 526 372 l 526 303 l 595 303 l 595 298 l 526 298 l 526 228 l 595 228 l 595 223 l 526 223 l 526 154 l 595 154 l 595 149 l 526 149 l 526 79 l 595 79 l 595 74 l 526 74 l 526 5 l 595 5 l 595 0 l 526 0 l 526 -69 l 595 -69 l 595 -74 l 526 -74 l 526 -144 l 595 -144 l 595 -149 l 526 -149 l 526 -218 l 595 -218 l 595 -223 l 526 -223 l 526 -293 l 595 -293 l 595 -298 l 526 -298 l 526 -367 l 595 -367 l 595 -372 l 0 -372 l 0 1121 l 595 1121 l 595 1116 m 149 967 l 149 1042 l 223 1042 l 223 967 l 149 967 m 298 967 l 298 1042 l 372 1042 l 372 967 l 298 967 m 74 967 l 74 1042 l 149 1042 l 149 967 l 74 967 m 223 893 l 223 967 l 298 967 l 298 893 l 223 893 m 149 893 l 149 967 l 223 967 l 223 893 l 149 893 m 372 1042 l 446 1042 l 446 967 l 372 967 l 372 1042 m 298 967 l 372 967 l 372 893 l 298 893 l 298 967 m 223 893 l 298 893 l 298 818 l 223 818 l 223 893 z "},"":{"ha":670,"x_min":0,"x_max":670,"o":"m 526 1116 l 526 1047 l 595 1047 l 595 1116 l 526 1116 m 5 972 l 74 972 l 74 1042 l 5 1042 l 5 972 m 79 972 l 149 972 l 149 1042 l 79 1042 l 79 972 m 154 972 l 223 972 l 223 1042 l 154 1042 l 154 972 m 526 972 l 595 972 l 595 1042 l 526 1042 l 526 972 m 451 972 l 521 972 l 521 1042 l 451 1042 l 451 972 m 377 972 l 446 972 l 446 1042 l 377 1042 l 377 972 m 228 972 l 298 972 l 298 1042 l 228 1042 l 228 972 m 303 972 l 372 972 l 372 1042 l 303 1042 l 303 972 m 5 898 l 74 898 l 74 967 l 5 967 l 5 898 m 79 898 l 149 898 l 149 967 l 79 967 l 79 898 m 154 898 l 223 898 l 223 967 l 154 967 l 154 898 m 526 898 l 595 898 l 595 967 l 526 967 l 526 898 m 228 898 l 298 898 l 298 967 l 228 967 l 228 898 m 451 898 l 521 898 l 521 967 l 451 967 l 451 898 m 303 898 l 372 898 l 372 967 l 303 967 l 303 898 m 377 898 l 446 898 l 446 967 l 377 967 l 377 898 m 377 823 l 446 823 l 446 893 l 377 893 l 377 823 m 451 823 l 521 823 l 521 893 l 451 893 l 451 823 m 303 823 l 372 823 l 372 893 l 303 893 l 303 823 m 526 823 l 595 823 l 595 893 l 526 893 l 526 823 m 228 823 l 298 823 l 298 893 l 228 893 l 228 823 m 154 823 l 223 823 l 223 893 l 154 893 l 154 823 m 79 823 l 149 823 l 149 893 l 79 893 l 79 823 m 5 823 l 74 823 l 74 893 l 5 893 l 5 823 m 451 749 l 521 749 l 521 818 l 451 818 l 451 749 m 526 749 l 595 749 l 595 818 l 526 818 l 526 749 m 377 749 l 446 749 l 446 818 l 377 818 l 377 749 m 303 749 l 372 749 l 372 818 l 303 818 l 303 749 m 228 749 l 298 749 l 298 818 l 228 818 l 228 749 m 154 749 l 223 749 l 223 818 l 154 818 l 154 749 m 79 749 l 149 749 l 149 818 l 79 818 l 79 749 m 5 749 l 74 749 l 74 818 l 5 818 l 5 749 m 526 675 l 595 675 l 595 744 l 526 744 l 526 675 m 5 675 l 74 675 l 74 744 l 5 744 l 5 675 m 5 600 l 74 600 l 74 670 l 5 670 l 5 600 m 228 526 l 298 526 l 298 595 l 228 595 l 228 526 m 5 526 l 74 526 l 74 595 l 5 595 l 5 526 m 303 526 l 372 526 l 372 595 l 303 595 l 303 526 m 5 451 l 74 451 l 74 521 l 5 521 l 5 451 m 228 451 l 298 451 l 298 521 l 228 521 l 228 451 m 303 451 l 372 451 l 372 521 l 303 521 l 303 451 m 377 451 l 446 451 l 446 521 l 377 521 l 377 451 m 377 377 l 446 377 l 446 446 l 377 446 l 377 377 m 377 303 l 446 303 l 446 372 l 377 372 l 377 303 m 5 228 l 74 228 l 74 298 l 5 298 l 5 228 m 377 228 l 446 228 l 446 298 l 377 298 l 377 228 m 303 228 l 372 228 l 372 298 l 303 298 l 303 228 m 228 228 l 298 228 l 298 298 l 228 298 l 228 228 m 5 154 l 74 154 l 74 223 l 5 223 l 5 154 m 303 154 l 372 154 l 372 223 l 303 223 l 303 154 m 228 154 l 298 154 l 298 223 l 228 223 l 228 154 m 5 79 l 74 79 l 74 149 l 5 149 l 5 79 m 526 5 l 595 5 l 595 74 l 526 74 l 526 5 m 5 5 l 74 5 l 74 74 l 5 74 l 5 5 m 303 -69 l 372 -69 l 372 0 l 303 0 l 303 -69 m 377 -69 l 446 -69 l 446 0 l 377 0 l 377 -69 m 451 -69 l 521 -69 l 521 0 l 451 0 l 451 -69 m 5 -69 l 74 -69 l 74 0 l 5 0 l 5 -69 m 79 -69 l 149 -69 l 149 0 l 79 0 l 79 -69 m 526 -69 l 595 -69 l 595 0 l 526 0 l 526 -69 m 228 -69 l 298 -69 l 298 0 l 228 0 l 228 -69 m 154 -69 l 223 -69 l 223 0 l 154 0 l 154 -69 m 154 -144 l 223 -144 l 223 -74 l 154 -74 l 154 -144 m 377 -144 l 446 -144 l 446 -74 l 377 -74 l 377 -144 m 228 -144 l 298 -144 l 298 -74 l 228 -74 l 228 -144 m 526 -144 l 595 -144 l 595 -74 l 526 -74 l 526 -144 m 303 -144 l 372 -144 l 372 -74 l 303 -74 l 303 -144 m 451 -144 l 521 -144 l 521 -74 l 451 -74 l 451 -144 m 5 -144 l 74 -144 l 74 -74 l 5 -74 l 5 -144 m 79 -144 l 149 -144 l 149 -74 l 79 -74 l 79 -144 m 154 -218 l 223 -218 l 223 -149 l 154 -149 l 154 -218 m 377 -218 l 446 -218 l 446 -149 l 377 -149 l 377 -218 m 228 -218 l 298 -218 l 298 -149 l 228 -149 l 228 -218 m 5 -218 l 74 -218 l 74 -149 l 5 -149 l 5 -218 m 451 -218 l 521 -218 l 521 -149 l 451 -149 l 451 -218 m 303 -218 l 372 -218 l 372 -149 l 303 -149 l 303 -218 m 526 -218 l 595 -218 l 595 -149 l 526 -149 l 526 -218 m 79 -218 l 149 -218 l 149 -149 l 79 -149 l 79 -218 m 79 -293 l 149 -293 l 149 -223 l 79 -223 l 79 -293 m 526 -293 l 595 -293 l 595 -223 l 526 -223 l 526 -293 m 303 -293 l 372 -293 l 372 -223 l 303 -223 l 303 -293 m 451 -293 l 521 -293 l 521 -223 l 451 -223 l 451 -293 m 154 -293 l 223 -293 l 223 -223 l 154 -223 l 154 -293 m 228 -293 l 298 -293 l 298 -223 l 228 -223 l 228 -293 m 5 -293 l 74 -293 l 74 -223 l 5 -223 l 5 -293 m 377 -293 l 446 -293 l 446 -223 l 377 -223 l 377 -293 m 79 -367 l 149 -367 l 149 -298 l 79 -298 l 79 -367 m 154 -367 l 223 -367 l 223 -298 l 154 -298 l 154 -367 m 451 -367 l 521 -367 l 521 -298 l 451 -298 l 451 -367 m 303 -367 l 372 -367 l 372 -298 l 303 -298 l 303 -367 m 228 -367 l 298 -367 l 298 -298 l 228 -298 l 228 -367 m 377 -367 l 446 -367 l 446 -298 l 377 -298 l 377 -367 m 5 -367 l 74 -367 l 74 -298 l 5 -298 l 5 -367 m 526 -367 l 595 -367 l 595 -298 l 526 -298 l 526 -367 m 451 1116 l 451 1047 l 521 1047 l 521 1116 l 451 1116 m 377 1116 l 377 1047 l 446 1047 l 446 1116 l 377 1116 m 303 1116 l 303 1047 l 372 1047 l 372 1116 l 303 1116 m 228 1116 l 228 1047 l 298 1047 l 298 1116 l 228 1116 m 154 1116 l 154 1047 l 223 1047 l 223 1116 l 154 1116 m 79 1116 l 79 1047 l 149 1047 l 149 1116 l 79 1116 m 5 1116 l 5 1047 l 74 1047 l 74 1116 l 5 1116 m 670 1116 l 600 1116 l 600 1047 l 670 1047 l 670 1042 l 600 1042 l 600 972 l 670 972 l 670 967 l 600 967 l 600 898 l 670 898 l 670 893 l 600 893 l 600 823 l 670 823 l 670 818 l 600 818 l 600 749 l 670 749 l 670 744 l 600 744 l 600 675 l 670 675 l 670 670 l 600 670 l 600 600 l 670 600 l 670 595 l 600 595 l 600 526 l 670 526 l 670 521 l 600 521 l 600 451 l 670 451 l 670 446 l 600 446 l 600 377 l 670 377 l 670 372 l 600 372 l 600 303 l 670 303 l 670 298 l 600 298 l 600 228 l 670 228 l 670 223 l 600 223 l 600 154 l 670 154 l 670 149 l 600 149 l 600 79 l 670 79 l 670 74 l 600 74 l 600 5 l 670 5 l 670 0 l 600 0 l 600 -69 l 670 -69 l 670 -74 l 600 -74 l 600 -144 l 670 -144 l 670 -149 l 600 -149 l 600 -218 l 670 -218 l 670 -223 l 600 -223 l 600 -293 l 670 -293 l 670 -298 l 600 -298 l 600 -367 l 670 -367 l 670 -372 l 0 -372 l 0 1121 l 670 1121 l 670 1116 z "},"E":{"ha":521,"x_min":0,"x_max":521,"o":"m 377 1116 l 377 1047 l 446 1047 l 446 1116 l 377 1116 m 377 972 l 446 972 l 446 1042 l 377 1042 l 377 972 m 303 972 l 372 972 l 372 1042 l 303 1042 l 303 972 m 228 972 l 298 972 l 298 1042 l 228 1042 l 228 972 m 154 972 l 223 972 l 223 1042 l 154 1042 l 154 972 m 79 972 l 149 972 l 149 1042 l 79 1042 l 79 972 m 5 972 l 74 972 l 74 1042 l 5 1042 l 5 972 m 377 898 l 446 898 l 446 967 l 377 967 l 377 898 m 303 898 l 372 898 l 372 967 l 303 967 l 303 898 m 228 898 l 298 898 l 298 967 l 228 967 l 228 898 m 154 898 l 223 898 l 223 967 l 154 967 l 154 898 m 79 898 l 149 898 l 149 967 l 79 967 l 79 898 m 5 898 l 74 898 l 74 967 l 5 967 l 5 898 m 5 823 l 74 823 l 74 893 l 5 893 l 5 823 m 377 823 l 446 823 l 446 893 l 377 893 l 377 823 m 303 823 l 372 823 l 372 893 l 303 893 l 303 823 m 228 823 l 298 823 l 298 893 l 228 893 l 228 823 m 154 823 l 223 823 l 223 893 l 154 893 l 154 823 m 79 823 l 149 823 l 149 893 l 79 893 l 79 823 m 377 749 l 446 749 l 446 818 l 377 818 l 377 749 m 303 749 l 372 749 l 372 818 l 303 818 l 303 749 m 228 749 l 298 749 l 298 818 l 228 818 l 228 749 m 154 749 l 223 749 l 223 818 l 154 818 l 154 749 m 79 749 l 149 749 l 149 818 l 79 818 l 79 749 m 5 749 l 74 749 l 74 818 l 5 818 l 5 749 m 377 526 l 446 526 l 446 595 l 377 595 l 377 526 m 303 526 l 372 526 l 372 595 l 303 595 l 303 526 m 228 526 l 298 526 l 298 595 l 228 595 l 228 526 m 154 526 l 223 526 l 223 595 l 154 595 l 154 526 m 154 451 l 223 451 l 223 521 l 154 521 l 154 451 m 228 451 l 298 451 l 298 521 l 228 521 l 228 451 m 303 451 l 372 451 l 372 521 l 303 521 l 303 451 m 377 451 l 446 451 l 446 521 l 377 521 l 377 451 m 377 377 l 446 377 l 446 446 l 377 446 l 377 377 m 377 303 l 446 303 l 446 372 l 377 372 l 377 303 m 303 228 l 372 228 l 372 298 l 303 298 l 303 228 m 154 228 l 223 228 l 223 298 l 154 298 l 154 228 m 377 228 l 446 228 l 446 298 l 377 298 l 377 228 m 228 228 l 298 228 l 298 298 l 228 298 l 228 228 m 228 154 l 298 154 l 298 223 l 228 223 l 228 154 m 303 154 l 372 154 l 372 223 l 303 223 l 303 154 m 377 154 l 446 154 l 446 223 l 377 223 l 377 154 m 154 154 l 223 154 l 223 223 l 154 223 l 154 154 m 303 -69 l 372 -69 l 372 0 l 303 0 l 303 -69 m 5 -69 l 74 -69 l 74 0 l 5 0 l 5 -69 m 79 -69 l 149 -69 l 149 0 l 79 0 l 79 -69 m 228 -69 l 298 -69 l 298 0 l 228 0 l 228 -69 m 377 -69 l 446 -69 l 446 0 l 377 0 l 377 -69 m 154 -69 l 223 -69 l 223 0 l 154 0 l 154 -69 m 5 -144 l 74 -144 l 74 -74 l 5 -74 l 5 -144 m 79 -144 l 149 -144 l 149 -74 l 79 -74 l 79 -144 m 228 -144 l 298 -144 l 298 -74 l 228 -74 l 228 -144 m 303 -144 l 372 -144 l 372 -74 l 303 -74 l 303 -144 m 377 -144 l 446 -144 l 446 -74 l 377 -74 l 377 -144 m 154 -144 l 223 -144 l 223 -74 l 154 -74 l 154 -144 m 5 -218 l 74 -218 l 74 -149 l 5 -149 l 5 -218 m 79 -218 l 149 -218 l 149 -149 l 79 -149 l 79 -218 m 228 -218 l 298 -218 l 298 -149 l 228 -149 l 228 -218 m 303 -218 l 372 -218 l 372 -149 l 303 -149 l 303 -218 m 377 -218 l 446 -218 l 446 -149 l 377 -149 l 377 -218 m 154 -218 l 223 -218 l 223 -149 l 154 -149 l 154 -218 m 5 -293 l 74 -293 l 74 -223 l 5 -223 l 5 -293 m 79 -293 l 149 -293 l 149 -223 l 79 -223 l 79 -293 m 228 -293 l 298 -293 l 298 -223 l 228 -223 l 228 -293 m 303 -293 l 372 -293 l 372 -223 l 303 -223 l 303 -293 m 377 -293 l 446 -293 l 446 -223 l 377 -223 l 377 -293 m 154 -293 l 223 -293 l 223 -223 l 154 -223 l 154 -293 m 79 -367 l 149 -367 l 149 -298 l 79 -298 l 79 -367 m 5 -367 l 74 -367 l 74 -298 l 5 -298 l 5 -367 m 228 -367 l 298 -367 l 298 -298 l 228 -298 l 228 -367 m 303 -367 l 372 -367 l 372 -298 l 303 -298 l 303 -367 m 377 -367 l 446 -367 l 446 -298 l 377 -298 l 377 -367 m 154 -367 l 223 -367 l 223 -298 l 154 -298 l 154 -367 m 303 1116 l 303 1047 l 372 1047 l 372 1116 l 303 1116 m 228 1116 l 228 1047 l 298 1047 l 298 1116 l 228 1116 m 154 1116 l 154 1047 l 223 1047 l 223 1116 l 154 1116 m 79 1116 l 79 1047 l 149 1047 l 149 1116 l 79 1116 m 5 1116 l 5 1047 l 74 1047 l 74 1116 l 5 1116 m 521 1116 l 451 1116 l 451 1047 l 521 1047 l 521 1042 l 451 1042 l 451 972 l 521 972 l 521 967 l 451 967 l 451 898 l 521 898 l 521 893 l 451 893 l 451 823 l 521 823 l 521 818 l 451 818 l 451 749 l 521 749 l 521 744 l 451 744 l 451 675 l 521 675 l 521 670 l 451 670 l 451 600 l 521 600 l 521 595 l 451 595 l 451 526 l 521 526 l 521 521 l 451 521 l 451 451 l 521 451 l 521 446 l 451 446 l 451 377 l 521 377 l 521 372 l 451 372 l 451 303 l 521 303 l 521 298 l 451 298 l 451 228 l 521 228 l 521 223 l 451 223 l 451 154 l 521 154 l 521 149 l 451 149 l 451 79 l 521 79 l 521 74 l 451 74 l 451 5 l 521 5 l 521 0 l 451 0 l 451 -69 l 521 -69 l 521 -74 l 451 -74 l 451 -144 l 521 -144 l 521 -149 l 451 -149 l 451 -218 l 521 -218 l 521 -223 l 451 -223 l 451 -293 l 521 -293 l 521 -298 l 451 -298 l 451 -367 l 521 -367 l 521 -372 l 0 -372 l 0 1121 l 521 1121 l 521 1116 z "},"":{"ha":521,"x_min":0,"x_max":521,"o":"m 377 1116 l 377 1047 l 446 1047 l 446 1116 l 377 1116 m 377 972 l 446 972 l 446 1042 l 377 1042 l 377 972 m 303 972 l 372 972 l 372 1042 l 303 1042 l 303 972 m 228 972 l 298 972 l 298 1042 l 228 1042 l 228 972 m 154 972 l 223 972 l 223 1042 l 154 1042 l 154 972 m 79 972 l 149 972 l 149 1042 l 79 1042 l 79 972 m 5 972 l 74 972 l 74 1042 l 5 1042 l 5 972 m 377 898 l 446 898 l 446 967 l 377 967 l 377 898 m 303 898 l 372 898 l 372 967 l 303 967 l 303 898 m 228 898 l 298 898 l 298 967 l 228 967 l 228 898 m 154 898 l 223 898 l 223 967 l 154 967 l 154 898 m 79 898 l 149 898 l 149 967 l 79 967 l 79 898 m 5 898 l 74 898 l 74 967 l 5 967 l 5 898 m 5 823 l 74 823 l 74 893 l 5 893 l 5 823 m 377 823 l 446 823 l 446 893 l 377 893 l 377 823 m 303 823 l 372 823 l 372 893 l 303 893 l 303 823 m 228 823 l 298 823 l 298 893 l 228 893 l 228 823 m 154 823 l 223 823 l 223 893 l 154 893 l 154 823 m 79 823 l 149 823 l 149 893 l 79 893 l 79 823 m 377 749 l 446 749 l 446 818 l 377 818 l 377 749 m 303 749 l 372 749 l 372 818 l 303 818 l 303 749 m 228 749 l 298 749 l 298 818 l 228 818 l 228 749 m 154 749 l 223 749 l 223 818 l 154 818 l 154 749 m 79 749 l 149 749 l 149 818 l 79 818 l 79 749 m 5 749 l 74 749 l 74 818 l 5 818 l 5 749 m 377 526 l 446 526 l 446 595 l 377 595 l 377 526 m 303 526 l 372 526 l 372 595 l 303 595 l 303 526 m 228 526 l 298 526 l 298 595 l 228 595 l 228 526 m 154 526 l 223 526 l 223 595 l 154 595 l 154 526 m 154 451 l 223 451 l 223 521 l 154 521 l 154 451 m 228 451 l 298 451 l 298 521 l 228 521 l 228 451 m 303 451 l 372 451 l 372 521 l 303 521 l 303 451 m 377 451 l 446 451 l 446 521 l 377 521 l 377 451 m 377 377 l 446 377 l 446 446 l 377 446 l 377 377 m 377 303 l 446 303 l 446 372 l 377 372 l 377 303 m 303 228 l 372 228 l 372 298 l 303 298 l 303 228 m 154 228 l 223 228 l 223 298 l 154 298 l 154 228 m 377 228 l 446 228 l 446 298 l 377 298 l 377 228 m 228 228 l 298 228 l 298 298 l 228 298 l 228 228 m 228 154 l 298 154 l 298 223 l 228 223 l 228 154 m 303 154 l 372 154 l 372 223 l 303 223 l 303 154 m 377 154 l 446 154 l 446 223 l 377 223 l 377 154 m 154 154 l 223 154 l 223 223 l 154 223 l 154 154 m 303 -69 l 372 -69 l 372 0 l 303 0 l 303 -69 m 5 -69 l 74 -69 l 74 0 l 5 0 l 5 -69 m 79 -69 l 149 -69 l 149 0 l 79 0 l 79 -69 m 228 -69 l 298 -69 l 298 0 l 228 0 l 228 -69 m 377 -69 l 446 -69 l 446 0 l 377 0 l 377 -69 m 154 -69 l 223 -69 l 223 0 l 154 0 l 154 -69 m 5 -144 l 74 -144 l 74 -74 l 5 -74 l 5 -144 m 79 -144 l 149 -144 l 149 -74 l 79 -74 l 79 -144 m 228 -144 l 298 -144 l 298 -74 l 228 -74 l 228 -144 m 303 -144 l 372 -144 l 372 -74 l 303 -74 l 303 -144 m 377 -144 l 446 -144 l 446 -74 l 377 -74 l 377 -144 m 154 -144 l 223 -144 l 223 -74 l 154 -74 l 154 -144 m 5 -218 l 74 -218 l 74 -149 l 5 -149 l 5 -218 m 79 -218 l 149 -218 l 149 -149 l 79 -149 l 79 -218 m 228 -218 l 298 -218 l 298 -149 l 228 -149 l 228 -218 m 303 -218 l 372 -218 l 372 -149 l 303 -149 l 303 -218 m 377 -218 l 446 -218 l 446 -149 l 377 -149 l 377 -218 m 154 -218 l 223 -218 l 223 -149 l 154 -149 l 154 -218 m 5 -293 l 74 -293 l 74 -223 l 5 -223 l 5 -293 m 79 -293 l 149 -293 l 149 -223 l 79 -223 l 79 -293 m 228 -293 l 298 -293 l 298 -223 l 228 -223 l 228 -293 m 303 -293 l 372 -293 l 372 -223 l 303 -223 l 303 -293 m 377 -293 l 446 -293 l 446 -223 l 377 -223 l 377 -293 m 154 -293 l 223 -293 l 223 -223 l 154 -223 l 154 -293 m 79 -367 l 149 -367 l 149 -298 l 79 -298 l 79 -367 m 5 -367 l 74 -367 l 74 -298 l 5 -298 l 5 -367 m 228 -367 l 298 -367 l 298 -298 l 228 -298 l 228 -367 m 303 -367 l 372 -367 l 372 -298 l 303 -298 l 303 -367 m 377 -367 l 446 -367 l 446 -298 l 377 -298 l 377 -367 m 154 -367 l 223 -367 l 223 -298 l 154 -298 l 154 -367 m 303 1116 l 303 1047 l 372 1047 l 372 1116 l 303 1116 m 228 1116 l 228 1047 l 298 1047 l 298 1116 l 228 1116 m 154 1116 l 154 1047 l 223 1047 l 223 1116 l 154 1116 m 79 1116 l 79 1047 l 149 1047 l 149 1116 l 79 1116 m 5 1116 l 5 1047 l 74 1047 l 74 1116 l 5 1116 m 521 1116 l 451 1116 l 451 1047 l 521 1047 l 521 1042 l 451 1042 l 451 972 l 521 972 l 521 967 l 451 967 l 451 898 l 521 898 l 521 893 l 451 893 l 451 823 l 521 823 l 521 818 l 451 818 l 451 749 l 521 749 l 521 744 l 451 744 l 451 675 l 521 675 l 521 670 l 451 670 l 451 600 l 521 600 l 521 595 l 451 595 l 451 526 l 521 526 l 521 521 l 451 521 l 451 451 l 521 451 l 521 446 l 451 446 l 451 377 l 521 377 l 521 372 l 451 372 l 451 303 l 521 303 l 521 298 l 451 298 l 451 228 l 521 228 l 521 223 l 451 223 l 451 154 l 521 154 l 521 149 l 451 149 l 451 79 l 521 79 l 521 74 l 451 74 l 451 5 l 521 5 l 521 0 l 451 0 l 451 -69 l 521 -69 l 521 -74 l 451 -74 l 451 -144 l 521 -144 l 521 -149 l 451 -149 l 451 -218 l 521 -218 l 521 -223 l 451 -223 l 451 -293 l 521 -293 l 521 -298 l 451 -298 l 451 -367 l 521 -367 l 521 -372 l 0 -372 l 0 1121 l 521 1121 l 521 1116 m 298 967 l 298 893 l 223 893 l 223 967 l 298 967 m 298 893 l 298 818 l 223 818 l 223 893 l 298 893 m 372 967 l 372 893 l 298 893 l 298 967 l 372 967 m 372 1042 l 372 967 l 298 967 l 298 1042 l 372 1042 z "},"":{"ha":521,"x_min":0,"x_max":521,"o":"m 377 1116 l 377 1047 l 446 1047 l 446 1116 l 377 1116 m 377 972 l 446 972 l 446 1042 l 377 1042 l 377 972 m 303 972 l 372 972 l 372 1042 l 303 1042 l 303 972 m 228 972 l 298 972 l 298 1042 l 228 1042 l 228 972 m 154 972 l 223 972 l 223 1042 l 154 1042 l 154 972 m 79 972 l 149 972 l 149 1042 l 79 1042 l 79 972 m 5 972 l 74 972 l 74 1042 l 5 1042 l 5 972 m 377 898 l 446 898 l 446 967 l 377 967 l 377 898 m 303 898 l 372 898 l 372 967 l 303 967 l 303 898 m 228 898 l 298 898 l 298 967 l 228 967 l 228 898 m 154 898 l 223 898 l 223 967 l 154 967 l 154 898 m 79 898 l 149 898 l 149 967 l 79 967 l 79 898 m 5 898 l 74 898 l 74 967 l 5 967 l 5 898 m 5 823 l 74 823 l 74 893 l 5 893 l 5 823 m 377 823 l 446 823 l 446 893 l 377 893 l 377 823 m 303 823 l 372 823 l 372 893 l 303 893 l 303 823 m 228 823 l 298 823 l 298 893 l 228 893 l 228 823 m 154 823 l 223 823 l 223 893 l 154 893 l 154 823 m 79 823 l 149 823 l 149 893 l 79 893 l 79 823 m 377 749 l 446 749 l 446 818 l 377 818 l 377 749 m 303 749 l 372 749 l 372 818 l 303 818 l 303 749 m 228 749 l 298 749 l 298 818 l 228 818 l 228 749 m 154 749 l 223 749 l 223 818 l 154 818 l 154 749 m 79 749 l 149 749 l 149 818 l 79 818 l 79 749 m 5 749 l 74 749 l 74 818 l 5 818 l 5 749 m 377 526 l 446 526 l 446 595 l 377 595 l 377 526 m 303 526 l 372 526 l 372 595 l 303 595 l 303 526 m 228 526 l 298 526 l 298 595 l 228 595 l 228 526 m 154 526 l 223 526 l 223 595 l 154 595 l 154 526 m 154 451 l 223 451 l 223 521 l 154 521 l 154 451 m 228 451 l 298 451 l 298 521 l 228 521 l 228 451 m 303 451 l 372 451 l 372 521 l 303 521 l 303 451 m 377 451 l 446 451 l 446 521 l 377 521 l 377 451 m 377 377 l 446 377 l 446 446 l 377 446 l 377 377 m 377 303 l 446 303 l 446 372 l 377 372 l 377 303 m 303 228 l 372 228 l 372 298 l 303 298 l 303 228 m 154 228 l 223 228 l 223 298 l 154 298 l 154 228 m 377 228 l 446 228 l 446 298 l 377 298 l 377 228 m 228 228 l 298 228 l 298 298 l 228 298 l 228 228 m 228 154 l 298 154 l 298 223 l 228 223 l 228 154 m 303 154 l 372 154 l 372 223 l 303 223 l 303 154 m 377 154 l 446 154 l 446 223 l 377 223 l 377 154 m 154 154 l 223 154 l 223 223 l 154 223 l 154 154 m 303 -69 l 372 -69 l 372 0 l 303 0 l 303 -69 m 5 -69 l 74 -69 l 74 0 l 5 0 l 5 -69 m 79 -69 l 149 -69 l 149 0 l 79 0 l 79 -69 m 228 -69 l 298 -69 l 298 0 l 228 0 l 228 -69 m 377 -69 l 446 -69 l 446 0 l 377 0 l 377 -69 m 154 -69 l 223 -69 l 223 0 l 154 0 l 154 -69 m 5 -144 l 74 -144 l 74 -74 l 5 -74 l 5 -144 m 79 -144 l 149 -144 l 149 -74 l 79 -74 l 79 -144 m 228 -144 l 298 -144 l 298 -74 l 228 -74 l 228 -144 m 303 -144 l 372 -144 l 372 -74 l 303 -74 l 303 -144 m 377 -144 l 446 -144 l 446 -74 l 377 -74 l 377 -144 m 154 -144 l 223 -144 l 223 -74 l 154 -74 l 154 -144 m 5 -218 l 74 -218 l 74 -149 l 5 -149 l 5 -218 m 79 -218 l 149 -218 l 149 -149 l 79 -149 l 79 -218 m 228 -218 l 298 -218 l 298 -149 l 228 -149 l 228 -218 m 303 -218 l 372 -218 l 372 -149 l 303 -149 l 303 -218 m 377 -218 l 446 -218 l 446 -149 l 377 -149 l 377 -218 m 154 -218 l 223 -218 l 223 -149 l 154 -149 l 154 -218 m 5 -293 l 74 -293 l 74 -223 l 5 -223 l 5 -293 m 79 -293 l 149 -293 l 149 -223 l 79 -223 l 79 -293 m 228 -293 l 298 -293 l 298 -223 l 228 -223 l 228 -293 m 303 -293 l 372 -293 l 372 -223 l 303 -223 l 303 -293 m 377 -293 l 446 -293 l 446 -223 l 377 -223 l 377 -293 m 154 -293 l 223 -293 l 223 -223 l 154 -223 l 154 -293 m 79 -367 l 149 -367 l 149 -298 l 79 -298 l 79 -367 m 5 -367 l 74 -367 l 74 -298 l 5 -298 l 5 -367 m 228 -367 l 298 -367 l 298 -298 l 228 -298 l 228 -367 m 303 -367 l 372 -367 l 372 -298 l 303 -298 l 303 -367 m 377 -367 l 446 -367 l 446 -298 l 377 -298 l 377 -367 m 154 -367 l 223 -367 l 223 -298 l 154 -298 l 154 -367 m 303 1116 l 303 1047 l 372 1047 l 372 1116 l 303 1116 m 228 1116 l 228 1047 l 298 1047 l 298 1116 l 228 1116 m 154 1116 l 154 1047 l 223 1047 l 223 1116 l 154 1116 m 79 1116 l 79 1047 l 149 1047 l 149 1116 l 79 1116 m 5 1116 l 5 1047 l 74 1047 l 74 1116 l 5 1116 m 521 1116 l 451 1116 l 451 1047 l 521 1047 l 521 1042 l 451 1042 l 451 972 l 521 972 l 521 967 l 451 967 l 451 898 l 521 898 l 521 893 l 451 893 l 451 823 l 521 823 l 521 818 l 451 818 l 451 749 l 521 749 l 521 744 l 451 744 l 451 675 l 521 675 l 521 670 l 451 670 l 451 600 l 521 600 l 521 595 l 451 595 l 451 526 l 521 526 l 521 521 l 451 521 l 451 451 l 521 451 l 521 446 l 451 446 l 451 377 l 521 377 l 521 372 l 451 372 l 451 303 l 521 303 l 521 298 l 451 298 l 451 228 l 521 228 l 521 223 l 451 223 l 451 154 l 521 154 l 521 149 l 451 149 l 451 79 l 521 79 l 521 74 l 451 74 l 451 5 l 521 5 l 521 0 l 451 0 l 451 -69 l 521 -69 l 521 -74 l 451 -74 l 451 -144 l 521 -144 l 521 -149 l 451 -149 l 451 -218 l 521 -218 l 521 -223 l 451 -223 l 451 -293 l 521 -293 l 521 -298 l 451 -298 l 451 -367 l 521 -367 l 521 -372 l 0 -372 l 0 1121 l 521 1121 l 521 1116 m 149 967 l 149 1042 l 223 1042 l 223 967 l 149 967 m 298 967 l 298 1042 l 372 1042 l 372 967 l 298 967 m 74 967 l 74 1042 l 149 1042 l 149 967 l 74 967 m 223 893 l 223 967 l 298 967 l 298 893 l 223 893 m 149 893 l 149 967 l 223 967 l 223 893 l 149 893 m 372 1042 l 446 1042 l 446 967 l 372 967 l 372 1042 m 298 967 l 372 967 l 372 893 l 298 893 l 298 967 m 223 893 l 298 893 l 298 818 l 223 818 l 223 893 z "},"":{"ha":521,"x_min":0,"x_max":521,"o":"m 377 1116 l 377 1047 l 446 1047 l 446 1116 l 377 1116 m 377 972 l 446 972 l 446 1042 l 377 1042 l 377 972 m 303 972 l 372 972 l 372 1042 l 303 1042 l 303 972 m 228 972 l 298 972 l 298 1042 l 228 1042 l 228 972 m 154 972 l 223 972 l 223 1042 l 154 1042 l 154 972 m 79 972 l 149 972 l 149 1042 l 79 1042 l 79 972 m 5 972 l 74 972 l 74 1042 l 5 1042 l 5 972 m 377 898 l 446 898 l 446 967 l 377 967 l 377 898 m 303 898 l 372 898 l 372 967 l 303 967 l 303 898 m 228 898 l 298 898 l 298 967 l 228 967 l 228 898 m 154 898 l 223 898 l 223 967 l 154 967 l 154 898 m 79 898 l 149 898 l 149 967 l 79 967 l 79 898 m 5 898 l 74 898 l 74 967 l 5 967 l 5 898 m 5 823 l 74 823 l 74 893 l 5 893 l 5 823 m 377 823 l 446 823 l 446 893 l 377 893 l 377 823 m 303 823 l 372 823 l 372 893 l 303 893 l 303 823 m 228 823 l 298 823 l 298 893 l 228 893 l 228 823 m 154 823 l 223 823 l 223 893 l 154 893 l 154 823 m 79 823 l 149 823 l 149 893 l 79 893 l 79 823 m 377 749 l 446 749 l 446 818 l 377 818 l 377 749 m 303 749 l 372 749 l 372 818 l 303 818 l 303 749 m 228 749 l 298 749 l 298 818 l 228 818 l 228 749 m 154 749 l 223 749 l 223 818 l 154 818 l 154 749 m 79 749 l 149 749 l 149 818 l 79 818 l 79 749 m 5 749 l 74 749 l 74 818 l 5 818 l 5 749 m 377 526 l 446 526 l 446 595 l 377 595 l 377 526 m 303 526 l 372 526 l 372 595 l 303 595 l 303 526 m 228 526 l 298 526 l 298 595 l 228 595 l 228 526 m 154 526 l 223 526 l 223 595 l 154 595 l 154 526 m 154 451 l 223 451 l 223 521 l 154 521 l 154 451 m 228 451 l 298 451 l 298 521 l 228 521 l 228 451 m 303 451 l 372 451 l 372 521 l 303 521 l 303 451 m 377 451 l 446 451 l 446 521 l 377 521 l 377 451 m 377 377 l 446 377 l 446 446 l 377 446 l 377 377 m 377 303 l 446 303 l 446 372 l 377 372 l 377 303 m 303 228 l 372 228 l 372 298 l 303 298 l 303 228 m 154 228 l 223 228 l 223 298 l 154 298 l 154 228 m 377 228 l 446 228 l 446 298 l 377 298 l 377 228 m 228 228 l 298 228 l 298 298 l 228 298 l 228 228 m 228 154 l 298 154 l 298 223 l 228 223 l 228 154 m 303 154 l 372 154 l 372 223 l 303 223 l 303 154 m 377 154 l 446 154 l 446 223 l 377 223 l 377 154 m 154 154 l 223 154 l 223 223 l 154 223 l 154 154 m 303 -69 l 372 -69 l 372 0 l 303 0 l 303 -69 m 5 -69 l 74 -69 l 74 0 l 5 0 l 5 -69 m 79 -69 l 149 -69 l 149 0 l 79 0 l 79 -69 m 228 -69 l 298 -69 l 298 0 l 228 0 l 228 -69 m 377 -69 l 446 -69 l 446 0 l 377 0 l 377 -69 m 154 -69 l 223 -69 l 223 0 l 154 0 l 154 -69 m 5 -144 l 74 -144 l 74 -74 l 5 -74 l 5 -144 m 79 -144 l 149 -144 l 149 -74 l 79 -74 l 79 -144 m 228 -144 l 298 -144 l 298 -74 l 228 -74 l 228 -144 m 303 -144 l 372 -144 l 372 -74 l 303 -74 l 303 -144 m 377 -144 l 446 -144 l 446 -74 l 377 -74 l 377 -144 m 154 -144 l 223 -144 l 223 -74 l 154 -74 l 154 -144 m 5 -218 l 74 -218 l 74 -149 l 5 -149 l 5 -218 m 79 -218 l 149 -218 l 149 -149 l 79 -149 l 79 -218 m 228 -218 l 298 -218 l 298 -149 l 228 -149 l 228 -218 m 303 -218 l 372 -218 l 372 -149 l 303 -149 l 303 -218 m 377 -218 l 446 -218 l 446 -149 l 377 -149 l 377 -218 m 154 -218 l 223 -218 l 223 -149 l 154 -149 l 154 -218 m 5 -293 l 74 -293 l 74 -223 l 5 -223 l 5 -293 m 79 -293 l 149 -293 l 149 -223 l 79 -223 l 79 -293 m 228 -293 l 298 -293 l 298 -223 l 228 -223 l 228 -293 m 303 -293 l 372 -293 l 372 -223 l 303 -223 l 303 -293 m 377 -293 l 446 -293 l 446 -223 l 377 -223 l 377 -293 m 154 -293 l 223 -293 l 223 -223 l 154 -223 l 154 -293 m 79 -367 l 149 -367 l 149 -298 l 79 -298 l 79 -367 m 5 -367 l 74 -367 l 74 -298 l 5 -298 l 5 -367 m 228 -367 l 298 -367 l 298 -298 l 228 -298 l 228 -367 m 303 -367 l 372 -367 l 372 -298 l 303 -298 l 303 -367 m 377 -367 l 446 -367 l 446 -298 l 377 -298 l 377 -367 m 154 -367 l 223 -367 l 223 -298 l 154 -298 l 154 -367 m 303 1116 l 303 1047 l 372 1047 l 372 1116 l 303 1116 m 228 1116 l 228 1047 l 298 1047 l 298 1116 l 228 1116 m 154 1116 l 154 1047 l 223 1047 l 223 1116 l 154 1116 m 79 1116 l 79 1047 l 149 1047 l 149 1116 l 79 1116 m 5 1116 l 5 1047 l 74 1047 l 74 1116 l 5 1116 m 521 1116 l 451 1116 l 451 1047 l 521 1047 l 521 1042 l 451 1042 l 451 972 l 521 972 l 521 967 l 451 967 l 451 898 l 521 898 l 521 893 l 451 893 l 451 823 l 521 823 l 521 818 l 451 818 l 451 749 l 521 749 l 521 744 l 451 744 l 451 675 l 521 675 l 521 670 l 451 670 l 451 600 l 521 600 l 521 595 l 451 595 l 451 526 l 521 526 l 521 521 l 451 521 l 451 451 l 521 451 l 521 446 l 451 446 l 451 377 l 521 377 l 521 372 l 451 372 l 451 303 l 521 303 l 521 298 l 451 298 l 451 228 l 521 228 l 521 223 l 451 223 l 451 154 l 521 154 l 521 149 l 451 149 l 451 79 l 521 79 l 521 74 l 451 74 l 451 5 l 521 5 l 521 0 l 451 0 l 451 -69 l 521 -69 l 521 -74 l 451 -74 l 451 -144 l 521 -144 l 521 -149 l 451 -149 l 451 -218 l 521 -218 l 521 -223 l 451 -223 l 451 -293 l 521 -293 l 521 -298 l 451 -298 l 451 -367 l 521 -367 l 521 -372 l 0 -372 l 0 1121 l 521 1121 l 521 1116 m 149 893 l 223 893 l 223 818 l 149 818 l 149 893 m 298 893 l 372 893 l 372 818 l 298 818 l 298 893 m 74 893 l 149 893 l 149 818 l 74 818 l 74 893 m 223 967 l 298 967 l 298 893 l 223 893 l 223 967 m 149 967 l 223 967 l 223 893 l 149 893 l 149 967 m 372 893 l 446 893 l 446 818 l 372 818 l 372 893 m 298 967 l 372 967 l 372 893 l 298 893 l 298 967 m 223 1042 l 298 1042 l 298 967 l 223 967 l 223 1042 z "}}}
